<?xml version="1.0" encoding="utf-8"?>
<!-- Generator: Adobe Illustrator 25.2.0, SVG Export Plug-In . SVG Version: 6.00 Build 0)  -->
<svg version="1.1" id="Layer_1" xmlns="http://www.w3.org/2000/svg" xmlns:xlink="http://www.w3.org/1999/xlink" x="0px" y="0px"
	 viewBox="0 0 326.16 135.87" style="enable-background:new 0 0 326.16 135.87;" xml:space="preserve">
<style type="text/css">
	.st0{fill:#FFFFFF;}
	.st1{fill:#00837C;}
	.st2{fill:none;stroke:#FFFFFF;stroke-miterlimit:10;}
	.st3{fill:#307238;}
	.st4{fill:#3F4481;}
	.st5{fill:#3F4481;stroke:#3F4582;stroke-width:1.522;stroke-miterlimit:10;}
	.st6{fill:#3F4481;stroke:#3F4582;stroke-width:2;stroke-miterlimit:10;}
	.st7{fill:#FBAC18;}
	.st8{fill:#55803E;}
	.st9{fill:#AA7F45;}
	.st10{fill:#4F5087;}
</style>
<g>
	<g>
		<path class="st4" d="M98.32,30.99c-4.14,1.62-7.85,3.19-11.65,4.47c-1.01,0.34-2.48,0.11-3.46-0.39
			c-6.47-3.35-13.32-4.05-20.41-3.17c-10.26,1.27-18.37,6.36-24.49,14.5c-6.12,8.14-8.31,17.55-6.55,27.46
			c2.36,13.33,9.94,22.81,22.7,27.93c14.74,5.91,30.83,1.21,40.73-9.77c0.38-0.42,1.01-0.96,1.47-0.91
			c2.13,0.24,4.24,0.64,6.34,1.08c0.3,0.06,0.67,0.71,0.68,1.09c0.07,1.73,0.18,3.48-0.03,5.19c-0.12,0.95-0.66,2.03-1.34,2.7
			c-5.1,4.97-10.82,8.93-17.58,11.49c-10.82,4.1-21.69,4.3-32.52,0.66c-7.98-2.68-14.76-7.32-20.43-13.72
			c-5.47-6.18-9.04-13.22-10.88-21.14c-2.72-11.68-0.97-22.75,4.69-33.35c3.65-6.84,8.65-12.4,14.98-16.65
			c12.84-8.64,26.78-10.68,41.63-6.17c5.55,1.69,10.52,4.46,15.09,8C97.66,30.59,98.08,30.83,98.32,30.99z"/>
		<path class="st4" d="M104.17,91.76c0-4.07-0.04-7.53,0.06-10.97c0.01-0.36,0.88-0.9,1.42-1.02c5.82-1.31,9.64-4.91,10.17-10.75
			c0.43-4.75-1.57-8.73-5.56-11.32c-4.36-2.82-9.12-3.04-13.47-0.08c-3.07,2.09-5.29,4.95-5.37,9.12c-0.11,5.32-1.41,10.34-4.6,14.8
			c-5.03,7.04-11.84,10.42-20.4,10.16c-10.94-0.34-19.71-8.01-22.35-18.64c-3-12.03,5.49-25.76,18.1-28.37
			c3.71-0.77,7.3-1.12,10.97,0.14c1.15,0.39,1.54,0.69,0.88,1.85c-1.53,2.7-2.91,5.48-4.52,8.12c-0.32,0.52-1.43,0.82-2.16,0.8
			c-5.78-0.17-11.09,4.37-12.2,10.11c-1.06,5.48,1.9,11.52,7.28,13.54c8.88,3.34,16.75-2.01,17.2-11.18
			c0.23-4.71,1.38-8.98,3.81-12.97c2.48-4.07,6-7.02,10.3-8.87c5.18-2.23,10.59-2.74,16.25-1.74c5.55,0.98,9.42,4.28,12.7,8.37
			c3.8,4.74,5.8,10.3,5.25,16.4c-0.88,9.59-7.19,18.42-16.96,21.16C108.86,90.99,106.68,91.27,104.17,91.76z"/>
	</g>
	<g>
		<g>
			<path class="st5" d="M145.68,92.37l7.48-19.22c0.31-0.8,1.08-1.33,1.95-1.33h0.36c0.86,0,1.63,0.53,1.95,1.33l7.45,19.22
				c0.34,0.87-0.3,1.8-1.23,1.8h-0.04c-0.55,0-1.04-0.34-1.24-0.85l-6.04-15.81l-1.05-3.12h-0.07l-0.98,3.01l-6.08,15.91
				c-0.2,0.51-0.69,0.85-1.24,0.85l0,0C145.98,94.17,145.34,93.24,145.68,92.37z M149.24,87.98v-2.54h11.95v2.54H149.24z"/>
			<path class="st5" d="M178.33,76.56c1.17,0,2.21,0.18,3.1,0.54s1.66,0.88,2.32,1.56c0.33,0.35,0.64,0.72,0.91,1.14
				c0.42,0.64,0.18,1.51-0.51,1.84l-0.21,0.1c-0.6,0.29-1.32,0.05-1.64-0.54c-0.32-0.57-0.71-1.04-1.17-1.4
				c-0.73-0.58-1.69-0.86-2.86-0.86c-1.13,0-2.1,0.25-2.91,0.76c-0.81,0.51-1.43,1.24-1.86,2.2c-0.43,0.96-0.64,2.12-0.64,3.47
				c0,1.33,0.21,2.48,0.64,3.45c0.43,0.97,1.05,1.71,1.86,2.22c0.81,0.51,1.78,0.76,2.91,0.76c0.88,0,1.64-0.14,2.29-0.41
				c0.64-0.27,1.17-0.67,1.59-1.18c0.2-0.24,0.36-0.51,0.5-0.81c0.28-0.59,0.94-0.88,1.56-0.67l0,0c0.75,0.26,1.07,1.14,0.67,1.83
				c-0.27,0.48-0.59,0.91-0.94,1.31c-0.67,0.74-1.47,1.32-2.4,1.71c-0.94,0.39-2,0.59-3.2,0.59c-1.58,0-2.99-0.35-4.23-1.05
				c-1.24-0.7-2.21-1.71-2.91-3.03c-0.7-1.32-1.05-2.89-1.05-4.72c0-1.83,0.35-3.4,1.05-4.72c0.7-1.32,1.67-2.33,2.91-3.03
				C175.34,76.91,176.75,76.56,178.33,76.56z"/>
			<path class="st5" d="M202.2,82.9c0-1.26-0.34-2.24-1.02-2.93c-0.68-0.69-1.64-1.03-2.88-1.03c-1.17,0-2.17,0.25-2.98,0.76
				c-0.49,0.31-0.91,0.73-1.24,1.27c-0.38,0.61-1.16,0.82-1.77,0.44l0,0c-0.6-0.37-0.8-1.17-0.42-1.77c0.47-0.74,1.12-1.38,1.94-1.9
				c1.22-0.78,2.73-1.17,4.54-1.17c1.22,0,2.32,0.21,3.32,0.63c0.99,0.42,1.78,1.05,2.35,1.9c0.58,0.85,0.86,1.94,0.86,3.27v8.19
				c0,0.81,0.43,1.22,1.29,1.22c0,0,0.01,0,0.01,0c0.66,0,1.2,0.52,1.15,1.18l0,0.02c-0.03,0.51-0.4,0.94-0.9,1.03
				c-0.27,0.05-0.58,0.07-0.91,0.07c-0.65,0-1.24-0.12-1.76-0.37c-0.52-0.25-0.93-0.63-1.22-1.13c-0.29-0.51-0.44-1.15-0.44-1.91
				v-0.34l0.68,0.1c-0.27,0.88-0.73,1.6-1.39,2.15c-0.65,0.55-1.39,0.96-2.2,1.22c-0.81,0.26-1.61,0.39-2.4,0.39
				c-0.99,0-1.92-0.17-2.78-0.51c-0.86-0.34-1.54-0.85-2.05-1.54c-0.51-0.69-0.76-1.54-0.76-2.56c0-1.26,0.42-2.31,1.27-3.13
				c0.85-0.82,2.03-1.38,3.54-1.68l6.7-1.32v2.23l-5.45,1.12c-1.11,0.23-1.93,0.54-2.47,0.95c-0.54,0.41-0.81,0.97-0.81,1.69
				c0,0.7,0.28,1.27,0.83,1.71c0.55,0.44,1.34,0.66,2.35,0.66c0.65,0,1.28-0.08,1.88-0.25c0.6-0.17,1.13-0.43,1.61-0.78
				c0.47-0.35,0.85-0.79,1.12-1.32c0.27-0.53,0.41-1.16,0.41-1.88V82.9z"/>
			<path class="st5" d="M220.12,94.17c-1.4,0-2.69-0.35-3.86-1.05c-1.17-0.7-2.11-1.71-2.81-3.03c-0.7-1.32-1.05-2.89-1.05-4.72
				c0-1.87,0.37-3.47,1.12-4.77c0.75-1.31,1.73-2.31,2.95-3c1.22-0.69,2.53-1.03,3.93-1.03c1.4,0,2.61,0.36,3.64,1.08
				c1.03,0.72,1.71,1.68,2.05,2.88l-0.34,0.24V70.33c0-0.67,0.55-1.22,1.22-1.22h0.27c0.67,0,1.22,0.55,1.22,1.22v22.28
				c0,0.67-0.55,1.22-1.22,1.22l0,0c-0.65,0-1.18-0.5-1.22-1.15l-0.17-2.95l0.37-0.2c-0.16,0.99-0.54,1.83-1.13,2.52
				c-0.6,0.69-1.33,1.21-2.2,1.57C222.01,93.99,221.09,94.17,220.12,94.17z M220.39,91.8c1.08,0,2.03-0.27,2.83-0.81
				c0.8-0.54,1.42-1.32,1.86-2.32c0.44-1,0.66-2.18,0.66-3.54c0-1.29-0.22-2.39-0.66-3.32c-0.44-0.93-1.05-1.64-1.83-2.13
				c-0.78-0.5-1.69-0.74-2.73-0.74c-1.72,0-3.05,0.59-4,1.76c-0.95,1.17-1.42,2.73-1.42,4.67c0,1.94,0.46,3.5,1.39,4.67
				C217.42,91.21,218.72,91.8,220.39,91.8z"/>
			<path class="st5" d="M258.35,92.82V77.78c0-0.3,0.24-0.54,0.54-0.54h1.33c0.28,0,0.52,0.22,0.53,0.5l0.04,0.69
				c0.03,0.47,0.61,0.66,0.93,0.32c0.45-0.48,0.97-0.86,1.55-1.14c0.98-0.47,1.99-0.71,3.03-0.71c1.2,0,2.32,0.27,3.39,0.81
				c0.81,0.41,1.47,0.99,1.99,1.75c0.22,0.31,0.67,0.31,0.89,0c0.3-0.43,0.66-0.8,1.09-1.12c0.65-0.49,1.37-0.85,2.15-1.08
				c0.78-0.24,1.52-0.36,2.22-0.36c1.08,0,2.12,0.23,3.1,0.68c0.98,0.45,1.79,1.15,2.42,2.1c0.63,0.95,0.95,2.17,0.95,3.66v9.48
				c0,0.75-0.61,1.35-1.35,1.35l0,0c-0.75,0-1.35-0.61-1.35-1.35v-9.21c0-1.53-0.38-2.64-1.15-3.32c-0.77-0.68-1.72-1.02-2.84-1.02
				c-0.88,0-1.7,0.21-2.47,0.64c-0.77,0.43-1.38,1.06-1.85,1.9c-0.46,0.84-0.69,1.86-0.69,3.08v7.92c0,0.75-0.61,1.35-1.35,1.35l0,0
				c-0.75,0-1.35-0.61-1.35-1.35v-9.21c0-1.53-0.38-2.64-1.15-3.32s-1.72-1.02-2.84-1.02c-0.74,0-1.51,0.2-2.29,0.59
				c-0.78,0.4-1.43,1.02-1.95,1.88c-0.52,0.86-0.78,1.99-0.78,3.39v7.69c0,0.75-0.61,1.35-1.35,1.35h0
				C258.95,94.17,258.35,93.57,258.35,92.82z"/>
			<path class="st5" d="M304.58,77.11c0.72,0,1.22,0.73,0.95,1.4l-7.39,18.37c-0.43,1.11-0.9,1.98-1.41,2.62
				c-0.51,0.64-1.07,1.11-1.69,1.39c-0.62,0.28-1.34,0.42-2.15,0.42c-0.77,0-1.47-0.11-2.12-0.32c-0.28-0.09-0.55-0.2-0.8-0.32
				c-0.53-0.26-0.81-0.86-0.63-1.42l0,0c0.21-0.67,0.96-1.02,1.59-0.72c0.1,0.05,0.21,0.09,0.31,0.13c0.51,0.19,1.01,0.29,1.51,0.29
				c0.59,0,1.14-0.18,1.66-0.54c0.52-0.36,0.99-1.1,1.42-2.2l0.88-2.2l-1.69-4.03l-4.79-11.45c-0.28-0.67,0.21-1.41,0.94-1.41h0.85
				c0.42,0,0.8,0.26,0.95,0.65l3.98,10.38l1.05,3.01l1.22-3.35l3.72-10.03c0.15-0.4,0.53-0.67,0.96-0.67H304.58z"/>
			<path class="st5" d="M250.37,80.34c-0.59-1.16-1.44-2.09-2.56-2.76c-1.11-0.68-2.46-1.01-4.04-1.01c-1.55,0-2.95,0.35-4.16,1.05
				c-1.22,0.7-2.18,1.71-2.88,3.03c-0.7,1.33-1.05,2.9-1.05,4.73c0,1.83,0.35,3.4,1.05,4.72c0.7,1.33,1.68,2.33,2.93,3.04
				c1.25,0.7,2.69,1.05,4.28,1.05c1.11,0,2.11-0.15,3-0.46c0.89-0.31,1.67-0.74,2.33-1.31c0.23-0.19,0.44-0.39,0.64-0.6
				c0.38-0.42,0.55-1.03,0.32-1.54c-0.23-0.5-0.67-0.7-1.09-0.7c-0.34,0-0.69,0.14-0.92,0.42c-0.37,0.44-0.81,0.81-1.3,1.11
				c-0.78,0.47-1.79,0.71-3.03,0.71c-1.15,0-2.14-0.25-2.97-0.76c-0.83-0.51-1.46-1.25-1.91-2.22c-0.36-0.76-0.57-1.62-0.65-2.6
				c0-0.04,0.03-0.07,0.06-0.07h12c0.01,0,0.02-0.01,0.03-0.01c0.33-0.09,0.54-0.41,0.67-0.71c0.09-0.36,0.14-0.7,0.14-1.04
				c0,0,0,0,0-0.01v-0.14C251.25,82.81,250.96,81.5,250.37,80.34z M238.97,81.9c0.44-0.96,1.06-1.69,1.87-2.2
				c0.8-0.51,1.76-0.76,2.86-0.76c1.44,0,2.61,0.44,3.5,1.32c0.8,0.79,1.24,1.89,1.31,3.3c0.01,0.06,0.01,0.12,0.01,0.19h-10.02
				c-0.04,0-0.07-0.04-0.06-0.07C238.56,83.02,238.74,82.43,238.97,81.9z"/>
		</g>
		<g>
			<path class="st5" d="M162.03,53c0.82,0.31,1.17,1.28,0.73,2.03c-0.37,0.65-0.82,1.24-1.33,1.77c-0.88,0.91-1.91,1.61-3.1,2.08
				c-1.18,0.47-2.48,0.71-3.88,0.71c-2.12,0-3.96-0.47-5.5-1.41c-1.55-0.94-2.74-2.26-3.59-3.98c-0.85-1.72-1.27-3.76-1.27-6.13
				s0.42-4.41,1.27-6.13c0.85-1.72,2.04-3.04,3.59-3.98c1.55-0.94,3.36-1.41,5.43-1.41c1.44,0,2.73,0.2,3.86,0.59
				c1.13,0.4,2.09,0.98,2.89,1.76c0.44,0.43,0.84,0.92,1.18,1.46c0.45,0.71,0.16,1.67-0.6,2.03l-0.08,0.04
				c-0.65,0.31-1.44,0.08-1.8-0.54c-0.43-0.74-0.97-1.34-1.61-1.79c-0.94-0.67-2.15-1-3.64-1c-1.51,0-2.84,0.36-4,1.07
				c-1.15,0.71-2.05,1.73-2.69,3.06c-0.64,1.33-0.97,2.95-0.97,4.84c0,1.87,0.3,3.48,0.91,4.83c0.61,1.34,1.48,2.37,2.61,3.08
				c1.13,0.71,2.46,1.07,4,1.07c1.49,0,2.79-0.38,3.89-1.13c0.81-0.55,1.46-1.31,1.94-2.27C160.61,53.03,161.37,52.75,162.03,53
				L162.03,53z"/>
			<path class="st5" d="M177.21,41.99c1.6,0,3.02,0.35,4.25,1.05c1.23,0.7,2.2,1.71,2.89,3.03c0.7,1.32,1.05,2.9,1.05,4.72
				c0,1.83-0.35,3.4-1.05,4.72c-0.7,1.32-1.66,2.33-2.89,3.03c-1.23,0.7-2.65,1.05-4.25,1.05c-1.58,0-2.99-0.35-4.23-1.05
				c-1.24-0.7-2.21-1.71-2.91-3.03c-0.7-1.32-1.05-2.9-1.05-4.72c0-1.83,0.35-3.4,1.05-4.72c0.7-1.32,1.67-2.33,2.91-3.03
				C174.22,42.34,175.63,41.99,177.21,41.99z M177.21,44.33c-1.15,0-2.13,0.26-2.95,0.78c-0.81,0.52-1.44,1.26-1.88,2.22
				c-0.44,0.96-0.66,2.12-0.66,3.47c0,1.33,0.22,2.48,0.66,3.45c0.44,0.97,1.07,1.72,1.88,2.23c0.81,0.52,1.79,0.78,2.95,0.78
				s2.13-0.26,2.95-0.78c0.81-0.52,1.44-1.26,1.88-2.23c0.44-0.97,0.66-2.12,0.66-3.45c0-1.35-0.22-2.51-0.66-3.47
				c-0.44-0.96-1.07-1.7-1.88-2.22C179.35,44.59,178.36,44.33,177.21,44.33z"/>
			<path class="st5" d="M199.16,59.6c-1.4,0-2.69-0.35-3.86-1.05c-1.17-0.7-2.11-1.71-2.81-3.03c-0.7-1.32-1.05-2.9-1.05-4.72
				c0-1.87,0.37-3.47,1.12-4.77c0.75-1.31,1.73-2.31,2.95-3c1.22-0.69,2.53-1.03,3.93-1.03c1.4,0,2.61,0.36,3.64,1.08
				c1.03,0.72,1.71,1.68,2.05,2.88l-0.34,0.24V35.76c0-0.67,0.55-1.22,1.22-1.22h0.27c0.67,0,1.22,0.55,1.22,1.22v22.28
				c0,0.67-0.55,1.22-1.22,1.22l0,0c-0.65,0-1.18-0.5-1.22-1.15l-0.17-2.95l0.37-0.2c-0.16,0.99-0.54,1.83-1.13,2.52
				c-0.6,0.69-1.33,1.21-2.2,1.57C201.05,59.42,200.13,59.6,199.16,59.6z M199.43,57.23c1.08,0,2.03-0.27,2.83-0.81
				c0.8-0.54,1.42-1.31,1.86-2.32c0.44-1,0.66-2.18,0.66-3.54c0-1.29-0.22-2.39-0.66-3.32c-0.44-0.93-1.05-1.64-1.83-2.13
				c-0.78-0.5-1.69-0.75-2.73-0.75c-1.72,0-3.05,0.59-4,1.76c-0.95,1.17-1.42,2.73-1.42,4.67c0,1.94,0.46,3.5,1.39,4.67
				C196.46,56.64,197.76,57.23,199.43,57.23z"/>
			<path class="st5" d="M243.48,59.6c-1.65,0-3.17-0.35-4.55-1.05c-0.94-0.47-1.73-1.08-2.37-1.82c-0.51-0.58-0.39-1.48,0.23-1.93
				l0.1-0.07c0.58-0.42,1.38-0.29,1.82,0.28c0.41,0.53,0.92,0.98,1.51,1.34c0.96,0.59,2.12,0.88,3.47,0.88
				c1.2,0,2.13-0.23,2.81-0.69c0.68-0.46,1.02-1.07,1.02-1.81c0-0.47-0.15-0.91-0.46-1.3c-0.3-0.39-0.89-0.68-1.74-0.86l-4.06-0.85
				c-1.65-0.34-2.83-0.9-3.54-1.69c-0.71-0.79-1.07-1.77-1.07-2.95c0-0.93,0.27-1.77,0.8-2.54c0.53-0.77,1.29-1.38,2.27-1.85
				c0.98-0.46,2.14-0.69,3.47-0.69c1.67,0,3.08,0.33,4.23,0.98c0.73,0.41,1.34,0.94,1.83,1.57c0.47,0.6,0.32,1.49-0.32,1.91
				l-0.02,0.01c-0.6,0.39-1.37,0.21-1.81-0.35c-0.34-0.44-0.75-0.79-1.24-1.05c-0.86-0.46-1.75-0.69-2.68-0.69
				c-0.81,0-1.51,0.11-2.08,0.34c-0.58,0.23-1.02,0.54-1.32,0.93c-0.3,0.4-0.46,0.84-0.46,1.34c0,0.5,0.17,0.95,0.51,1.37
				c0.34,0.42,0.97,0.72,1.9,0.9l4.23,0.88c1.58,0.32,2.69,0.84,3.32,1.56c0.63,0.72,0.95,1.6,0.95,2.64c0,1.06-0.28,1.99-0.85,2.79
				c-0.56,0.8-1.35,1.42-2.37,1.85C245.99,59.39,244.81,59.6,243.48,59.6z"/>
			<path class="st5" d="M258.62,39.42c-0.61,0-1.1-0.19-1.47-0.56c-0.37-0.37-0.56-0.86-0.56-1.47c0-0.61,0.19-1.1,0.56-1.47
				c0.37-0.37,0.86-0.56,1.47-0.56c0.61,0,1.1,0.19,1.47,0.56c0.37,0.37,0.56,0.86,0.56,1.47c0,0.61-0.19,1.1-0.56,1.47
				C259.72,39.23,259.23,39.42,258.62,39.42z M259.97,44.02v14.22c0,0.75-0.61,1.35-1.35,1.35l0,0c-0.75,0-1.35-0.61-1.35-1.35
				V44.02c0-0.75,0.61-1.35,1.35-1.35l0,0C259.36,42.67,259.97,43.28,259.97,44.02z"/>
			<path class="st5" d="M274.9,59.6c-1.4,0-2.69-0.35-3.86-1.05c-1.17-0.7-2.11-1.71-2.81-3.03c-0.7-1.32-1.05-2.9-1.05-4.72
				c0-1.87,0.37-3.47,1.12-4.77c0.75-1.31,1.73-2.31,2.95-3c1.22-0.69,2.53-1.03,3.93-1.03c1.4,0,2.61,0.36,3.64,1.08
				c1.03,0.72,1.71,1.68,2.05,2.88l-0.34,0.24V35.76c0-0.67,0.55-1.22,1.22-1.22h0.27c0.67,0,1.22,0.55,1.22,1.22v22.28
				c0,0.67-0.55,1.22-1.22,1.22l0,0c-0.65,0-1.18-0.5-1.22-1.15l-0.17-2.95l0.37-0.2c-0.16,0.99-0.54,1.83-1.13,2.52
				c-0.6,0.69-1.33,1.21-2.2,1.57C276.79,59.42,275.87,59.6,274.9,59.6z M275.17,57.23c1.08,0,2.03-0.27,2.83-0.81
				c0.8-0.54,1.42-1.31,1.86-2.32c0.44-1,0.66-2.18,0.66-3.54c0-1.29-0.22-2.39-0.66-3.32c-0.44-0.93-1.05-1.64-1.83-2.13
				c-0.78-0.5-1.69-0.75-2.73-0.75c-1.72,0-3.05,0.59-4,1.76c-0.95,1.17-1.42,2.73-1.42,4.67c0,1.94,0.46,3.5,1.39,4.67
				C272.21,56.64,273.5,57.23,275.17,57.23z"/>
			<path class="st5" d="M229.33,45.77c-0.59-1.16-1.44-2.09-2.56-2.76c-1.11-0.68-2.46-1.01-4.04-1.01c-1.55,0-2.95,0.35-4.16,1.05
				c-1.22,0.7-2.18,1.71-2.88,3.03c-0.7,1.33-1.05,2.9-1.05,4.73s0.35,3.4,1.05,4.72c0.7,1.33,1.68,2.33,2.93,3.04
				c1.25,0.7,2.69,1.05,4.28,1.05c1.11,0,2.11-0.15,3-0.46c0.89-0.31,1.67-0.74,2.33-1.31c0.23-0.19,0.44-0.39,0.64-0.6
				c0.38-0.42,0.55-1.03,0.32-1.54c-0.23-0.5-0.67-0.7-1.09-0.7c-0.34,0-0.69,0.14-0.92,0.42c-0.37,0.44-0.81,0.81-1.3,1.11
				c-0.78,0.47-1.79,0.71-3.03,0.71c-1.15,0-2.14-0.25-2.97-0.76c-0.83-0.51-1.46-1.25-1.91-2.22c-0.36-0.76-0.57-1.62-0.65-2.6
				c0-0.04,0.03-0.07,0.06-0.07h12c0.01,0,0.02-0.01,0.03-0.01c0.33-0.09,0.54-0.41,0.67-0.71c0.09-0.36,0.14-0.7,0.14-1.04
				c0,0,0,0,0-0.01v-0.14C230.21,48.23,229.91,46.93,229.33,45.77z M217.93,47.32c0.44-0.96,1.06-1.69,1.87-2.2
				c0.8-0.51,1.76-0.76,2.86-0.76c1.44,0,2.61,0.44,3.5,1.32c0.8,0.79,1.24,1.89,1.31,3.3c0.01,0.06,0.01,0.12,0.01,0.19h-10.02
				c-0.04,0-0.07-0.04-0.06-0.07C217.51,48.44,217.69,47.86,217.93,47.32z"/>
			<path class="st5" d="M305.64,45.77c-0.59-1.16-1.44-2.09-2.56-2.76c-1.11-0.68-2.46-1.01-4.04-1.01c-1.55,0-2.95,0.35-4.16,1.05
				c-1.22,0.7-2.18,1.71-2.88,3.03c-0.7,1.33-1.05,2.9-1.05,4.73s0.35,3.4,1.05,4.72c0.7,1.33,1.68,2.33,2.93,3.04
				c1.25,0.7,2.69,1.05,4.28,1.05c1.11,0,2.11-0.15,3-0.46c0.89-0.31,1.67-0.74,2.33-1.31c0.23-0.19,0.44-0.39,0.64-0.6
				c0.38-0.42,0.55-1.03,0.32-1.54c-0.23-0.5-0.67-0.7-1.09-0.7c-0.34,0-0.69,0.14-0.92,0.42c-0.37,0.44-0.81,0.81-1.3,1.11
				c-0.78,0.47-1.79,0.71-3.03,0.71c-1.15,0-2.14-0.25-2.97-0.76c-0.83-0.51-1.46-1.25-1.91-2.22c-0.36-0.76-0.57-1.62-0.65-2.6
				c0-0.04,0.03-0.07,0.06-0.07h12c0.01,0,0.02-0.01,0.03-0.01c0.33-0.09,0.54-0.41,0.67-0.71c0.09-0.36,0.14-0.7,0.14-1.04
				c0,0,0,0,0-0.01v-0.14C306.52,48.23,306.23,46.93,305.64,45.77z M294.24,47.32c0.44-0.96,1.06-1.69,1.87-2.2
				c0.8-0.51,1.76-0.76,2.86-0.76c1.44,0,2.61,0.44,3.5,1.32c0.8,0.79,1.24,1.89,1.31,3.3c0.01,0.06,0.01,0.12,0.01,0.19h-10.02
				c-0.04,0-0.07-0.04-0.06-0.07C293.83,48.44,294.01,47.86,294.24,47.32z"/>
		</g>
	</g>
</g>
</svg>
