<?xml version="1.0" encoding="utf-8"?>
<!-- Generator: Adobe Illustrator 25.2.0, SVG Export Plug-In . SVG Version: 6.00 Build 0)  -->
<svg version="1.1" xmlns="http://www.w3.org/2000/svg" xmlns:xlink="http://www.w3.org/1999/xlink" x="0px" y="0px"
	 viewBox="0 0 300 300" enable-background="new 0 0 300 300" xml:space="preserve">
<g id="Background_Complete">
	<g>
		<rect x="2.6" y="224.5" fill="#EBEBEB" width="294.7" height="0.1"/>
		<rect x="248.3" y="233.9" fill="#EBEBEB" width="19.5" height="0.1"/>
		<rect x="192.8" y="235.5" fill="#EBEBEB" width="5.1" height="0.1"/>
		<rect x="236.4" y="228.5" fill="#EBEBEB" width="11.3" height="0.1"/>
		<rect x="33.6" y="229.5" fill="#EBEBEB" width="25.5" height="0.1"/>
		<rect x="64.3" y="229.5" fill="#EBEBEB" width="3.7" height="0.1"/>
		<rect x="80.1" y="231.9" fill="#EBEBEB" width="55.2" height="0.1"/>
		<path fill="#EBEBEB" d="M142.3,198.2H28.5c-1.9,0-3.4-1.5-3.4-3.4v-160c0-1.9,1.5-3.4,3.4-3.4h113.8c1.9,0,3.4,1.5,3.4,3.4v160
			C145.7,196.7,144.2,198.2,142.3,198.2z M28.5,31.6c-1.8,0-3.2,1.4-3.2,3.2v160c0,1.8,1.4,3.2,3.2,3.2h113.8c1.8,0,3.2-1.4,3.2-3.2
			v-160c0-1.8-1.4-3.2-3.2-3.2H28.5z"/>
		<path fill="#EBEBEB" d="M269.8,198.2H156c-1.9,0-3.4-1.5-3.4-3.4v-160c0-1.9,1.5-3.4,3.4-3.4h113.8c1.9,0,3.4,1.5,3.4,3.4v160
			C273.2,196.7,271.7,198.2,269.8,198.2z M156,31.6c-1.8,0-3.2,1.4-3.2,3.2v160c0,1.8,1.4,3.2,3.2,3.2h113.8c1.8,0,3.2-1.4,3.2-3.2
			v-160c0-1.8-1.4-3.2-3.2-3.2H156z"/>
	</g>
	<g>
		<path fill="#E0E0E0" d="M50.7,214.4c-0.1-1.7,0.1-3.9,2.1-4.5c3.3-1.1,5.3-3.7,5.2-6.6c-0.1-2.9,3.4-5.8,6-3
			c2.6,2.7,2.3-2.1,5.8-3.3c3.5-1.2,6.5,1.7,5.5,4.3c-1,2.6,2.5,4.2,6.6,2c4.1-2.2,8.7,1.8,7.8,5c-0.9,3.2-0.2,3.5,2.5,2.5
			c2.1-0.9,5.6,0.9,6,3.7H50.7z"/>
		<path fill="#E0E0E0" d="M216.1,214.4c-0.2-1.3-0.1-3.3,1.6-3.8c2.6-0.9,4.1-2.9,4-5.1c-0.1-2.3,2.6-4.5,4.7-2.3
			c2,2.1,1.8-1.6,4.5-2.5c2.7-0.9,5,1.3,4.3,3.3c-0.7,2,1.9,3.3,5.2,1.6c3.2-1.7,6.8,1.4,6.1,3.9c-0.7,2.5-0.1,2.7,1.9,1.9
			c1.7-0.7,4.6,0.9,4.7,3.2H216.1z"/>
		<path fill="#E0E0E0" d="M233,214.4h-60.5c-0.9-2.8,1.4-6.2,3.7-6.7c2.9-0.6,5.9-5.8,6-9.1c0.1-3.3,5.4-13.5,13.7-7.2
			s5.7,0.9,11.7-0.8c6-1.8,9.7,3.3,7.1,7.1c0,0,6-1.5,8.5,4.1c2.5,5.6,0,9.1,0,9.1S230.8,210.6,233,214.4z"/>
		<path fill="#F5F5F5" d="M123,55.5c0-1.6-1.3-2.8-2.8-2.8c-0.3,0-0.6,0-0.8,0.1c0-0.3,0.1-0.6,0.1-0.9c0-3.3-2.7-6-6-6
			c-0.4,0-0.8,0-1.1,0.1c-0.9-1.5-2.6-2.5-4.5-2.5c-2.9,0-5.2,2.3-5.3,5.2c0,0-0.1,0-0.1,0c-2.7,0-4.9,2.2-4.9,4.9
			c0,2.7,2.2,4.9,4.9,4.9h17.8l0,0C121.8,58.3,123,57,123,55.5z"/>
		<path fill="#F5F5F5" d="M228.7,72.3c0-1.6-1.3-2.8-2.8-2.8c-0.3,0-0.6,0-0.8,0.1c0-0.3,0.1-0.6,0.1-0.9c0-3.3-2.7-6-6-6
			c-0.4,0-0.8,0-1.1,0.1c-0.9-1.5-2.6-2.5-4.5-2.5c-2.9,0-5.2,2.3-5.3,5.2c0,0-0.1,0-0.1,0c-2.7,0-4.9,2.2-4.9,4.9
			c0,2.7,2.2,4.9,4.9,4.9h17.8l0,0C227.5,75.1,228.7,73.8,228.7,72.3z"/>
		<path fill="#F5F5F5" d="M164.1,64c0-1-0.8-1.8-1.8-1.8c-0.2,0-0.3,0-0.5,0.1c0-0.2,0-0.4,0-0.5c0-2.1-1.7-3.7-3.7-3.7
			c-0.2,0-0.5,0-0.7,0.1c-0.6-0.9-1.6-1.6-2.8-1.6c-1.8,0-3.3,1.4-3.3,3.2c0,0,0,0-0.1,0c-1.7,0-3,1.4-3,3c0,1.7,1.4,3,3,3h11.1l0,0
			C163.3,65.8,164.1,65,164.1,64z"/>
		<path fill="#F5F5F5" d="M256.5,60.6c0-1-0.8-1.8-1.8-1.8c-0.2,0-0.3,0-0.5,0.1c0-0.2,0-0.4,0-0.5c0-2.1-1.7-3.7-3.7-3.7
			c-0.2,0-0.5,0-0.7,0.1c-0.6-0.9-1.6-1.6-2.8-1.6c-1.8,0-3.3,1.4-3.3,3.2c0,0,0,0-0.1,0c-1.7,0-3,1.4-3,3s1.4,3,3,3h11.1l0,0
			C255.8,62.3,256.5,61.5,256.5,60.6z"/>
		<path fill="#F5F5F5" d="M64.5,71.3c0-1-0.8-1.8-1.8-1.8c-0.2,0-0.3,0-0.5,0.1c0-0.2,0-0.4,0-0.5c0-2.1-1.7-3.7-3.7-3.7
			c-0.2,0-0.5,0-0.7,0.1c-0.6-0.9-1.6-1.6-2.8-1.6c-1.8,0-3.3,1.4-3.3,3.2c0,0,0,0-0.1,0c-1.7,0-3,1.4-3,3c0,1.7,1.4,3,3,3h11.1l0,0
			C63.7,73,64.5,72.2,64.5,71.3z"/>
		<g>
			<path fill="#EBEBEB" d="M227.1,121.7c0.1-0.3,0.1-0.7,0.2-1.1c0.1-2.3,2.3-1.9,4.2-2.2c1.5-0.2-2.4-3.9,0.5-5.1
				c0.5-0.2,1.1-0.5,1.4-1c0.4-0.7,0-1.6-0.6-2c-0.6-0.4-1.5-0.5-2.2-0.6c-0.5-0.6-0.1-1.5,0.4-2.1c0.5-0.6,1-1.3,0.9-2
				c-0.3-1.1-1.8-1.1-2.9-0.9c-0.4-0.7-0.4-1.5-0.6-2.3c-0.2-0.8-0.8-1.6-1.6-1.5c-0.7,0.1-1.2,0.9-1.9,1.1
				c-0.8,0.2-1.6-0.5-2.2-1.1c-0.7-0.6-1.8-0.9-2.3-0.2c-0.3,0.4-0.1,1-0.4,1.5c-0.5,0.7-1.6,0.3-2.4-0.2c-0.7-0.5-1.9-1-2.4-0.3
				c-0.2,0.2-0.2,0.5-0.3,0.8c-0.3,1-1.4,1.5-2.2,2.1c-0.8,0.6-1.5,1.9-0.8,2.6c0.3,0.4,1,0.5,1.1,1c0.2,0.6-0.4,1.1-0.9,1.6
				c-0.8,0.7-1,2.8,0.1,3.3c0.5,0.2,1.1,0.3,1.2,0.8c0.1,0.4-0.4,0.8-0.7,1.1c-0.8,0.9-0.5,2.6,0.7,3.2c0.3,0.1,0.6,0.2,0.7,0.5
				c0.1,0.2,0,0.4-0.1,0.6c-0.1,0.4-0.1,0.8-0.1,1.1c0,0.1,0,0.3,0.1,0.4c0.1,0.1,0.2,0.1,0.3,0.1c1.5,0.1,2.3-0.5,3.2,0.9
				c0.1,0.1,0.2,0.3,0.3,0.3c0.1,0.1,0.3,0.1,0.4,0.1c1.1,0.1,1.8-0.6,2.7-0.7c1.4-0.2,1.6,0.5,2.8,1.1
				C225.8,123.6,226.7,123,227.1,121.7z"/>
			<path fill="#EBEBEB" d="M209.2,119.8c0.1-0.3,0.1-0.7,0.2-1.1c0.1-2.3,2.3-1.9,4.2-2.2c1.5-0.2-2.4-3.9,0.5-5.1
				c0.5-0.2,1.1-0.5,1.4-1c0.4-0.7,0-1.6-0.6-2c-0.6-0.4-1.5-0.5-2.2-0.6c-0.5-0.6-0.1-1.5,0.4-2.1c0.5-0.6,1-1.3,0.9-2
				c-0.3-1.1-1.8-1.1-2.9-0.9c-0.4-0.7-0.4-1.5-0.6-2.3c-0.2-0.8-0.8-1.6-1.6-1.5c-0.7,0.1-1.2,0.9-1.9,1.1
				c-0.8,0.2-1.6-0.5-2.2-1.1c-0.7-0.6-1.8-0.9-2.3-0.2c-0.3,0.4-0.1,1-0.4,1.5c-0.5,0.7-1.6,0.3-2.4-0.2s-1.9-1-2.4-0.3
				c-0.2,0.2-0.2,0.5-0.3,0.8c-0.3,1-1.4,1.5-2.2,2.1c-0.8,0.6-1.5,1.9-0.8,2.6c0.3,0.4,1,0.5,1.1,1c0.2,0.6-0.4,1.1-0.9,1.6
				c-0.8,0.7-1,2.8,0.1,3.3c0.5,0.2,1.1,0.3,1.2,0.8c0.1,0.4-0.4,0.8-0.7,1.1c-0.8,0.9-0.5,2.6,0.7,3.2c0.3,0.1,0.6,0.2,0.7,0.5
				c0.1,0.2,0,0.4-0.1,0.6c-0.1,0.4-0.1,0.8-0.1,1.1c0,0.1,0,0.3,0.1,0.4c0.1,0.1,0.2,0.1,0.3,0.1c1.5,0.1,2.3-0.5,3.2,0.9
				c0.1,0.1,0.2,0.3,0.3,0.3c0.1,0.1,0.3,0.1,0.4,0.1c1.1,0.1,1.8-0.6,2.7-0.7c1.4-0.2,1.6,0.5,2.8,1.1
				C208,121.6,208.9,121.1,209.2,119.8z"/>
			<path fill="#EBEBEB" d="M207.5,108.5c0.1-0.3,0.1-0.7,0.2-1.1c0.1-2.3,2.3-1.9,4.2-2.2c1.5-0.2-2.4-3.9,0.5-5.1
				c0.5-0.2,1.1-0.5,1.4-1c0.4-0.7,0-1.6-0.6-2c-0.6-0.4-1.5-0.5-2.2-0.6c-0.5-0.6-0.1-1.5,0.4-2.1c0.5-0.6,1-1.3,0.9-2
				c-0.3-1.1-1.8-1.1-2.9-0.9c-0.4-0.7-0.4-1.5-0.6-2.3c-0.2-0.8-0.8-1.6-1.6-1.5c-0.7,0.1-1.2,0.9-1.9,1.1
				c-0.8,0.2-1.6-0.5-2.2-1.1c-0.7-0.6-1.8-0.9-2.3-0.2c-0.3,0.4-0.1,1-0.4,1.5c-0.5,0.7-1.6,0.3-2.4-0.2c-0.7-0.5-1.9-1-2.4-0.3
				c-0.2,0.2-0.2,0.5-0.3,0.8c-0.3,1-1.4,1.5-2.2,2.1c-0.8,0.6-1.5,1.9-0.8,2.6c0.3,0.4,1,0.5,1.1,1c0.2,0.6-0.4,1.1-0.9,1.6
				c-0.8,0.7-1,2.8,0.1,3.3c0.5,0.2,1.1,0.3,1.2,0.8c0.1,0.4-0.4,0.8-0.7,1.1c-0.8,0.9-0.5,2.6,0.7,3.2c0.3,0.1,0.6,0.2,0.7,0.5
				c0.1,0.2,0,0.4-0.1,0.6c-0.1,0.4-0.1,0.8-0.1,1.1c0,0.1,0,0.3,0.1,0.4c0.1,0.1,0.2,0.1,0.3,0.1c1.5,0.1,2.3-0.5,3.2,0.9
				c0.1,0.1,0.2,0.3,0.3,0.3c0.1,0.1,0.3,0.1,0.4,0.1c1.1,0.1,1.8-0.6,2.7-0.7c1.4-0.2,1.6,0.5,2.8,1.1
				C206.2,110.3,207.2,109.7,207.5,108.5z"/>
			<path fill="#EBEBEB" d="M195.8,114.1c0.1-0.3,0.1-0.7,0.2-1.1c0.1-2.3,2.3-1.9,4.2-2.2c1.5-0.2-2.4-3.9,0.5-5.1
				c0.5-0.2,1.1-0.5,1.4-1c0.4-0.7,0-1.6-0.6-2c-0.6-0.4-1.5-0.5-2.2-0.6c-0.5-0.6-0.1-1.5,0.4-2.1c0.5-0.6,1-1.3,0.9-2
				c-0.3-1.1-1.8-1.1-2.9-0.9c-0.4-0.7-0.4-1.5-0.6-2.3c-0.2-0.8-0.8-1.6-1.6-1.5c-0.7,0.1-1.2,0.9-1.9,1.1
				c-0.8,0.2-1.6-0.5-2.2-1.1c-0.7-0.6-1.8-0.9-2.3-0.2c-0.3,0.4-0.1,1-0.4,1.5c-0.5,0.7-1.6,0.3-2.4-0.2c-0.7-0.5-1.9-1-2.4-0.3
				c-0.2,0.2-0.2,0.5-0.3,0.8c-0.3,1-1.4,1.5-2.2,2.1c-0.8,0.6-1.5,1.9-0.8,2.6c0.3,0.4,1,0.5,1.1,1c0.2,0.6-0.4,1.1-0.9,1.6
				c-0.8,0.7-1,2.8,0.1,3.3c0.5,0.2,1.1,0.3,1.2,0.8c0.1,0.4-0.4,0.8-0.7,1.1c-0.8,0.9-0.5,2.6,0.7,3.2c0.3,0.1,0.6,0.2,0.7,0.5
				c0.1,0.2,0,0.4-0.1,0.6c-0.1,0.4-0.1,0.8-0.1,1.1c0,0.1,0,0.3,0.1,0.4c0.1,0.1,0.2,0.1,0.3,0.1c1.5,0.1,2.3-0.5,3.2,0.9
				c0.1,0.1,0.2,0.3,0.3,0.3c0.1,0.1,0.3,0.1,0.4,0.1c1.1,0.1,1.8-0.6,2.7-0.7c1.4-0.2,1.6,0.5,2.8,1.1
				C194.5,115.9,195.4,115.4,195.8,114.1z"/>
			<path fill="#EBEBEB" d="M183.9,111.5c0.1-0.3,0.1-0.7,0.2-1.1c0.1-2.3,2.3-1.9,4.2-2.2c1.5-0.2-2.4-3.9,0.5-5.1
				c0.5-0.2,1.1-0.5,1.4-1c0.4-0.7,0-1.6-0.6-2c-0.6-0.4-1.5-0.5-2.2-0.6c-0.5-0.6-0.1-1.5,0.4-2.1c0.5-0.6,1-1.3,0.9-2
				c-0.3-1.1-1.8-1.1-2.9-0.9c-0.4-0.7-0.4-1.5-0.6-2.3c-0.2-0.8-0.8-1.6-1.6-1.5c-0.7,0.1-1.2,0.9-1.9,1.1
				c-0.8,0.2-1.6-0.5-2.2-1.1s-1.8-0.9-2.3-0.2c-0.3,0.4-0.1,1-0.4,1.5c-0.5,0.7-1.6,0.3-2.4-0.2c-0.7-0.5-1.9-1-2.4-0.3
				c-0.2,0.2-0.2,0.5-0.3,0.8c-0.3,1-1.4,1.5-2.2,2.1c-0.8,0.6-1.5,1.9-0.8,2.6c0.3,0.4,1,0.5,1.1,1c0.2,0.6-0.4,1.1-0.9,1.6
				c-0.8,0.7-1,2.8,0.1,3.3c0.5,0.2,1.1,0.3,1.2,0.8c0.1,0.4-0.4,0.8-0.7,1.1c-0.8,0.9-0.5,2.6,0.7,3.2c0.3,0.1,0.6,0.2,0.7,0.5
				c0.1,0.2,0,0.4-0.1,0.6c-0.1,0.4-0.1,0.8-0.1,1.1c0,0.1,0,0.3,0.1,0.4c0.1,0.1,0.2,0.1,0.3,0.1c1.5,0.1,2.3-0.5,3.2,0.9
				c0.1,0.1,0.2,0.3,0.3,0.3c0.1,0.1,0.3,0.1,0.4,0.1c1.1,0.1,1.8-0.6,2.7-0.7c1.4-0.2,1.6,0.5,2.8,1.1
				C182.6,113.3,183.5,112.8,183.9,111.5z"/>
			<path fill="#EBEBEB" d="M183.7,124.2c0.1-0.3,0.1-0.5,0.1-0.9c0.1-1.8,1.8-1.5,3.3-1.8c1.1-0.2-1.9-3.1,0.4-4
				c0.4-0.2,0.9-0.4,1.1-0.8c0.3-0.5,0-1.2-0.5-1.6c-0.5-0.4-1.1-0.4-1.8-0.4c-0.4-0.5-0.1-1.1,0.3-1.6c0.4-0.5,0.8-1,0.7-1.6
				c-0.2-0.9-1.4-0.9-2.3-0.7c-0.3-0.5-0.3-1.2-0.5-1.8c-0.2-0.6-0.6-1.2-1.2-1.2c-0.6,0.1-0.9,0.7-1.5,0.9
				c-0.7,0.2-1.2-0.4-1.7-0.9c-0.5-0.4-1.4-0.7-1.8-0.1c-0.2,0.3-0.1,0.8-0.3,1.2c-0.4,0.6-1.3,0.2-1.9-0.2
				c-0.6-0.4-1.5-0.8-1.9-0.2c-0.1,0.2-0.1,0.4-0.2,0.6c-0.3,0.8-1.1,1.2-1.8,1.7c-0.7,0.5-1.2,1.5-0.6,2.1c0.3,0.3,0.7,0.4,0.9,0.8
				c0.2,0.5-0.3,0.9-0.7,1.2c-0.6,0.5-0.8,2.2,0.1,2.6c0.4,0.2,0.9,0.2,1,0.6c0.1,0.3-0.3,0.6-0.5,0.9c-0.6,0.7-0.4,2.1,0.5,2.5
				c0.2,0.1,0.5,0.2,0.5,0.4c0.1,0.2,0,0.3,0,0.5c-0.1,0.3-0.1,0.6-0.1,0.9c0,0.1,0,0.2,0.1,0.3c0.1,0.1,0.2,0.1,0.3,0.1
				c1.2,0.1,1.8-0.4,2.6,0.7c0.1,0.1,0.1,0.2,0.3,0.3c0.1,0.1,0.2,0.1,0.3,0.1c0.8,0.1,1.4-0.5,2.2-0.6c1.1-0.1,1.3,0.4,2.2,0.9
				C182.7,125.6,183.4,125.2,183.7,124.2z"/>
			<path fill="#EBEBEB" d="M177.1,119.8c0.1-0.3,0.1-0.7,0.2-1.1c0.1-2.3,2.3-1.9,4.2-2.2c1.5-0.2-2.4-3.9,0.5-5.1
				c0.5-0.2,1.1-0.5,1.4-1c0.4-0.7,0-1.6-0.6-2c-0.6-0.4-1.5-0.5-2.2-0.6c-0.5-0.6-0.1-1.5,0.4-2.1c0.5-0.6,1-1.3,0.9-2
				c-0.3-1.1-1.8-1.1-2.9-0.9c-0.4-0.7-0.4-1.5-0.6-2.3c-0.2-0.8-0.8-1.6-1.6-1.5c-0.7,0.1-1.2,0.9-1.9,1.1
				c-0.8,0.2-1.6-0.5-2.2-1.1c-0.7-0.6-1.8-0.9-2.3-0.2c-0.3,0.4-0.1,1-0.4,1.5c-0.5,0.7-1.6,0.3-2.4-0.2c-0.7-0.5-1.9-1-2.4-0.3
				c-0.2,0.2-0.2,0.5-0.3,0.8c-0.3,1-1.4,1.5-2.2,2.1c-0.8,0.6-1.5,1.9-0.8,2.6c0.3,0.4,1,0.5,1.1,1c0.2,0.6-0.4,1.1-0.9,1.6
				c-0.8,0.7-1,2.8,0.1,3.3c0.5,0.2,1.1,0.3,1.2,0.8c0.1,0.4-0.4,0.8-0.7,1.1c-0.8,0.9-0.5,2.6,0.7,3.2c0.3,0.1,0.6,0.2,0.7,0.5
				c0.1,0.2,0,0.4-0.1,0.6c-0.1,0.4-0.1,0.8-0.1,1.1c0,0.1,0,0.3,0.1,0.4c0.1,0.1,0.2,0.1,0.3,0.1c1.5,0.1,2.3-0.5,3.2,0.9
				c0.1,0.1,0.2,0.3,0.3,0.3c0.1,0.1,0.3,0.1,0.4,0.1c1.1,0.1,1.8-0.6,2.7-0.7c1.4-0.2,1.6,0.5,2.8,1.1
				C175.8,121.6,176.7,121.1,177.1,119.8z"/>
			<path fill="#EBEBEB" d="M195.8,100.1c0.1-0.3,0.1-0.7,0.2-1.1c0.1-2.3,2.3-1.9,4.2-2.2c1.5-0.2-2.4-3.9,0.5-5.1
				c0.5-0.2,1.1-0.5,1.4-1c0.4-0.7,0-1.6-0.6-2c-0.6-0.4-1.5-0.5-2.2-0.6c-0.5-0.6-0.1-1.5,0.4-2.1c0.5-0.6,1-1.3,0.9-2
				c-0.3-1.1-1.8-1.1-2.9-0.9c-0.4-0.7-0.4-1.5-0.6-2.3c-0.2-0.8-0.8-1.6-1.6-1.5c-0.7,0.1-1.2,0.9-1.9,1.1
				c-0.8,0.2-1.6-0.5-2.2-1.1c-0.7-0.6-1.8-0.9-2.3-0.2c-0.3,0.4-0.1,1-0.4,1.5c-0.5,0.7-1.6,0.3-2.4-0.2c-0.7-0.5-1.9-1-2.4-0.3
				c-0.2,0.2-0.2,0.5-0.3,0.8c-0.3,1-1.4,1.5-2.2,2.1c-0.8,0.6-1.5,1.9-0.8,2.6c0.3,0.4,1,0.5,1.1,1c0.2,0.6-0.4,1.1-0.9,1.6
				c-0.8,0.7-1,2.8,0.1,3.3c0.5,0.2,1.1,0.3,1.2,0.8c0.1,0.4-0.4,0.8-0.7,1.1c-0.8,0.9-0.5,2.6,0.7,3.2c0.3,0.1,0.6,0.2,0.7,0.5
				c0.1,0.2,0,0.4-0.1,0.6c-0.1,0.4-0.1,0.8-0.1,1.1c0,0.1,0,0.3,0.1,0.4c0.1,0.1,0.2,0.1,0.3,0.1c1.5,0.1,2.3-0.5,3.2,0.9
				c0.1,0.1,0.2,0.3,0.3,0.3c0.1,0.1,0.3,0.1,0.4,0.1c1.1,0.1,1.8-0.6,2.7-0.7c1.4-0.2,1.6,0.5,2.8,1.1
				C194.5,102,195.4,101.4,195.8,100.1z"/>
			<path fill="#EBEBEB" d="M211,100.9c0.1-0.3,0.1-0.7,0.2-1.1c0.1-2.3,2.3-1.9,4.2-2.2c1.5-0.2-2.4-3.9,0.5-5.1
				c0.5-0.2,1.1-0.5,1.4-1c0.4-0.7,0-1.6-0.6-2c-0.6-0.4-1.5-0.5-2.2-0.6c-0.5-0.6-0.1-1.5,0.4-2.1c0.5-0.6,1-1.3,0.9-2
				c-0.3-1.1-1.8-1.1-2.9-0.9c-0.4-0.7-0.4-1.5-0.6-2.3c-0.2-0.8-0.8-1.6-1.6-1.5c-0.7,0.1-1.2,0.9-1.9,1.1
				c-0.8,0.2-1.6-0.5-2.2-1.1c-0.7-0.6-1.8-0.9-2.3-0.2c-0.3,0.4-0.1,1-0.4,1.5c-0.5,0.7-1.6,0.3-2.4-0.2c-0.7-0.5-1.9-1-2.4-0.3
				c-0.2,0.2-0.2,0.5-0.3,0.8c-0.3,1-1.4,1.5-2.2,2.1c-0.8,0.6-1.5,1.9-0.8,2.6c0.3,0.4,1,0.5,1.1,1c0.2,0.6-0.4,1.1-0.9,1.6
				c-0.8,0.7-1,2.8,0.1,3.3c0.5,0.2,1.1,0.3,1.2,0.8c0.1,0.4-0.4,0.8-0.7,1.1c-0.8,0.9-0.5,2.6,0.7,3.2c0.3,0.1,0.6,0.2,0.7,0.5
				c0.1,0.2,0,0.4-0.1,0.6c-0.1,0.4-0.1,0.8-0.1,1.1c0,0.1,0,0.3,0.1,0.4c0.1,0.1,0.2,0.1,0.3,0.1c1.5,0.1,2.3-0.5,3.2,0.9
				c0.1,0.1,0.2,0.3,0.3,0.3c0.1,0.1,0.3,0.1,0.4,0.1c1.1,0.1,1.8-0.6,2.7-0.7c1.4-0.2,1.6,0.5,2.8,1.1
				C209.8,102.7,210.7,102.2,211,100.9z"/>
			<path fill="#EBEBEB" d="M220.3,107.2c0.1-0.3,0.1-0.7,0.2-1.1c0.1-2.3,2.3-1.9,4.2-2.2c1.5-0.2-2.4-3.9,0.5-5.1
				c0.5-0.2,1.1-0.5,1.4-1c0.4-0.7,0-1.6-0.6-2c-0.6-0.4-1.5-0.5-2.2-0.6c-0.5-0.6-0.1-1.5,0.4-2.1c0.5-0.6,1-1.3,0.9-2
				c-0.3-1.1-1.8-1.1-2.9-0.9c-0.4-0.7-0.4-1.5-0.6-2.3c-0.2-0.8-0.8-1.6-1.6-1.5c-0.7,0.1-1.2,0.9-1.9,1.1
				c-0.8,0.2-1.6-0.5-2.2-1.1c-0.7-0.6-1.8-0.9-2.3-0.2c-0.3,0.4-0.1,1-0.4,1.5c-0.5,0.7-1.6,0.3-2.4-0.2c-0.7-0.5-1.9-1-2.4-0.3
				c-0.2,0.2-0.2,0.5-0.3,0.8c-0.3,1-1.4,1.5-2.2,2.1c-0.8,0.6-1.5,1.9-0.8,2.6c0.3,0.4,1,0.5,1.1,1c0.2,0.6-0.4,1.1-0.9,1.6
				c-0.8,0.7-1,2.8,0.1,3.3c0.5,0.2,1.1,0.3,1.2,0.8c0.1,0.4-0.4,0.8-0.7,1.1c-0.8,0.9-0.5,2.6,0.7,3.2c0.3,0.1,0.6,0.2,0.7,0.5
				c0.1,0.2,0,0.4-0.1,0.6c-0.1,0.4-0.1,0.8-0.1,1.1c0,0.1,0,0.3,0.1,0.4c0.1,0.1,0.2,0.1,0.3,0.1c1.5,0.1,2.3-0.5,3.2,0.9
				c0.1,0.1,0.2,0.3,0.3,0.3c0.1,0.1,0.3,0.1,0.4,0.1c1.1,0.1,1.8-0.6,2.7-0.7c1.4-0.2,1.6,0.5,2.8,1.1
				C219,109,219.9,108.4,220.3,107.2z"/>
			<path fill="#E6E6E6" d="M217.5,115.1c0,0-3.9,5.5-5.2,7.2c-1.3,1.7-8,12.6-8.9,19.7c-0.1,0.8-0.2,1.4-0.3,2
				c2.9,19,2.4,53.7,2.3,59.6h-9.1c-0.1-6.7-0.9-68-1.1-69.8c-0.3-2-4.1-9.5-10-12.6c-5.9-3.1-11-13.3-11-13.3h1.9
				c0,0,3.5,6.3,8.4,9.8c0.7,0.5,1.5,0.9,2.2,1.3c-0.2-5.7,2-11.1,2-11.1l1,0.9c-1.4,5.6-1.2,9.2-0.8,11.2c1.7,0.8,3.4,1.8,5.1,3.4
				c5.1-6.7,8-21.9,8-21.9l1.3,0.7c0,0-0.4,4.1-1.7,9.4c-1,3.9-3.8,11.4-5.1,14.8c1.3,1.8,2.6,4.2,3.9,7.3c0.1-0.2,0.3-0.4,0.5-0.6
				c3.3-3,9.6-17.3,9.6-17.3c1.5-3.3-0.8-12-0.8-12h1.8l0.8,7.6l4.4-4.8l0.8,0.7l-4.7,6l-2.4,7.6l6.3-7L217.5,115.1z"/>
		</g>
		<g>
			<path fill="#EBEBEB" d="M51.9,142.2c-0.1-0.2-0.1-0.5-0.1-0.8c-0.1-1.8-1.8-1.5-3.2-1.7c-1.1-0.2,1.8-3-0.4-3.9
				c-0.4-0.2-0.9-0.4-1.1-0.8c-0.3-0.5,0-1.2,0.5-1.6c0.5-0.3,1.1-0.4,1.7-0.4c0.4-0.4,0.1-1.1-0.3-1.6c-0.4-0.5-0.8-1-0.7-1.5
				c0.2-0.8,1.4-0.9,2.2-0.7c0.3-0.5,0.3-1.2,0.5-1.7c0.2-0.6,0.6-1.2,1.2-1.1c0.6,0.1,0.9,0.7,1.5,0.8c0.6,0.2,1.2-0.4,1.7-0.8
				c0.5-0.4,1.4-0.7,1.7-0.1c0.2,0.3,0.1,0.8,0.3,1.1c0.4,0.6,1.3,0.2,1.8-0.2c0.6-0.4,1.4-0.8,1.8-0.2c0.1,0.2,0.1,0.4,0.2,0.6
				c0.3,0.8,1.1,1.1,1.7,1.6c0.6,0.5,1.1,1.4,0.6,2c-0.3,0.3-0.7,0.4-0.9,0.8c-0.2,0.5,0.3,0.9,0.7,1.2c0.6,0.5,0.7,2.1-0.1,2.5
				c-0.3,0.2-0.9,0.2-0.9,0.6c-0.1,0.3,0.3,0.6,0.5,0.9c0.6,0.7,0.4,2-0.5,2.4c-0.2,0.1-0.4,0.2-0.5,0.4c-0.1,0.1,0,0.3,0,0.5
				c0.1,0.3,0.1,0.6,0.1,0.9c0,0.1,0,0.2-0.1,0.3c-0.1,0.1-0.2,0.1-0.3,0.1c-1.2,0.1-1.8-0.4-2.5,0.7c-0.1,0.1-0.1,0.2-0.2,0.3
				c-0.1,0.1-0.2,0.1-0.3,0.1c-0.8,0.1-1.4-0.4-2.1-0.5c-1-0.1-1.3,0.4-2.2,0.8C52.9,143.6,52.2,143.2,51.9,142.2z"/>
			<path fill="#EBEBEB" d="M65.6,140.7c-0.1-0.2-0.1-0.5-0.1-0.8c-0.1-1.8-1.8-1.5-3.2-1.7c-1.1-0.2,1.8-3-0.4-3.9
				c-0.4-0.2-0.9-0.4-1.1-0.8c-0.3-0.5,0-1.2,0.5-1.6c0.5-0.3,1.1-0.4,1.7-0.4c0.4-0.4,0.1-1.1-0.3-1.6c-0.4-0.5-0.8-1-0.7-1.5
				c0.2-0.8,1.4-0.9,2.2-0.7c0.3-0.5,0.3-1.2,0.5-1.7c0.2-0.6,0.6-1.2,1.2-1.1c0.6,0.1,0.9,0.7,1.5,0.8c0.6,0.2,1.2-0.4,1.7-0.8
				c0.5-0.4,1.4-0.7,1.7-0.1c0.2,0.3,0.1,0.8,0.3,1.1c0.4,0.6,1.3,0.2,1.8-0.2c0.6-0.4,1.4-0.8,1.8-0.2c0.1,0.2,0.1,0.4,0.2,0.6
				c0.3,0.8,1.1,1.1,1.7,1.6c0.6,0.5,1.1,1.4,0.6,2c-0.3,0.3-0.7,0.4-0.9,0.8c-0.2,0.5,0.3,0.9,0.7,1.2c0.6,0.5,0.7,2.1-0.1,2.5
				c-0.3,0.2-0.9,0.2-0.9,0.6c-0.1,0.3,0.3,0.6,0.5,0.9c0.6,0.7,0.4,2-0.5,2.4c-0.2,0.1-0.4,0.2-0.5,0.4c-0.1,0.1,0,0.3,0,0.5
				c0.1,0.3,0.1,0.6,0.1,0.9c0,0.1,0,0.2-0.1,0.3c-0.1,0.1-0.2,0.1-0.3,0.1c-1.2,0.1-1.8-0.4-2.5,0.7c-0.1,0.1-0.1,0.2-0.2,0.3
				c-0.1,0.1-0.2,0.1-0.3,0.1c-0.8,0.1-1.4-0.4-2.1-0.5c-1-0.1-1.3,0.4-2.2,0.8C66.6,142.1,65.9,141.7,65.6,140.7z"/>
			<path fill="#EBEBEB" d="M67,132c-0.1-0.2-0.1-0.5-0.1-0.8c-0.1-1.8-1.8-1.5-3.2-1.7c-1.1-0.2,1.8-3-0.4-3.9
				c-0.4-0.2-0.9-0.4-1.1-0.8c-0.3-0.5,0-1.2,0.5-1.6c0.5-0.3,1.1-0.4,1.7-0.4c0.4-0.4,0.1-1.1-0.3-1.6c-0.4-0.5-0.8-1-0.7-1.5
				c0.2-0.8,1.4-0.9,2.2-0.7c0.3-0.5,0.3-1.2,0.5-1.7c0.2-0.6,0.6-1.2,1.2-1.1c0.6,0.1,0.9,0.7,1.5,0.8c0.6,0.2,1.2-0.4,1.7-0.8
				c0.5-0.4,1.4-0.7,1.7-0.1c0.2,0.3,0.1,0.8,0.3,1.1c0.4,0.6,1.3,0.2,1.8-0.2c0.6-0.4,1.4-0.8,1.8-0.2c0.1,0.2,0.1,0.4,0.2,0.6
				c0.3,0.8,1.1,1.1,1.7,1.6c0.6,0.5,1.1,1.4,0.6,2c-0.3,0.3-0.7,0.4-0.9,0.8c-0.2,0.5,0.3,0.9,0.7,1.2c0.6,0.5,0.7,2.1-0.1,2.5
				c-0.3,0.2-0.9,0.2-0.9,0.6c-0.1,0.3,0.3,0.6,0.5,0.9c0.6,0.7,0.4,2-0.5,2.4c-0.2,0.1-0.4,0.2-0.5,0.4c-0.1,0.1,0,0.3,0,0.5
				c0.1,0.3,0.1,0.6,0.1,0.9c0,0.1,0,0.2-0.1,0.3c-0.1,0.1-0.2,0.1-0.3,0.1c-1.2,0.1-1.8-0.4-2.5,0.7c-0.1,0.1-0.1,0.2-0.2,0.3
				c-0.1,0.1-0.2,0.1-0.3,0.1c-0.8,0.1-1.4-0.4-2.1-0.5c-1-0.1-1.3,0.4-2.2,0.8C67.9,133.4,67.2,133,67,132z"/>
			<path fill="#EBEBEB" d="M76,136.3c-0.1-0.2-0.1-0.5-0.1-0.8c-0.1-1.8-1.8-1.5-3.2-1.7c-1.1-0.2,1.8-3-0.4-3.9
				c-0.4-0.2-0.9-0.4-1.1-0.8c-0.3-0.5,0-1.2,0.5-1.6c0.5-0.3,1.1-0.4,1.7-0.4c0.4-0.4,0.1-1.1-0.3-1.6c-0.4-0.5-0.8-1-0.7-1.5
				c0.2-0.8,1.4-0.9,2.2-0.7c0.3-0.5,0.3-1.2,0.5-1.7c0.2-0.6,0.6-1.2,1.2-1.1c0.6,0.1,0.9,0.7,1.5,0.8c0.6,0.2,1.2-0.4,1.7-0.8
				c0.5-0.4,1.4-0.7,1.7-0.1c0.2,0.3,0.1,0.8,0.3,1.1c0.4,0.6,1.3,0.2,1.8-0.2c0.6-0.4,1.4-0.8,1.8-0.2c0.1,0.2,0.1,0.4,0.2,0.6
				c0.3,0.8,1.1,1.1,1.7,1.6c0.6,0.5,1.1,1.4,0.6,2c-0.3,0.3-0.7,0.4-0.9,0.8c-0.2,0.5,0.3,0.9,0.7,1.2c0.6,0.5,0.7,2.1-0.1,2.5
				c-0.3,0.2-0.9,0.2-0.9,0.6c-0.1,0.3,0.3,0.6,0.5,0.9c0.6,0.7,0.4,2-0.5,2.4c-0.2,0.1-0.4,0.2-0.5,0.4c-0.1,0.1,0,0.3,0,0.5
				c0.1,0.3,0.1,0.6,0.1,0.9c0,0.1,0,0.2-0.1,0.3c-0.1,0.1-0.2,0.1-0.3,0.1c-1.2,0.1-1.8-0.4-2.5,0.7c-0.1,0.1-0.1,0.2-0.2,0.3
				c-0.1,0.1-0.2,0.1-0.3,0.1c-0.8,0.1-1.4-0.4-2.1-0.5c-1-0.1-1.3,0.4-2.2,0.8C76.9,137.7,76.2,137.3,76,136.3z"/>
			<path fill="#EBEBEB" d="M85.1,134.3c-0.1-0.2-0.1-0.5-0.1-0.8c-0.1-1.8-1.8-1.5-3.2-1.7c-1.1-0.2,1.8-3-0.4-3.9
				c-0.4-0.2-0.9-0.4-1.1-0.8c-0.3-0.5,0-1.2,0.5-1.6c0.5-0.3,1.1-0.4,1.7-0.4c0.4-0.4,0.1-1.1-0.3-1.6c-0.4-0.5-0.8-1-0.7-1.5
				c0.2-0.8,1.4-0.9,2.2-0.7c0.3-0.5,0.3-1.2,0.5-1.7c0.2-0.6,0.6-1.2,1.2-1.1c0.6,0.1,0.9,0.7,1.5,0.8c0.6,0.2,1.2-0.4,1.7-0.8
				c0.5-0.4,1.4-0.7,1.7-0.1c0.2,0.3,0.1,0.8,0.3,1.1c0.4,0.6,1.3,0.2,1.8-0.2c0.6-0.4,1.4-0.8,1.8-0.2c0.1,0.2,0.1,0.4,0.2,0.6
				c0.3,0.8,1.1,1.1,1.7,1.6c0.6,0.5,1.1,1.4,0.6,2c-0.3,0.3-0.7,0.4-0.9,0.8c-0.2,0.5,0.3,0.9,0.7,1.2c0.6,0.5,0.7,2.1-0.1,2.5
				c-0.3,0.2-0.9,0.2-0.9,0.6c-0.1,0.3,0.3,0.6,0.5,0.9c0.6,0.7,0.4,2-0.5,2.4c-0.2,0.1-0.4,0.2-0.5,0.4c-0.1,0.1,0,0.3,0,0.5
				c0.1,0.3,0.1,0.6,0.1,0.9c0,0.1,0,0.2-0.1,0.3c-0.1,0.1-0.2,0.1-0.3,0.1c-1.2,0.1-1.8-0.4-2.5,0.7c-0.1,0.1-0.1,0.2-0.2,0.3
				c-0.1,0.1-0.2,0.1-0.3,0.1c-0.8,0.1-1.4-0.4-2.1-0.5c-1-0.1-1.3,0.4-2.2,0.8C86.1,135.7,85.4,135.3,85.1,134.3z"/>
			<path fill="#EBEBEB" d="M85.2,144.1c-0.1-0.2-0.1-0.4-0.1-0.7c-0.1-1.4-1.4-1.2-2.5-1.4c-0.9-0.1,1.5-2.4-0.3-3.1
				c-0.3-0.1-0.7-0.3-0.9-0.6c-0.2-0.4,0-1,0.4-1.2c0.4-0.3,0.9-0.3,1.3-0.3c0.3-0.4,0.1-0.9-0.2-1.2c-0.3-0.4-0.6-0.8-0.5-1.2
				c0.2-0.7,1.1-0.7,1.8-0.6c0.2-0.4,0.2-0.9,0.4-1.4c0.1-0.5,0.5-0.9,1-0.9c0.4,0.1,0.7,0.6,1.2,0.7c0.5,0.1,0.9-0.3,1.3-0.7
				c0.4-0.3,1.1-0.5,1.4-0.1c0.2,0.3,0.1,0.6,0.2,0.9c0.3,0.5,1,0.2,1.4-0.1c0.4-0.3,1.1-0.6,1.4-0.2c0.1,0.1,0.1,0.3,0.2,0.5
				c0.2,0.6,0.8,0.9,1.3,1.3c0.5,0.4,0.9,1.1,0.5,1.6c-0.2,0.2-0.6,0.3-0.7,0.6c-0.1,0.4,0.2,0.7,0.5,0.9c0.5,0.4,0.6,1.7-0.1,2
				c-0.3,0.1-0.7,0.2-0.7,0.5c-0.1,0.3,0.2,0.5,0.4,0.7c0.5,0.6,0.3,1.6-0.4,1.9c-0.2,0.1-0.3,0.1-0.4,0.3c0,0.1,0,0.2,0,0.4
				c0.1,0.2,0.1,0.5,0.1,0.7c0,0.1,0,0.2-0.1,0.2c-0.1,0-0.1,0.1-0.2,0.1c-0.9,0-1.4-0.3-2,0.5c-0.1,0.1-0.1,0.2-0.2,0.2
				c-0.1,0-0.2,0.1-0.3,0.1c-0.6,0.1-1.1-0.3-1.7-0.4c-0.8-0.1-1,0.3-1.7,0.7C86,145.2,85.4,144.8,85.2,144.1z"/>
			<path fill="#EBEBEB" d="M90.3,140.7c-0.1-0.2-0.1-0.5-0.1-0.8c-0.1-1.8-1.8-1.5-3.2-1.7c-1.1-0.2,1.8-3-0.4-3.9
				c-0.4-0.2-0.9-0.4-1.1-0.8c-0.3-0.5,0-1.2,0.5-1.6c0.5-0.3,1.1-0.4,1.7-0.4c0.4-0.4,0.1-1.1-0.3-1.6c-0.4-0.5-0.8-1-0.7-1.5
				c0.2-0.8,1.4-0.9,2.2-0.7c0.3-0.5,0.3-1.2,0.5-1.7c0.2-0.6,0.6-1.2,1.2-1.1c0.6,0.1,0.9,0.7,1.5,0.8c0.6,0.2,1.2-0.4,1.7-0.8
				c0.5-0.4,1.4-0.7,1.7-0.1c0.2,0.3,0.1,0.8,0.3,1.1c0.4,0.6,1.3,0.2,1.8-0.2c0.6-0.4,1.4-0.8,1.8-0.2c0.1,0.2,0.1,0.4,0.2,0.6
				c0.3,0.8,1.1,1.1,1.7,1.6c0.6,0.5,1.1,1.4,0.6,2c-0.3,0.3-0.7,0.4-0.9,0.8c-0.2,0.5,0.3,0.9,0.7,1.2c0.6,0.5,0.7,2.1-0.1,2.5
				c-0.3,0.2-0.9,0.2-0.9,0.6c-0.1,0.3,0.3,0.6,0.5,0.9c0.6,0.7,0.4,2-0.5,2.4c-0.2,0.1-0.4,0.2-0.5,0.4c-0.1,0.1,0,0.3,0,0.5
				c0.1,0.3,0.1,0.6,0.1,0.9c0,0.1,0,0.2-0.1,0.3c-0.1,0.1-0.2,0.1-0.3,0.1c-1.2,0.1-1.8-0.4-2.5,0.7c-0.1,0.1-0.1,0.2-0.2,0.3
				c-0.1,0.1-0.2,0.1-0.3,0.1c-0.8,0.1-1.4-0.4-2.1-0.5c-1-0.1-1.3,0.4-2.2,0.8C91.3,142.1,90.6,141.7,90.3,140.7z"/>
			<path fill="#EBEBEB" d="M76,125.6c-0.1-0.2-0.1-0.5-0.1-0.8c-0.1-1.8-1.8-1.5-3.2-1.7c-1.1-0.2,1.8-3-0.4-3.9
				c-0.4-0.2-0.9-0.4-1.1-0.8c-0.3-0.5,0-1.2,0.5-1.6c0.5-0.3,1.1-0.4,1.7-0.4c0.4-0.4,0.1-1.1-0.3-1.6c-0.4-0.5-0.8-1-0.7-1.5
				c0.2-0.8,1.4-0.9,2.2-0.7c0.3-0.5,0.3-1.2,0.5-1.7c0.2-0.6,0.6-1.2,1.2-1.1c0.6,0.1,0.9,0.7,1.5,0.8c0.6,0.2,1.2-0.4,1.7-0.8
				c0.5-0.4,1.4-0.7,1.7-0.1c0.2,0.3,0.1,0.8,0.3,1.1c0.4,0.6,1.3,0.2,1.8-0.2c0.6-0.4,1.4-0.8,1.8-0.2c0.1,0.2,0.1,0.4,0.2,0.6
				c0.3,0.8,1.1,1.1,1.7,1.6s1.1,1.4,0.6,2c-0.3,0.3-0.7,0.4-0.9,0.8c-0.2,0.5,0.3,0.9,0.7,1.2c0.6,0.5,0.7,2.1-0.1,2.5
				c-0.3,0.2-0.9,0.2-0.9,0.6c-0.1,0.3,0.3,0.6,0.5,0.9c0.6,0.7,0.4,2-0.5,2.4c-0.2,0.1-0.4,0.2-0.5,0.4c-0.1,0.1,0,0.3,0,0.5
				c0.1,0.3,0.1,0.6,0.1,0.9c0,0.1,0,0.2-0.1,0.3c-0.1,0.1-0.2,0.1-0.3,0.1c-1.2,0.1-1.8-0.4-2.5,0.7c-0.1,0.1-0.1,0.2-0.2,0.3
				c-0.1,0.1-0.2,0.1-0.3,0.1c-0.8,0.1-1.4-0.4-2.1-0.5c-1-0.1-1.3,0.4-2.2,0.8C76.9,127,76.2,126.6,76,125.6z"/>
			<path fill="#EBEBEB" d="M64.3,126.2c-0.1-0.2-0.1-0.5-0.1-0.8c-0.1-1.8-1.8-1.5-3.2-1.7c-1.1-0.2,1.8-3-0.4-3.9
				c-0.4-0.2-0.9-0.4-1.1-0.8c-0.3-0.5,0-1.2,0.5-1.6c0.5-0.3,1.1-0.4,1.7-0.4c0.4-0.4,0.1-1.1-0.3-1.6c-0.4-0.5-0.8-1-0.7-1.5
				c0.2-0.8,1.4-0.9,2.2-0.7c0.3-0.5,0.3-1.2,0.5-1.7c0.2-0.6,0.6-1.2,1.2-1.1c0.6,0.1,0.9,0.7,1.5,0.8c0.6,0.2,1.2-0.4,1.7-0.8
				c0.5-0.4,1.4-0.7,1.7-0.1c0.2,0.3,0.1,0.8,0.3,1.1c0.4,0.6,1.3,0.2,1.8-0.2c0.6-0.4,1.4-0.8,1.8-0.2c0.1,0.2,0.1,0.4,0.2,0.6
				c0.3,0.8,1.1,1.1,1.7,1.6c0.6,0.5,1.1,1.4,0.6,2c-0.3,0.3-0.7,0.4-0.9,0.8c-0.2,0.5,0.3,0.9,0.7,1.2c0.6,0.5,0.7,2.1-0.1,2.5
				c-0.3,0.2-0.9,0.2-0.9,0.6c-0.1,0.3,0.3,0.6,0.5,0.9c0.6,0.7,0.4,2-0.5,2.4c-0.2,0.1-0.4,0.2-0.5,0.4c-0.1,0.1,0,0.3,0,0.5
				c0.1,0.3,0.1,0.6,0.1,0.9c0,0.1,0,0.2-0.1,0.3c-0.1,0.1-0.2,0.1-0.3,0.1c-1.2,0.1-1.8-0.4-2.5,0.7c-0.1,0.1-0.1,0.2-0.2,0.3
				c-0.1,0.1-0.2,0.1-0.3,0.1c-0.8,0.1-1.4-0.4-2.1-0.5c-1-0.1-1.3,0.4-2.2,0.8C65.2,127.6,64.5,127.2,64.3,126.2z"/>
			<path fill="#EBEBEB" d="M57.2,131c-0.1-0.2-0.1-0.5-0.1-0.8c-0.1-1.8-1.8-1.5-3.2-1.7c-1.1-0.2,1.8-3-0.4-3.9
				c-0.4-0.2-0.9-0.4-1.1-0.8c-0.3-0.5,0-1.2,0.5-1.6c0.5-0.3,1.1-0.4,1.7-0.4c0.4-0.4,0.1-1.1-0.3-1.6c-0.4-0.5-0.8-1-0.7-1.5
				c0.2-0.8,1.4-0.9,2.2-0.7c0.3-0.5,0.3-1.2,0.5-1.7c0.2-0.6,0.6-1.2,1.2-1.1c0.6,0.1,0.9,0.7,1.5,0.8c0.6,0.2,1.2-0.4,1.7-0.8
				c0.5-0.4,1.4-0.7,1.7-0.1c0.2,0.3,0.1,0.8,0.3,1.1c0.4,0.6,1.3,0.2,1.8-0.2c0.6-0.4,1.4-0.8,1.8-0.2c0.1,0.2,0.1,0.4,0.2,0.6
				c0.3,0.8,1.1,1.1,1.7,1.6c0.6,0.5,1.1,1.4,0.6,2c-0.3,0.3-0.7,0.4-0.9,0.8c-0.2,0.5,0.3,0.9,0.7,1.2c0.6,0.5,0.7,2.1-0.1,2.5
				c-0.3,0.2-0.9,0.2-0.9,0.6c-0.1,0.3,0.3,0.6,0.5,0.9c0.6,0.7,0.4,2-0.5,2.4c-0.2,0.1-0.4,0.2-0.5,0.4c-0.1,0.1,0,0.3,0,0.5
				c0.1,0.3,0.1,0.6,0.1,0.9c0,0.1,0,0.2-0.1,0.3c-0.1,0.1-0.2,0.1-0.3,0.1c-1.2,0.1-1.8-0.4-2.5,0.7c-0.1,0.1-0.1,0.2-0.2,0.3
				c-0.1,0.1-0.2,0.1-0.3,0.1c-0.8,0.1-1.4-0.4-2.1-0.5c-1-0.1-1.3,0.4-2.2,0.8C58.1,132.4,57.4,132,57.2,131z"/>
			<path fill="#E6E6E6" d="M59.3,137.1c0,0,3,4.2,4,5.5c1,1.3,6.2,9.6,6.9,15.1c0.1,0.6,0.1,1.1,0.2,1.5
				c-2.2,14.6-1.9,41.2-1.8,45.8h7c0.1-5.1,0.7-52.2,0.9-53.6c0.2-1.5,3.2-7.3,7.7-9.7c4.5-2.4,8.4-10.2,8.4-10.2h-1.4
				c0,0-2.7,4.8-6.5,7.5c-0.6,0.4-1.1,0.7-1.7,1c0.1-4.3-1.5-8.5-1.5-8.5l-0.8,0.7c1,4.3,0.9,7,0.6,8.6c-1.3,0.6-2.6,1.4-3.9,2.6
				c-3.9-5.1-6.1-16.8-6.1-16.8l-1,0.6c0,0,0.3,3.2,1.3,7.2c0.7,3,2.9,8.7,3.9,11.3c-1,1.4-2,3.2-3,5.6c-0.1-0.2-0.2-0.3-0.4-0.5
				c-2.6-2.3-7.4-13.3-7.4-13.3c-1.2-2.5,0.6-9.2,0.6-9.2h-1.3l-0.6,5.8l-3.4-3.7l-0.6,0.5l3.6,4.6l1.8,5.8l-4.8-5.3L59.3,137.1z"/>
		</g>
		<path fill="#E0E0E0" d="M44.9,213.3h210.2c4.4,0,7.9,3.5,7.9,7.9v3.8H37v-3.8C37,216.8,40.5,213.3,44.9,213.3z"/>
	</g>
</g>
<g id="Background_Simple" display="none">
	<g display="inline">
		<path fill="#407BFF" d="M198.7,108.3c-69.1-19.6-95-169.4-196-88.8C-69,76.8-23.5,218.5,67,202.9c54.8-9.4,46.3-10.5,93,16.8
			c47.4,27.7,99.4,41.9,149.2-5.9c25.8-24.7,35.4-85.5,9.8-117.3C287.1,56.8,240.9,120.2,198.7,108.3z"/>
		<path opacity="0.9" fill="#FFFFFF" d="M198.7,108.3c-69.1-19.6-95-169.4-196-88.8C-69,76.8-23.5,218.5,67,202.9
			c54.8-9.4,46.3-10.5,93,16.8c47.4,27.7,99.4,41.9,149.2-5.9c25.8-24.7,35.4-85.5,9.8-117.3C287.1,56.8,240.9,120.2,198.7,108.3z"
			/>
	</g>
</g>
<g id="Shadow_1_">
	<ellipse id="_x3C_Path_x3E__359_" fill="#F5F5F5" cx="150" cy="244.4" rx="114.3" ry="6.7"/>
</g>
<g id="Plant">
</g>
<g id="Lamp">
	<g>
		<polygon fill="#263238" points="255.5,89.9 253.4,109.2 243.3,109.2 241.3,89.9 		"/>
		<polygon opacity="0.3" fill="#FFFFFF" points="255.5,89.9 253.4,109.2 243.3,109.2 241.3,89.9 		"/>
		<rect x="246.5" y="105.1" fill="#263238" width="3.8" height="139.6"/>
		<rect x="246.5" y="105.1" opacity="0.3" fill="#FFFFFF" width="3.8" height="139.6"/>
		<polygon display="none" fill="#407BFF" points="252.4,108 244.4,108 242.6,91 254.1,91 		"/>
		<polygon opacity="0.4" fill="#D86B8D" enable-background="new    " points="252.4,108 244.4,108 242.6,91 254.1,91 		"/>
		<polygon fill="#263238" points="247.3,108.3 246.8,108.3 246.2,90.4 246.8,90.4 		"/>
		<polygon opacity="0.3" fill="#FFFFFF" points="247.3,108.3 246.8,108.3 246.2,90.4 246.8,90.4 		"/>
		<polygon opacity="0.2" fill="#AB766C" points="255.5,89.9 253.4,109.2 247.1,109.2 246.3,89.9 		"/>
		<path fill="#263238" d="M248.4,83.6c0,0-6,5.9-10.6,5.9l1.4,0.9h9.1h9.1l1.4-0.9C254.4,89.5,248.4,83.6,248.4,83.6z"/>
		<path opacity="0.4" fill="#FFFFFF" d="M259,89.5l-1.4,0.9h-18.3l-1.4-0.9c4.6,0,10.6-5.9,10.6-5.9S254.4,89.5,259,89.5z"/>
		<path opacity="0.2" fill="#FFFFFF" d="M259,89.5l-1.4,0.9h-11.9c-0.4-0.6-0.6-1-0.6-1c3.2-1.5,3.3-5.8,3.3-5.8
			S254.4,89.5,259,89.5z"/>
		<path fill="#263238" d="M250.6,242.1h-4.4c-1.4,0-2.5,1.1-2.5,2.5v0.1h9.4v-0.1C253.1,243.2,252,242.1,250.6,242.1z"/>
		<path opacity="0.5" fill="#FFFFFF" d="M250.6,242.1h-4.4c-1.4,0-2.5,1.1-2.5,2.5v0.1h9.4v-0.1C253.1,243.2,252,242.1,250.6,242.1z
			"/>
	</g>
</g>
<g id="Interface">
	<g>
		<path fill="#505188" d="M140.9,185.4H70.4c-4.3,0-7.8-3.5-7.8-7.8V76.2c0-4.3,3.5-7.8,7.8-7.8h70.5c4.3,0,7.8,3.5,7.8,7.8v101.4
			C148.7,181.9,145.2,185.4,140.9,185.4z"/>
		<path opacity="0.6" fill="#FFFFFF" enable-background="new    " d="M140.9,185.4H70.4c-4.3,0-7.8-3.5-7.8-7.8V76.2
			c0-4.3,3.5-7.8,7.8-7.8h70.5c4.3,0,7.8,3.5,7.8,7.8v101.4C148.7,181.9,145.2,185.4,140.9,185.4z"/>
		<g>
			<path fill="#9B5B95" d="M117.2,99.7c0,3.6-1.6,6.8-4.2,8.9c-2,1.6-4.6,2.6-7.4,2.6c-2.8,0-5.3-1-7.3-2.6
				c-2.6-2.1-4.2-5.3-4.2-8.9c0-6.4,5.2-11.6,11.6-11.6C112,88.1,117.2,93.3,117.2,99.7z"/>
			<path opacity="0.7" fill="#FFFFFF" d="M117.2,99.7c0,3.6-1.6,6.8-4.2,8.9c-2,1.6-4.6,2.6-7.4,2.6c-2.8,0-5.3-1-7.3-2.6
				c-2.6-2.1-4.2-5.3-4.2-8.9c0-6.4,5.2-11.6,11.6-11.6C112,88.1,117.2,93.3,117.2,99.7z"/>
			<g>
				<circle fill="#FFFFFF" cx="105.6" cy="98.6" r="4.1"/>
				<path fill="#FFFFFF" d="M113,108.7c-2,1.6-4.6,2.6-7.4,2.6c-2.8,0-5.3-1-7.3-2.6c1.1-3.2,3.3-5.5,6-6.1c0.4-0.1,0.9-0.1,1.3-0.1
					c0.5,0,0.9,0.1,1.3,0.1C109.7,103.1,111.9,105.5,113,108.7z"/>
			</g>
		</g>
		<g opacity="0.5">
			<path d="M98.3,144.9l0.1-0.1c0.1,0.1,0.3,0.2,0.5,0.2c0.3,0,0.4-0.1,0.4-0.3c0-0.5-1-0.2-1-0.8c0-0.2,0.2-0.5,0.6-0.5
				c0.2,0,0.4,0.1,0.5,0.1l-0.1,0.1c-0.1-0.1-0.3-0.1-0.5-0.1c-0.3,0-0.4,0.1-0.4,0.3c0,0.5,1,0.2,1,0.8c0,0.2-0.2,0.5-0.6,0.5
				C98.7,145.1,98.4,145.1,98.3,144.9z"/>
			<path d="M99.9,143.5c0-0.1,0.1-0.1,0.1-0.1c0.1,0,0.1,0.1,0.1,0.1c0,0.1-0.1,0.1-0.1,0.1C99.9,143.6,99.9,143.6,99.9,143.5z
				 M99.9,143.9h0.2v1.2h-0.2V143.9z"/>
			<path d="M101.7,143.9v1.1c0,0.4-0.2,0.6-0.6,0.6c-0.2,0-0.4-0.1-0.6-0.2l0.1-0.1c0.1,0.1,0.3,0.2,0.5,0.2c0.3,0,0.5-0.1,0.5-0.5
				v-0.2c-0.1,0.2-0.3,0.2-0.5,0.2c-0.4,0-0.6-0.2-0.6-0.6c0-0.4,0.3-0.6,0.6-0.6c0.2,0,0.4,0.1,0.5,0.2v-0.2H101.7z M101.5,144.5
				c0-0.3-0.2-0.5-0.5-0.5c-0.3,0-0.5,0.2-0.5,0.5c0,0.3,0.2,0.5,0.5,0.5C101.3,144.9,101.5,144.7,101.5,144.5z"/>
			<path d="M103.3,144.4v0.7h-0.2v-0.7c0-0.3-0.1-0.4-0.4-0.4c-0.3,0-0.4,0.2-0.4,0.5v0.7h-0.2v-1.2h0.2v0.2
				c0.1-0.2,0.3-0.2,0.5-0.2C103.1,143.9,103.3,144,103.3,144.4z"/>
			<path d="M105.5,143.9v1.2h-0.2v-0.2c-0.1,0.2-0.2,0.2-0.4,0.2c-0.3,0-0.5-0.2-0.5-0.5v-0.7h0.2v0.7c0,0.3,0.1,0.4,0.4,0.4
				c0.3,0,0.4-0.2,0.4-0.5v-0.7H105.5z"/>
			<path d="M107.2,144.5c0,0.4-0.3,0.6-0.6,0.6c-0.2,0-0.4-0.1-0.5-0.2v0.7h-0.2v-1.7h0.2v0.2c0.1-0.2,0.3-0.3,0.5-0.3
				C106.9,143.9,107.2,144.1,107.2,144.5z M107,144.5c0-0.3-0.2-0.5-0.5-0.5c-0.3,0-0.5,0.2-0.5,0.5c0,0.3,0.2,0.5,0.5,0.5
				C106.8,145,107,144.8,107,144.5z"/>
			<path d="M109.3,144.4v0.7h-0.2v-0.7c0-0.3-0.1-0.4-0.4-0.4c-0.3,0-0.4,0.2-0.4,0.5v0.7h-0.2v-1.2h0.2v0.2
				c0.1-0.2,0.3-0.2,0.5-0.2C109.1,143.9,109.3,144,109.3,144.4z"/>
			<path d="M109.6,144.5c0-0.4,0.3-0.6,0.6-0.6s0.6,0.3,0.6,0.6s-0.3,0.6-0.6,0.6S109.6,144.9,109.6,144.5z M110.7,144.5
				c0-0.3-0.2-0.5-0.5-0.5c-0.3,0-0.5,0.2-0.5,0.5s0.2,0.5,0.5,0.5C110.5,145,110.7,144.8,110.7,144.5z"/>
			<path d="M113,143.9l-0.5,1.2h-0.2l-0.4-1l-0.4,1h-0.2l-0.5-1.2h0.2l0.4,1.1l0.4-1.1h0.1l0.4,1.1l0.4-1.1H113z"/>
		</g>
		<path fill="#9B5B95" d="M128.9,158.2H82.3c-2.7,0-4.8-2.2-4.8-4.8v0c0-2.7,2.2-4.8,4.8-4.8h46.6c2.7,0,4.8,2.2,4.8,4.8v0
			C133.8,156,131.6,158.2,128.9,158.2z"/>
		<g opacity="0.5">
			<g>
				<path d="M95.5,163.1v0.7h0.9v0.2h-0.9v0.7h-0.2v-1.7h1.1v0.2H95.5z"/>
				<path d="M96.6,164c0-0.4,0.3-0.6,0.6-0.6s0.6,0.3,0.6,0.6s-0.3,0.6-0.6,0.6S96.6,164.3,96.6,164z M97.7,164
					c0-0.3-0.2-0.5-0.5-0.5c-0.3,0-0.5,0.2-0.5,0.5s0.2,0.5,0.5,0.5C97.5,164.5,97.7,164.3,97.7,164z"/>
				<path d="M98.8,163.3v0.2c0,0,0,0,0,0c-0.3,0-0.4,0.2-0.4,0.5v0.6h-0.2v-1.2h0.2v0.2C98.4,163.4,98.6,163.3,98.8,163.3z"/>
				<path d="M100.3,163.4v1.1c0,0.4-0.2,0.6-0.6,0.6c-0.2,0-0.4-0.1-0.6-0.2l0.1-0.1c0.1,0.1,0.3,0.2,0.5,0.2c0.3,0,0.5-0.1,0.5-0.5
					v-0.2c-0.1,0.2-0.3,0.2-0.5,0.2c-0.4,0-0.6-0.2-0.6-0.6c0-0.4,0.3-0.6,0.6-0.6c0.2,0,0.4,0.1,0.5,0.2v-0.2H100.3z M100.1,163.9
					c0-0.3-0.2-0.5-0.5-0.5c-0.3,0-0.5,0.2-0.5,0.5c0,0.3,0.2,0.5,0.5,0.5C99.9,164.4,100.1,164.2,100.1,163.9z"/>
				<path d="M100.6,164c0-0.4,0.3-0.6,0.6-0.6s0.6,0.3,0.6,0.6s-0.3,0.6-0.6,0.6S100.6,164.3,100.6,164z M101.7,164
					c0-0.3-0.2-0.5-0.5-0.5c-0.3,0-0.5,0.2-0.5,0.5s0.2,0.5,0.5,0.5C101.5,164.5,101.7,164.3,101.7,164z"/>
				<path d="M102.9,164.5c-0.1,0.1-0.2,0.1-0.3,0.1c-0.2,0-0.4-0.1-0.4-0.4v-0.8H102v-0.1h0.2v-0.3h0.2v0.3h0.4v0.1h-0.4v0.7
					c0,0.1,0.1,0.2,0.2,0.2c0.1,0,0.1,0,0.2-0.1L102.9,164.5z"/>
				<path d="M105.1,163.5c0,0.4-0.3,0.6-0.7,0.6H104v0.5h-0.2v-1.7h0.6C104.8,162.9,105.1,163.2,105.1,163.5z M104.9,163.5
					c0-0.3-0.2-0.4-0.5-0.4H104v0.8h0.4C104.8,163.9,104.9,163.8,104.9,163.5z"/>
				<path d="M106.4,163.8v0.8h-0.2v-0.2c-0.1,0.1-0.2,0.2-0.4,0.2c-0.3,0-0.5-0.1-0.5-0.4c0-0.2,0.1-0.4,0.5-0.4h0.4v-0.1
					c0-0.2-0.1-0.3-0.4-0.3c-0.2,0-0.3,0.1-0.4,0.1l-0.1-0.1c0.1-0.1,0.3-0.2,0.5-0.2C106.2,163.3,106.4,163.5,106.4,163.8z
					 M106.2,164.2V164h-0.4c-0.2,0-0.3,0.1-0.3,0.2c0,0.1,0.1,0.2,0.3,0.2C106,164.5,106.1,164.4,106.2,164.2z"/>
				<path d="M106.6,164.5l0.1-0.1c0.1,0.1,0.3,0.1,0.4,0.1c0.2,0,0.3-0.1,0.3-0.2c0-0.3-0.8-0.1-0.8-0.6c0-0.2,0.2-0.4,0.5-0.4
					c0.2,0,0.3,0,0.4,0.1l-0.1,0.1c-0.1-0.1-0.2-0.1-0.4-0.1c-0.2,0-0.3,0.1-0.3,0.2c0,0.3,0.8,0.1,0.8,0.6c0,0.2-0.2,0.4-0.5,0.4
					C106.9,164.6,106.7,164.5,106.6,164.5z"/>
				<path d="M107.8,164.5l0.1-0.1c0.1,0.1,0.3,0.1,0.4,0.1c0.2,0,0.3-0.1,0.3-0.2c0-0.3-0.8-0.1-0.8-0.6c0-0.2,0.2-0.4,0.5-0.4
					c0.2,0,0.3,0,0.4,0.1l-0.1,0.1c-0.1-0.1-0.2-0.1-0.4-0.1c-0.2,0-0.3,0.1-0.3,0.2c0,0.3,0.8,0.1,0.8,0.6c0,0.2-0.2,0.4-0.5,0.4
					C108.1,164.6,107.9,164.5,107.8,164.5z"/>
				<path d="M110.9,163.4l-0.5,1.2h-0.2l-0.4-1l-0.4,1h-0.2l-0.5-1.2h0.2l0.4,1.1l0.4-1.1h0.1l0.4,1.1l0.4-1.1H110.9z"/>
				<path d="M111,164c0-0.4,0.3-0.6,0.6-0.6s0.6,0.3,0.6,0.6s-0.3,0.6-0.6,0.6S111,164.3,111,164z M112.1,164c0-0.3-0.2-0.5-0.5-0.5
					c-0.3,0-0.5,0.2-0.5,0.5s0.2,0.5,0.5,0.5C111.9,164.5,112.1,164.3,112.1,164z"/>
				<path d="M113.2,163.3v0.2c0,0,0,0,0,0c-0.3,0-0.4,0.2-0.4,0.5v0.6h-0.2v-1.2h0.2v0.2C112.9,163.4,113,163.3,113.2,163.3z"/>
				<path d="M114.7,162.8v1.8h-0.2v-0.2c-0.1,0.2-0.3,0.3-0.5,0.3c-0.4,0-0.6-0.3-0.6-0.6s0.3-0.6,0.6-0.6c0.2,0,0.4,0.1,0.5,0.2
					v-0.7H114.7z M114.5,164c0-0.3-0.2-0.5-0.5-0.5c-0.3,0-0.5,0.2-0.5,0.5s0.2,0.5,0.5,0.5C114.3,164.5,114.5,164.3,114.5,164z"/>
				<path d="M115.9,163.4c0-0.2-0.1-0.3-0.4-0.3c-0.2,0-0.3,0.1-0.5,0.2l-0.1-0.1c0.1-0.2,0.3-0.2,0.6-0.2c0.3,0,0.5,0.2,0.5,0.4
					c0,0.4-0.4,0.4-0.4,0.8h-0.2C115.5,163.7,115.9,163.7,115.9,163.4z M115.4,164.5c0-0.1,0.1-0.1,0.1-0.1c0.1,0,0.1,0.1,0.1,0.1
					c0,0.1-0.1,0.1-0.1,0.1C115.5,164.6,115.4,164.6,115.4,164.5z"/>
			</g>
		</g>
		<g>
			<path fill="#FFFFFF" d="M99.4,151.5h0.5v2.9h1.8v0.4h-2.3V151.5z"/>
			<path fill="#FFFFFF" d="M101.8,153.6c0-0.7,0.6-1.3,1.3-1.3c0.7,0,1.3,0.5,1.3,1.3c0,0.7-0.5,1.3-1.3,1.3
				C102.4,154.9,101.8,154.3,101.8,153.6z M104,153.6c0-0.5-0.4-0.9-0.8-0.9s-0.8,0.3-0.8,0.9c0,0.5,0.4,0.9,0.8,0.9
				S104,154.1,104,153.6z"/>
			<path fill="#FFFFFF" d="M107.4,152.3v2.2c0,0.9-0.4,1.3-1.3,1.3c-0.5,0-0.9-0.1-1.2-0.4l0.2-0.3c0.2,0.2,0.6,0.3,1,0.3
				c0.6,0,0.9-0.3,0.9-0.8v-0.2c-0.2,0.3-0.5,0.4-0.9,0.4c-0.7,0-1.3-0.5-1.3-1.2s0.5-1.2,1.3-1.2c0.4,0,0.7,0.1,0.9,0.4v-0.4H107.4
				z M107,153.5c0-0.5-0.4-0.8-0.9-0.8c-0.5,0-0.9,0.3-0.9,0.8c0,0.5,0.4,0.8,0.9,0.8C106.6,154.3,107,154,107,153.5z"/>
			<path fill="#FFFFFF" d="M108.2,151.6c0-0.2,0.1-0.3,0.3-0.3s0.3,0.1,0.3,0.3c0,0.2-0.1,0.3-0.3,0.3
				C108.4,151.9,108.2,151.7,108.2,151.6z M108.3,152.3h0.5v2.5h-0.5V152.3z"/>
			<path fill="#FFFFFF" d="M112,153.4v1.4h-0.5v-1.4c0-0.5-0.2-0.7-0.7-0.7c-0.5,0-0.8,0.3-0.8,0.8v1.3h-0.5v-2.5h0.4v0.4
				c0.2-0.3,0.5-0.4,0.9-0.4C111.6,152.3,112,152.7,112,153.4z"/>
		</g>
		<path fill="#FFFFFF" d="M128.9,125.6H82.3c-2.7,0-4.8-2.2-4.8-4.8v0c0-2.7,2.2-4.8,4.8-4.8h46.6c2.7,0,4.8,2.2,4.8,4.8v0
			C133.8,123.5,131.6,125.6,128.9,125.6z"/>
		<path fill="#FFFFFF" d="M128.9,139.3H82.3c-2.7,0-4.8-2.2-4.8-4.8v0c0-2.7,2.2-4.8,4.8-4.8h46.6c2.7,0,4.8,2.2,4.8,4.8v0
			C133.8,137.1,131.6,139.3,128.9,139.3z"/>
		<g opacity="0.5">
			<g>
				<path d="M85.7,119.6v2.1h-0.2l-1.3-1.7v1.7H84v-2.1h0.2l1.3,1.7v-1.7H85.7z"/>
				<path d="M87.5,120.7v1h-0.2v-0.2c-0.1,0.2-0.3,0.3-0.5,0.3c-0.4,0-0.6-0.2-0.6-0.5c0-0.2,0.2-0.4,0.6-0.4h0.5v-0.1
					c0-0.3-0.1-0.4-0.4-0.4c-0.2,0-0.4,0.1-0.5,0.2l-0.1-0.2c0.2-0.1,0.4-0.2,0.6-0.2C87.3,120.1,87.5,120.3,87.5,120.7z
					 M87.3,121.2v-0.3h-0.5c-0.3,0-0.4,0.1-0.4,0.3c0,0.2,0.1,0.3,0.4,0.3C87.1,121.5,87.2,121.4,87.3,121.2z"/>
				<path d="M90.6,120.8v0.9h-0.2v-0.9c0-0.3-0.2-0.5-0.4-0.5c-0.3,0-0.5,0.2-0.5,0.6v0.8h-0.2v-0.9c0-0.3-0.2-0.5-0.4-0.5
					c-0.3,0-0.5,0.2-0.5,0.6v0.8h-0.2v-1.5h0.2v0.3c0.1-0.2,0.3-0.3,0.6-0.3c0.3,0,0.5,0.1,0.6,0.3c0.1-0.2,0.3-0.3,0.6-0.3
					C90.4,120.1,90.6,120.3,90.6,120.8z"/>
				<path d="M92.6,121h-1.3c0,0.3,0.3,0.5,0.6,0.5c0.2,0,0.4-0.1,0.5-0.2l0.1,0.1c-0.1,0.2-0.4,0.3-0.6,0.3c-0.5,0-0.8-0.3-0.8-0.8
					s0.3-0.8,0.8-0.8C92.3,120.1,92.6,120.4,92.6,121C92.6,120.9,92.6,120.9,92.6,121z M91.3,120.8h1.1c0-0.3-0.2-0.5-0.6-0.5
					C91.5,120.3,91.3,120.5,91.3,120.8z"/>
				<path d="M95.6,120.9c0,0.5-0.2,0.8-0.5,0.8c-0.2,0-0.3-0.1-0.3-0.3c-0.1,0.2-0.3,0.3-0.6,0.3c-0.4,0-0.7-0.3-0.7-0.8
					c0-0.4,0.3-0.8,0.7-0.8c0.3,0,0.5,0.1,0.6,0.3v-0.3H95v1.1c0,0.2,0.1,0.2,0.2,0.2c0.2,0,0.3-0.2,0.3-0.6c0-0.7-0.5-1.2-1.2-1.2
					c-0.7,0-1.2,0.5-1.2,1.2s0.5,1.2,1.2,1.2c0.2,0,0.4,0,0.6-0.1l0.1,0.1c-0.2,0.1-0.4,0.1-0.6,0.1c-0.8,0-1.4-0.6-1.4-1.3
					c0-0.8,0.6-1.3,1.4-1.3C95,119.6,95.6,120.1,95.6,120.9z M94.8,120.9c0-0.4-0.2-0.6-0.6-0.6c-0.3,0-0.6,0.2-0.6,0.6
					s0.2,0.6,0.6,0.6C94.5,121.5,94.8,121.3,94.8,120.9z"/>
				<path d="M98.6,120.8v0.9h-0.2v-0.9c0-0.3-0.2-0.5-0.4-0.5c-0.3,0-0.5,0.2-0.5,0.6v0.8h-0.2v-0.9c0-0.3-0.2-0.5-0.4-0.5
					c-0.3,0-0.5,0.2-0.5,0.6v0.8H96v-1.5h0.2v0.3c0.1-0.2,0.3-0.3,0.6-0.3c0.3,0,0.5,0.1,0.6,0.3c0.1-0.2,0.3-0.3,0.6-0.3
					C98.4,120.1,98.6,120.3,98.6,120.8z"/>
				<path d="M100.3,120.7v1h-0.2v-0.2c-0.1,0.2-0.3,0.3-0.5,0.3c-0.4,0-0.6-0.2-0.6-0.5c0-0.2,0.2-0.4,0.6-0.4h0.5v-0.1
					c0-0.3-0.1-0.4-0.4-0.4c-0.2,0-0.4,0.1-0.5,0.2l-0.1-0.2c0.2-0.1,0.4-0.2,0.6-0.2C100.1,120.1,100.3,120.3,100.3,120.7z
					 M100.1,121.2v-0.3h-0.5c-0.3,0-0.4,0.1-0.4,0.3c0,0.2,0.1,0.3,0.4,0.3C99.9,121.5,100.1,121.4,100.1,121.2z"/>
				<path d="M100.9,119.6c0-0.1,0.1-0.1,0.2-0.1s0.2,0.1,0.2,0.1c0,0.1-0.1,0.2-0.2,0.2C100.9,119.8,100.9,119.7,100.9,119.6z
					 M100.9,120.1h0.2v1.5h-0.2V120.1z"/>
				<path d="M101.7,119.5h0.2v2.2h-0.2V119.5z"/>
				<path d="M102.4,121.5c0-0.1,0.1-0.2,0.2-0.2s0.2,0.1,0.2,0.2s-0.1,0.2-0.2,0.2S102.4,121.6,102.4,121.5z"/>
				<path d="M102.9,120.9c0-0.5,0.3-0.8,0.8-0.8c0.3,0,0.5,0.1,0.6,0.3l-0.2,0.1c-0.1-0.2-0.3-0.2-0.5-0.2c-0.3,0-0.6,0.2-0.6,0.6
					c0,0.4,0.2,0.6,0.6,0.6c0.2,0,0.3-0.1,0.5-0.2l0.2,0.1c-0.1,0.2-0.3,0.3-0.6,0.3C103.3,121.7,102.9,121.4,102.9,120.9z"/>
				<path d="M104.6,120.9c0-0.5,0.3-0.8,0.8-0.8s0.8,0.3,0.8,0.8s-0.3,0.8-0.8,0.8S104.6,121.4,104.6,120.9z M105.9,120.9
					c0-0.4-0.2-0.6-0.6-0.6c-0.3,0-0.6,0.2-0.6,0.6s0.2,0.6,0.6,0.6C105.7,121.5,105.9,121.3,105.9,120.9z"/>
				<path d="M109.1,120.8v0.9h-0.2v-0.9c0-0.3-0.2-0.5-0.4-0.5c-0.3,0-0.5,0.2-0.5,0.6v0.8h-0.2v-0.9c0-0.3-0.2-0.5-0.4-0.5
					c-0.3,0-0.5,0.2-0.5,0.6v0.8h-0.2v-1.5h0.2v0.3c0.1-0.2,0.3-0.3,0.6-0.3c0.3,0,0.5,0.1,0.6,0.3c0.1-0.2,0.3-0.3,0.6-0.3
					C108.9,120.1,109.1,120.3,109.1,120.8z"/>
			</g>
		</g>
		<g opacity="0.5">
			<path d="M84.7,134.8l0.5,0.3l-0.1,0.2l-0.5-0.3v0.6h-0.2l0-0.6l-0.5,0.3l-0.1-0.2l0.5-0.3l-0.5-0.3l0.1-0.2l0.5,0.3l0-0.6h0.2
				v0.6l0.5-0.3l0.1,0.2L84.7,134.8z"/>
			<path d="M86.3,134.8l0.5,0.3l-0.1,0.2l-0.5-0.3v0.6H86l0-0.6l-0.5,0.3l-0.1-0.2l0.5-0.3l-0.5-0.3l0.1-0.2l0.5,0.3l0-0.6h0.2v0.6
				l0.5-0.3l0.1,0.2L86.3,134.8z"/>
			<path d="M88,134.8l0.5,0.3l-0.1,0.2l-0.5-0.3v0.6h-0.2l0-0.6l-0.5,0.3l-0.1-0.2l0.5-0.3l-0.5-0.3l0.1-0.2l0.5,0.3l0-0.6h0.2v0.6
				l0.5-0.3l0.1,0.2L88,134.8z"/>
			<path d="M89.7,134.8l0.5,0.3l-0.1,0.2l-0.5-0.3v0.6h-0.2l0-0.6l-0.5,0.3l-0.1-0.2l0.5-0.3l-0.5-0.3l0.1-0.2l0.5,0.3l0-0.6h0.2
				v0.6l0.5-0.3l0.1,0.2L89.7,134.8z"/>
			<path d="M91.4,134.8l0.5,0.3l-0.1,0.2l-0.5-0.3v0.6h-0.2l0-0.6l-0.5,0.3l-0.1-0.2l0.5-0.3l-0.5-0.3l0.1-0.2l0.5,0.3l0-0.6h0.2
				v0.6l0.5-0.3l0.1,0.2L91.4,134.8z"/>
			<path d="M93,134.8l0.5,0.3l-0.1,0.2l-0.5-0.3v0.6h-0.2l0-0.6l-0.5,0.3l-0.1-0.2l0.5-0.3l-0.5-0.3l0.1-0.2l0.5,0.3l0-0.6h0.2v0.6
				l0.5-0.3l0.1,0.2L93,134.8z"/>
			<path d="M94.7,134.8l0.5,0.3l-0.1,0.2l-0.5-0.3v0.6h-0.2l0-0.6l-0.5,0.3l-0.1-0.2l0.5-0.3l-0.5-0.3l0.1-0.2l0.5,0.3l0-0.6h0.2
				v0.6l0.5-0.3l0.1,0.2L94.7,134.8z"/>
		</g>
		<path opacity="0.2" d="M123.9,118.5v4.5h6.4v-4.5H123.9z M129.2,119l-2.2,1.5l-2.2-1.5H129.2z M124.4,122.6v-3.3l2.7,1.8l2.7-1.8
			v3.3H124.4z"/>
		<g opacity="0.2">
			<g>
				<path d="M128.6,133.7v-0.6c0-0.7-0.6-1.3-1.3-1.3h-0.7c-0.7,0-1.3,0.6-1.3,1.3v0.6h-1v3.8h5.4v-3.8H128.6z M125.9,133.2
					c0-0.4,0.3-0.8,0.8-0.8h0.7c0.4,0,0.8,0.3,0.8,0.8v0.6h-2.2V133.2z M129.3,137h-4.4v-2.8h4.4V137z"/>
				<path d="M126.9,135.7v0.4h0.3v-0.4c0.1,0,0.1-0.1,0.1-0.2c0-0.2-0.1-0.3-0.3-0.3c-0.2,0-0.3,0.1-0.3,0.3
					C126.8,135.6,126.8,135.7,126.9,135.7z"/>
			</g>
		</g>
	</g>
</g>
<g id="Speech_bubble">
</g>
<g id="Character">
	<g>
		<polygon fill="#263238" points="232.9,244.7 236.8,244.7 228.9,199.8 225,199.8 		"/>
		<polygon fill="#263238" points="147.4,244.7 151.3,244.7 143.3,199.8 139.4,199.8 		"/>
		<polygon opacity="0.3" fill="#FFFFFF" points="232.9,244.7 236.8,244.7 228.9,199.8 225,199.8 		"/>
		<polygon opacity="0.3" fill="#FFFFFF" points="147.4,244.7 151.3,244.7 143.3,199.8 139.4,199.8 		"/>
		
			<rect x="113.5" y="222.2" transform="matrix(-1 -1.224647e-16 1.224647e-16 -1 344.4008 448.4308)" fill="#263238" width="117.4" height="3.9"/>
		
			<rect x="113.5" y="222.2" transform="matrix(-1 -1.224647e-16 1.224647e-16 -1 344.4008 448.4308)" opacity="0.5" fill="#FFFFFF" width="117.4" height="3.9"/>
		<polygon fill="#263238" points="197,244.7 193.1,244.7 201.1,199.8 205,199.8 		"/>
		<polygon fill="#263238" points="111.5,244.7 107.6,244.7 115.5,199.8 119.4,199.8 		"/>
		<polygon opacity="0.3" fill="#FFFFFF" points="197,244.7 193.1,244.7 201.1,199.8 205,199.8 		"/>
		<polygon opacity="0.3" fill="#FFFFFF" points="111.5,244.7 107.6,244.7 115.5,199.8 119.4,199.8 		"/>
		<polygon fill="#263238" points="146.8,198 150.6,198 157.1,162 153.3,162 		"/>
		<polygon opacity="0.3" fill="#FFFFFF" points="146.8,198 150.6,198 157.1,162 153.3,162 		"/>
		<polygon fill="#263238" points="223.7,198 227.6,198 234,162 230.2,162 		"/>
		<polygon fill="#263238" points="185.2,198 189.1,198 195.6,162 191.7,162 		"/>
		<polygon opacity="0.3" fill="#FFFFFF" points="223.7,198 227.6,198 234,162 230.2,162 		"/>
		<polygon opacity="0.3" fill="#FFFFFF" points="185.2,198 189.1,198 195.6,162 191.7,162 		"/>
		<polygon fill="#263238" points="140.1,164.5 241.8,164.5 243,157.7 141.3,157.7 		"/>
		<polygon fill="#263238" points="137.9,176.7 239.6,176.7 240.8,169.9 139.1,169.9 		"/>
		<polygon fill="#263238" points="135.7,188.9 237.4,188.9 238.6,182.1 136.9,182.1 		"/>
		
			<rect x="106.8" y="197" transform="matrix(-1 -1.224647e-16 1.224647e-16 -1 343.1712 398.6276)" fill="#263238" width="129.6" height="4.7"/>
		<polygon opacity="0.5" fill="#FFFFFF" points="140.1,164.5 241.8,164.5 243,157.7 141.3,157.7 		"/>
		<polygon opacity="0.5" fill="#FFFFFF" points="137.9,176.7 239.6,176.7 240.8,169.9 139.1,169.9 		"/>
		<polygon opacity="0.5" fill="#FFFFFF" points="135.7,188.9 237.4,188.9 238.6,182.1 136.9,182.1 		"/>
		
			<rect x="106.8" y="197" transform="matrix(-1 -1.224647e-16 1.224647e-16 -1 343.1712 398.6276)" opacity="0.5" fill="#FFFFFF" width="129.6" height="4.7"/>
		
			<rect x="106.8" y="197" transform="matrix(-1 -1.224647e-16 1.224647e-16 -1 311.3421 398.6276)" opacity="0.2" fill="#FFFFFF" width="97.8" height="4.7"/>
	</g>
	<g>
		<g>
			<path fill="#E9B376" d="M196.1,150.3c-1.7,1.9-3.4,3.6-5.3,5.3c-1,0.8-1.9,1.6-3.1,2.4c-0.6,0.4-1.2,0.8-1.8,1.2
				c-0.3,0.2-0.7,0.4-1.2,0.6c-0.5,0.2-1,0.4-1.8,0.6c-0.4,0.1-1,0.2-1.8,0.2c-0.2,0-0.4,0-0.6-0.1l-0.3-0.1c-0.2,0-0.4-0.1-0.6-0.2
				c-0.6-0.2-1.2-0.5-1.6-0.7c-0.8-0.5-1.4-1-2-1.4c-1.1-0.9-2-1.9-2.8-2.9c-1.6-2-3-4-4.2-6.3c-0.6-1.2-0.2-2.8,1.1-3.4
				c0.9-0.4,1.8-0.4,2.6,0.1l0.1,0.1c1.9,1.3,3.8,2.7,5.6,3.9c0.9,0.6,1.8,1.2,2.6,1.6c0.4,0.2,0.8,0.4,1,0.4c0.1,0,0.1,0,0.1,0
				c0,0-0.1,0-0.1-0.1l-0.1,0c-0.1,0-0.3,0-0.4,0c-0.5,0-0.7,0-0.9,0.1c-0.3,0-0.2,0-0.2,0l0.3-0.3c0.3-0.2,0.7-0.5,1-0.9
				c0.7-0.7,1.5-1.4,2.3-2.2l4.7-4.7l0,0c1.9-2,5.1-2,7.1,0C197.7,145.3,197.8,148.3,196.1,150.3z"/>
		</g>
		<path fill="#9B5B95" d="M193.1,143.6v8.4c0,0-1.8,1.5-4,3.1c-1.1,0.8-2.3,1.7-3.4,2.4c-1.7,1.1-3.2,1.9-4,1.9
			c-2.3-0.1-7.4-3.7-7.4-3.7l3.3-5.5c0,0,3.8,2.3,4,2.5C181.9,152.8,189.9,143.7,193.1,143.6z"/>
		<path opacity="0.2" d="M189.1,155.2c-1.1,0.8-2.3,1.7-3.4,2.4c0.3-4.8,2.5-6.7,2.5-6.7C188.9,152.2,189.1,153.7,189.1,155.2z"/>
		<path fill="#263238" d="M196.3,121.4c-4.1,3.3-3.6,12.9,1,19.1c0,0,9.8,0.8,15.2-1.6c5.4-2.4-0.6-17.9-6.3-19.1
			C200.4,118.6,196.3,121.4,196.3,121.4z"/>
		<path fill="#263238" d="M196.5,131.3c-1.5-2.6-3-9.5,3.2-11.7c7.7-2.7,11.2,2.3,11.9,7.2c0.7,4.9-2.1,8.6-7.2,8.2
			C199.3,134.7,197.5,133.1,196.5,131.3z"/>
		<path fill="#263238" d="M188.2,150.9c-0.8,3.6,0.6,12,0.8,18.4l18.2,2.1c0-2,0.4-4.9,1.6-9.5c0.7-2.7,1.7-6,3-10
			c0.2-0.6,0.4-1.2,0.6-1.8c1-2.8-0.7-5.6-3.6-6.1c-0.8-0.1-1.6-0.2-2.4-0.3c-3.2-0.3-5.9-0.6-8.8-0.5c-1,0-2,0.1-2.9,0.2
			C191.2,143.6,188.9,147.5,188.2,150.9z"/>
		<g>
			<path fill="#C69076" d="M206.3,133.7c-0.9,2.8-2.1,7.9-0.4,9.9c0,0-2.7-0.5-8.6,2.7c-1.5-2.5-0.3-3.1-0.3-3.1
				c3.3-0.6,3.5-2.9,3.2-5.1L206.3,133.7z"/>
			<path opacity="0.2" fill="#FFFFFF" d="M203.9,135.4l-3.6,2.6c0.1,0.5,0.1,1.1,0.1,1.6c1.2-0.1,3.1-1.3,3.3-2.6
				C203.9,136.3,204,135.7,203.9,135.4z"/>
		</g>
		<g>
			<path fill="#C69076" d="M207.6,127.2c0.1,4.7,0.2,6.6-2,9.2c-3.3,3.8-9,2.9-10.5-1.6c-1.3-4.1-1.2-11,3.2-13.2
				C202.7,119.3,207.5,122.5,207.6,127.2z"/>
			<path fill="#263238" d="M203.6,122.8c-1.3,1.6,1.7,6.7,4,7.6C212.1,128.9,207.5,118,203.6,122.8z"/>
			<path fill="#263238" d="M198.1,120.6c-1.7,0.8-3.3,4-3.5,5.2c2.5,0.2,9.1-2.8,9.1-2.8s4.6,0.9,2.1-1.2
				C203.3,119.7,198.1,120.6,198.1,120.6z"/>
			<path fill="#263238" d="M199.8,129.1c0,0.4-0.1,0.7-0.4,0.7c-0.2,0-0.5-0.3-0.5-0.7c0-0.4,0.1-0.7,0.4-0.7
				C199.5,128.4,199.8,128.7,199.8,129.1z"/>
			<path fill="#263238" d="M195.5,129.4c0,0.4-0.1,0.7-0.4,0.7c-0.2,0-0.5-0.3-0.5-0.7c0-0.4,0.1-0.7,0.4-0.7
				C195.3,128.7,195.5,129,195.5,129.4z"/>
			<path fill="#263238" d="M195.1,128.7l-0.9-0.2C194.2,128.5,194.7,129.2,195.1,128.7z"/>
			<path fill="#263238" d="M197.3,129.8c0,0-0.5,1.7-1.2,2.5c0.5,0.4,1.4,0.2,1.4,0.2L197.3,129.8z"/>
			<path fill="#263238" d="M199.7,133.8c-0.2,0-0.4,0.1-0.6,0.1c-0.1,0-0.1,0-0.1-0.1c0-0.1,0-0.1,0.1-0.1c1.7-0.1,2.3-1.3,2.4-1.4
				c0-0.1,0.1-0.1,0.2,0c0.1,0,0.1,0.1,0,0.2C201.7,132.5,201.1,133.5,199.7,133.8z"/>
			<path fill="#C69076" d="M209.1,131.3c-0.3,0.9-0.9,1.7-1.6,2c-1.1,0.6-1.8-0.3-1.8-1.4c0.1-1,0.7-2.5,1.9-2.6
				C208.7,129.2,209.4,130.3,209.1,131.3z"/>
			<path fill="#263238" d="M201.9,127.9c-0.1,0-0.2,0-0.2-0.1c-0.5-0.9-1.9-1-1.9-1c-0.1,0-0.2-0.1-0.2-0.2c0-0.1,0.1-0.2,0.2-0.2
				c0.1,0,1.6,0.1,2.2,1.2C202.1,127.7,202.1,127.9,201.9,127.9C201.9,127.9,201.9,127.9,201.9,127.9z"/>
			<path fill="#263238" d="M194.5,127.4c-0.1,0-0.2,0-0.2-0.1c-0.1-0.1-0.1-0.2,0-0.3c0.9-0.9,1.9-0.6,1.9-0.6
				c0.1,0,0.2,0.1,0.2,0.3c0,0.1-0.1,0.2-0.3,0.2l0,0c0,0-0.8-0.2-1.5,0.5C194.6,127.4,194.6,127.4,194.5,127.4z"/>
			<path fill="#263238" d="M199.4,128.4l-0.9-0.2C198.5,128.2,199,128.9,199.4,128.4z"/>
		</g>
		<path fill="#C69076" d="M182.8,145.6l0.4,1.4c0.2,0.5,0.6,0.9,1.1,1.1l2.4,0.8c1,0.3,2,0.1,2.8-0.5l0.5-0.4
			c-0.6-2.3-2.9-4.4-2.9-4.4l-0.6-0.7c-0.5-0.6-1.4-0.7-2-0.2l-1.4,1.2C182.8,144.3,182.6,145,182.8,145.6z"/>
		<path fill="#C6903B" d="M166.5,146.9l0.4,1.4c0.2,0.5,0.6,0.9,1.1,1.1l2.4,0.8c1,0.3,2,0.1,2.8-0.5l0.5-0.4
			c-0.6-2.3-2.9-4.4-2.9-4.4l-0.6-0.7c-0.5-0.6-1.4-0.7-2-0.2l-1.4,1.2C166.5,145.6,166.3,146.3,166.5,146.9z"/>
		<path opacity="0.2" d="M201.8,154.3c1.2,3.5,4.2,6,7,7.6c0.7-2.7,1.7-6,3-10c-1.8-2.5-4.3-4.3-7.5-3.8
			C204.3,148.1,200.6,150.8,201.8,154.3z"/>
		<g>
			<path fill="#C69076" d="M137.1,222.8l3.1,1.2c0,0,26.1-39.4,28.6-38c8.8,5.4,26.8,15,35.3,9.2c8.5-5.8,3.5-21.1,3.5-21.1
				s-16.6-5.8-18.6-2.2c-0.4,0.7-1,2.1-1.4,3.3c-0.4,1.1-0.8,2.1-0.8,2.1s0,0,0,0c-0.5-0.2-16.8-8.1-24.4-4.8
				C154.5,175.8,137.1,222.8,137.1,222.8z"/>
		</g>
		<path fill="#C69076" d="M193.8,197.4c0,0-8.2,0.5-19.5-3.3c0,0-2.8,31.4-4.6,48.5l-3.8-0.5c0,0-6.4-46.5-5.1-52.2
			c1.3-5.7,8.1-6,8.1-6S182,193.4,193.8,197.4z"/>
		<path fill="#407BFF" d="M193.8,197.4c-0.2,0-8.2,0.3-16.4-2l1.1-4.5C182.5,193.6,188.3,195.3,193.8,197.4z"/>
		<path fill="#585874" d="M193.8,197.4c-0.2,0-8.2,0.3-16.4-2l1.1-4.5C182.5,193.6,188.3,195.3,193.8,197.4z"/>
		<polygon display="none" fill="#505188" points="177.7,190.4 176.7,195.4 178.2,195.9 179.4,191.5 		"/>
		<path opacity="0.2" enable-background="new    " d="M162.1,209.6c-0.6-12.4-0.8-18.8,1.2-21.3c2-2.6,5.2-3,5.2-3
			c2.6,6.7,14.2,10.9,14.5,11c0,0,0,0,0,0c4.3,0.9,10.7,1.1,10.8,1.2c-6.5-1.3-11.2-3.8-15.4-6.5c-5.7-3.8-9.5-7.1-9.5-7.1
			s-6.9,0.4-8.1,6c-0.5,2.3,0.3,11.5,1.3,21.5C162.1,210.7,162.1,210.1,162.1,209.6z"/>
		<g>
			<path fill="#263238" d="M134,220.2c-0.1-0.1-0.1-0.3,0.1-0.6c0.1-0.1,0.2-0.2,0.4-0.2c0.3,0,0.7,0.1,1.1,0.4
				c-0.3-0.4-0.5-0.8-0.4-1c0.1-0.2,0.2-0.3,0.5-0.3c0.2,0,0.5,0.1,0.6,0.3c0.5,0.6,0.4,1.8,0.4,1.9c0,0,0,0,0,0.1c0,0,0,0,0,0
				c0,0,0,0,0,0l0,0l0,0c0,0,0,0,0,0c-0.2,0-1,0-1.6-0.1C134.5,220.6,134.1,220.5,134,220.2z M134.5,219.8c-0.1,0-0.2,0-0.2,0.1
				c-0.1,0.2-0.1,0.2-0.1,0.3c0.1,0.3,1.1,0.4,2,0.5C135.7,220.2,135,219.7,134.5,219.8z M135.7,218.8c-0.1,0-0.2,0-0.2,0.1
				c-0.1,0.2,0.4,0.9,1,1.5c0-0.4,0-1.1-0.3-1.4c-0.1-0.1-0.2-0.1-0.3-0.2C135.8,218.8,135.8,218.8,135.7,218.8z"/>
		</g>
		<g>
			<path fill="#263238" d="M162.2,239.3c-0.1-0.1-0.2-0.2-0.1-0.6c0-0.1,0.1-0.3,0.3-0.4c0.3-0.2,0.7-0.2,1.2-0.1
				c-0.4-0.2-0.8-0.5-0.8-0.8c0-0.2,0.1-0.3,0.3-0.4c0.2-0.1,0.4-0.1,0.7,0c0.7,0.3,1.2,1.5,1.2,1.5c0,0,0,0,0,0.1v0v0c0,0,0,0,0,0
				l0,0c0,0,0,0,0,0c0,0,0,0,0,0c0,0,0,0,0,0c0,0,0,0,0,0l0,0c0,0,0,0,0,0c-0.3,0.1-1.4,0.7-2.2,0.7
				C162.4,239.4,162.3,239.4,162.2,239.3z M162.5,238.6c-0.1,0-0.1,0.1-0.1,0.2c0,0.2,0,0.3,0,0.3c0.2,0.2,1.2-0.1,2-0.4
				C163.7,238.6,162.8,238.4,162.5,238.6z M163.1,237.3c-0.1,0-0.2,0.1-0.2,0.2c0,0.2,0.8,0.6,1.5,0.9c-0.2-0.4-0.5-0.9-0.9-1.1
				c-0.1,0-0.1,0-0.2,0C163.3,237.3,163.2,237.3,163.1,237.3z"/>
		</g>
		<path fill="#263238" d="M142.1,222.7c0.2-0.4-4.7-2.3-4.7-2.3s-4.3,1.6-7.4,1c-3.1-0.6-2.3,1.8,0.8,3.2c3.2,1.5,5.6,2.6,7.8,3.6
			C140.9,229.3,140.3,226.8,142.1,222.7z"/>
		<path fill="#263238" d="M170.6,238.1c0-0.4-5.2,0-5.2,0s-3.2,3.3-6.3,4.1c-3.1,0.8-1.3,2.6,2.1,2.6c3.5,0,6.1-0.1,8.6-0.1
			C172.3,244.6,170.7,242.5,170.6,238.1z"/>
		<g>
			<path fill="#505188" d="M207.5,174.1c0,0-16.6-5.8-18.6-2.2c-0.4,0.7-1,2.1-1.4,3.3c-0.4,1.1-0.8,2.1-0.8,2.1s0,0,0,0
				c0,0-1.4-0.6-1.4-0.6l-5.6,16.6c8.8,4.9,21.3,5.5,26.4,2C214.7,189.5,207.5,174.1,207.5,174.1z"/>
		</g>
		<g opacity="0.4">
			<path fill="#585874" d="M207.5,174.1c0,0-16.6-5.8-18.6-2.2c-0.4,0.7-1,2.1-1.4,3.3c-0.4,1.1-0.8,2.1-0.8,2.1s0,0,0,0
				c0,0-1.4-0.6-1.4-0.6l-5.6,16.6c8.8,4.9,21.3,5.5,26.4,2C214.7,189.5,207.5,174.1,207.5,174.1z"/>
		</g>
		<path opacity="0.3" enable-background="new    " d="M186.7,177.3l9.6,4.1c0,0-4.9-4.1-8.8-6.2C187,176.4,186.7,177.3,186.7,177.3z
			"/>
		<g>
			<polygon fill="#9B5B95" points="188.6,172.4 189,168.3 207.5,170.7 207.7,174.7 			"/>
			<polygon opacity="0.4" fill="#FFFFFF" points="188.6,172.4 189,168.3 207.5,170.7 207.7,174.7 			"/>
			<g>
				<polygon fill="#263238" points="189,168.7 190,168.8 189.7,172 188.9,171.9 				"/>
				<polygon fill="#263238" points="190.9,169 201.3,170.5 201.1,173.4 190.6,172.1 				"/>
				<polygon fill="#263238" points="207.5,174.1 202,173.5 202.3,170.6 202.3,170.6 207.2,171.3 				"/>
				<polygon opacity="0.2" enable-background="new    " points="189,168.7 190,168.8 189.7,172 188.9,171.9 				"/>
				<polygon opacity="0.2" enable-background="new    " points="190.9,169 201.3,170.5 201.1,173.4 190.6,172.1 				"/>
				<polygon opacity="0.2" enable-background="new    " points="207.5,174.1 202,173.5 202.3,170.6 202.3,170.6 207.2,171.3 				"/>
			</g>
			<path fill="none" stroke="#FFFFFF" stroke-linecap="round" stroke-linejoin="round" stroke-miterlimit="10" d="M193.8,172.6
				l2.2,0.3c0.5,0.1,1-0.3,1.1-0.8l0.2-1.2c0.1-0.5-0.3-1-0.8-1.1l-2.2-0.3c-0.5-0.1-1,0.3-1.1,0.8l-0.2,1.2
				C192.9,172,193.2,172.5,193.8,172.6z"/>
			
				<line fill="none" stroke="#FFFFFF" stroke-linecap="round" stroke-linejoin="round" stroke-miterlimit="10" x1="195.5" y1="171.2" x2="196.6" y2="171.3"/>
		</g>
		<g>
			<polygon fill="#9B5B95" points="184.5,175.6 186.1,176.4 180.8,194.2 178.6,193.8 			"/>
			<polygon opacity="0.6" fill="#9B5B95" enable-background="new    " points="184.5,175.6 186.1,176.4 180.8,194.2 178.6,193.8 			
				"/>
		</g>
		<g>
			<path fill="#263238" d="M183.3,157.6h-13c-0.5,0-0.9-0.4-1-0.9l-1.8-17.2c0-0.5,0.3-0.9,0.8-0.9h13c0.5,0,0.9,0.4,1,0.9l1.8,17.2
				C184.2,157.2,183.8,157.6,183.3,157.6z"/>
			<path opacity="0.6" fill="#FFFFFF" d="M183.3,157.6h-13c-0.5,0-0.9-0.4-1-0.9l-1.8-17.2c0-0.5,0.3-0.9,0.8-0.9h13
				c0.5,0,0.9,0.4,1,0.9l1.8,17.2C184.2,157.2,183.8,157.6,183.3,157.6z"/>
			<path opacity="0.2" fill="#FFFFFF" d="M182.7,157.6h-12.4c-0.5,0-0.9-0.4-1-0.9l-1.8-17.2c0-0.5,0.3-0.9,0.8-0.9h12.4
				c0.5,0,0.9,0.4,1,0.9l1.8,17.2C183.6,157.2,183.2,157.6,182.7,157.6z"/>
			<path fill="#263238" d="M175.2,146.6c-0.8,0-1.3,0.6-1.3,1.4c0.1,0.8,0.7,1.4,1.5,1.4c0.8,0,1.3-0.6,1.3-1.4
				C175.9,148.1,175.2,147.4,175.2,146.6z"/>
			<path opacity="0.3" d="M178,139.9h-6.9c-0.3,0-0.7-0.2-0.8-0.5l-0.4-0.9h9.1l-0.3,0.9C178.6,139.7,178.3,139.9,178,139.9z"/>
		</g>
		<path fill="#9B5B95" d="M211.1,179.3h-2.4c0,0-3-9-4.8-16.7c-0.5-2.3-0.9-4.4-1.1-6.1c-0.3-2.6,0-4.9,0.6-6.8c1.1-3.8,3.1-6,3.1-6
			l-0.5,0c4.6,0,7,1.5,7.3,4.4c0.3,2.8-4.7,19.7-5,22C208.1,172.2,211.1,179.3,211.1,179.3z"/>
		<path fill="#9B5B95" d="M195.5,143.3c0,0-4.8,7.6-6.1,10.8c-1.3,3.2-0.6,12.5-0.6,12.5s-2.5-11.1-0.9-16.7
			C189.6,144.4,192.3,143.3,195.5,143.3z"/>
		<path fill="#C69076" d="M212.1,150.1c-1.5,2.2-3,4.2-4.9,6.1c-0.9,1-1.9,1.9-3.2,2.8c-0.6,0.4-1.3,0.9-2.3,1.2
			c-0.5,0.2-1.1,0.3-1.8,0.3c-0.4,0-0.8,0-1.2-0.1c-0.2,0-0.4-0.1-0.6-0.2l-0.3-0.1c-0.8-0.4-1.4-0.8-2-1.3
			c-0.6-0.5-1.1-0.9-1.6-1.4c-1-0.9-1.8-1.9-2.6-2.9c-1.6-2-3-4.1-4.3-6.4c-0.4-0.7-0.1-1.6,0.6-2c0.6-0.3,1.3-0.2,1.8,0.3l0,0
			c1.7,1.7,3.4,3.5,5.1,5.1c0.9,0.8,1.8,1.6,2.6,2.2c0.9,0.7,1.8,1.3,2.5,1.5l0.1,0c0,0-0.1,0-0.1-0.1c-0.1,0-0.2,0-0.2,0
			c-0.1,0-0.1,0,0-0.1c0.2-0.1,0.5-0.3,0.9-0.6c0.7-0.6,1.5-1.4,2.2-2.3c1.5-1.7,2.9-3.6,4.3-5.5l0-0.1c0.9-1.3,2.8-1.6,4.1-0.7
			C212.6,147,212.9,148.8,212.1,150.1z"/>
		<path opacity="0.2" d="M211.4,152.3c0,0-4.2,7.2-7.5,10.3c-0.5-2.3-0.9-4.4-1.1-6.1c-0.3-2.6,0-4.9,0.6-6.8
			c1.3-1.1,2.7-2.2,3.4-2.8C208.4,145.5,211.4,152.3,211.4,152.3z"/>
		<path fill="#9B5B95" d="M211.7,145.6c2.2,1.2,1.5,4.4-1.4,8.2c-2.9,3.8-8.2,9-10.9,8s-5.9-4.6-5.9-4.6l2-5.7c0,0,4,3,4.8,2.9
			c0.8-0.2,4.9-5.4,6-7C207.5,145.8,209.3,144.3,211.7,145.6z"/>
		<path fill="#C69076" d="M170.3,146l-0.1,1.1c0,0.6-0.5,1.1-1.1,1.2l-1.5,0.2l0.4-4.2l1.3,0.2C169.9,144.7,170.3,145.3,170.3,146z"
			/>
	</g>
</g>
</svg>
