<?xml version="1.0" encoding="utf-8"?>
<!-- Generator: Adobe Illustrator 25.2.0, SVG Export Plug-In . SVG Version: 6.00 Build 0)  -->
<svg version="1.1" xmlns="http://www.w3.org/2000/svg" xmlns:xlink="http://www.w3.org/1999/xlink" x="0px" y="0px"
	 viewBox="0 0 300 300" enable-background="new 0 0 300 300" xml:space="preserve">
<g id="Background_Complete" display="none">
</g>
<g id="Background_Simple" display="none">
	<g display="inline">
		<path fill="#407BFF" d="M-10.6,24.2c27.9-59.4,127.1-51.1,165.3-9.3c38.3,41.8,50.7,68.6,85.2,53c34.5-15.6,78.5-11.4,81,38.2
			S283,214.4,218.8,231.7c-64.2,17.4-64.2,78.8-149.1,66.4c-46.3-6.8-47.4-56.9-40.8-98.3S-43,93.1-10.6,24.2z"/>
		<path opacity="0.9" fill="#FFFFFF" d="M-10.6,24.2c27.9-59.4,127.1-51.1,165.3-9.3c38.3,41.8,50.7,68.6,85.2,53
			c34.5-15.6,78.5-11.4,81,38.2S283,214.4,218.8,231.7c-64.2,17.4-64.2,78.8-149.1,66.4c-46.3-6.8-47.4-56.9-40.8-98.3
			S-43,93.1-10.6,24.2z"/>
	</g>
</g>
<g id="Shadow_1_">
</g>
<g id="Interface">
</g>
<g id="Plant" display="none">
	<g display="inline">
		<g>
			<path fill="none" stroke="#407BFF" stroke-width="0.9446" stroke-miterlimit="10" d="M36.4,245.5c0,0-6.6-5.5-12.3,0
				c-5.7,5.5-6.8,39.7-6.8,39.7"/>
			<path fill="none" stroke="#407BFF" stroke-width="0.9446" stroke-miterlimit="10" d="M16.9,291.9c0,0,3.9-40.1-10.8-57"/>
			<path fill="none" stroke="#407BFF" stroke-width="0.9446" stroke-miterlimit="10" d="M18.3,287.6c0,0-3-45.7,8-55.8"/>
			<path fill="none" stroke="#407BFF" stroke-width="0.9446" stroke-miterlimit="10" d="M16.9,287.6c0,0-0.3-30.2-8.4-34.9
				c-8.2-4.7-12.4,10.6-12.4,10.6"/>
			<path fill="none" stroke="#407BFF" stroke-width="0.9446" stroke-miterlimit="10" d="M20.1,287.6c0,0-1.3-23.2,5-31.5
				c6.3-8.3,13,3.5,13,3.5"/>
			<path fill="none" stroke="#407BFF" stroke-width="0.9446" stroke-miterlimit="10" d="M17.9,290.7c0,0,4.1-54.2-2.7-63.4"/>
		</g>
		<g>
			<path fill="#407BFF" d="M1.4,257.2c0,0,4.1,1.5,2.9,5.1c-1.2,3.6-14.1,9.4-14.1,9.4s-5.4-5-0.4-13
				C-5.3,250.5,1.3,254.6,1.4,257.2z"/>
			<path opacity="0.2" enable-background="new    " d="M1.4,257.2c0,0,4.1,1.5,2.9,5.1c-1.2,3.6-14.1,9.4-14.1,9.4s-5.4-5-0.4-13
				C-5.3,250.5,1.3,254.6,1.4,257.2z"/>
		</g>
		<g>
			<path fill="#407BFF" d="M19.2,250.4c0,0-4.3-0.2-4.6,3.6c-0.2,3.7,9.4,14.1,9.4,14.1s6.9-2.5,5.4-11.8
				C28,246.9,20.3,248.1,19.2,250.4z"/>
			<path opacity="0.2" enable-background="new    " d="M19.2,250.4c0,0-4.3-0.2-4.6,3.6c-0.2,3.7,9.4,14.1,9.4,14.1
				s6.9-2.5,5.4-11.8C28,246.9,20.3,248.1,19.2,250.4z"/>
		</g>
		<g>
			<path fill="#407BFF" d="M22.9,232.5c0,0-2.9-0.3-2.7-2.1c0.2-1.8,11.3-6.3,17.8,1c0,0-4.2,7.2-10.2,7.3
				C21.8,238.8,22.9,232.5,22.9,232.5z"/>
			<path opacity="0.2" enable-background="new    " d="M22.9,232.5c0,0-2.9-0.3-2.7-2.1c0.2-1.8,11.3-6.3,17.8,1
				c0,0-4.2,7.2-10.2,7.3C21.8,238.8,22.9,232.5,22.9,232.5z"/>
		</g>
		<g>
			<path fill="#407BFF" d="M17.5,228.2c0,0,2.6,1.3,3.4-0.4c0.7-1.6-6.2-11.3-15.6-8.5c0,0-0.2,8.3,4.8,11.5
				C15.1,234.1,17.5,228.2,17.5,228.2z"/>
			<path opacity="0.2" enable-background="new    " d="M17.5,228.2c0,0,2.6,1.3,3.4-0.4c0.7-1.6-6.2-11.3-15.6-8.5
				c0,0-0.2,8.3,4.8,11.5C15.1,234.1,17.5,228.2,17.5,228.2z"/>
		</g>
		<g>
			<path fill="#407BFF" d="M31.2,255.7c0,0-2-1.6,0.2-2.4c2.2-0.8,12.8-0.6,12.9,9.9c0,0-12.3,2.1-13.9-1.9
				C28.8,257.3,31.2,255.7,31.2,255.7z"/>
			<path opacity="0.2" enable-background="new    " d="M31.2,255.7c0,0-2-1.6,0.2-2.4c2.2-0.8,12.8-0.6,12.9,9.9
				c0,0-12.3,2.1-13.9-1.9C28.8,257.3,31.2,255.7,31.2,255.7z"/>
		</g>
		<g>
			<path fill="#407BFF" d="M6,232.2c0,0,2-1.6-0.2-2.4C3.7,229-6.9,229.2-7,239.7c0,0,12.3,2.1,13.9-1.9C8.4,233.8,6,232.2,6,232.2z
				"/>
			<path opacity="0.2" enable-background="new    " d="M6,232.2c0,0,2-1.6-0.2-2.4C3.7,229-6.9,229.2-7,239.7c0,0,12.3,2.1,13.9-1.9
				C8.4,233.8,6,232.2,6,232.2z"/>
		</g>
		<g>
			<path fill="#407BFF" d="M12.6,240.6c0,0,0.2-2-1.4-1.2c-1.6,0.8-7.1,6.7-1.4,12.4c0,0,7.7-5.7,6.3-8.7
				C14.7,240.2,12.6,240.6,12.6,240.6z"/>
			<path opacity="0.2" enable-background="new    " d="M12.6,240.6c0,0,0.2-2-1.4-1.2c-1.6,0.8-7.1,6.7-1.4,12.4
				c0,0,7.7-5.7,6.3-8.7C14.7,240.2,12.6,240.6,12.6,240.6z"/>
		</g>
		<g>
			<path fill="#407BFF" d="M33,243.4c0,0-1.2-1.6,0.6-1.8c1.8-0.2,9.6,1.9,7.8,9.7c0,0-9.6-0.7-10-4C30.9,244.2,33,243.4,33,243.4z"
				/>
			<path opacity="0.2" enable-background="new    " d="M33,243.4c0,0-1.2-1.6,0.6-1.8c1.8-0.2,9.6,1.9,7.8,9.7c0,0-9.6-0.7-10-4
				C30.9,244.2,33,243.4,33,243.4z"/>
		</g>
		<polygon fill="#263238" points="2.2,316.7 33.1,316.7 37.2,286.7 -1.9,286.7 		"/>
		<polygon opacity="0.2" fill="#FFFFFF" enable-background="new    " points="2.2,316.7 33.1,316.7 37.2,286.7 -1.9,286.7 		"/>
		<path fill="#263238" d="M41.1,284.2v2.9c0,1.9-1.5,3.5-3.5,3.5H-2.8c-1.9,0-3.5-1.5-3.5-3.5v-2.9H41.1z"/>
	</g>
</g>
<g id="Speech_bubble">
</g>
<g id="Character">
	<g>
		<g>
			<rect x="15.6" y="217.1" fill="#EBEBEB" width="268.7" height="0.1"/>
			<rect x="239.6" y="225.8" fill="#EBEBEB" width="17.8" height="0.1"/>
			<rect x="189" y="227.2" fill="#EBEBEB" width="4.7" height="0.1"/>
			<rect x="228.8" y="220.8" fill="#EBEBEB" width="10.3" height="0.1"/>
			<rect x="43.8" y="221.7" fill="#EBEBEB" width="23.2" height="0.1"/>
			<rect x="71.8" y="221.7" fill="#EBEBEB" width="3.4" height="0.1"/>
			<rect x="86.3" y="223.9" fill="#EBEBEB" width="50.3" height="0.1"/>
			<path fill="#EBEBEB" d="M143,193.1H39.2c-1.7,0-3.1-1.4-3.1-3.1V44.2c0-1.7,1.4-3.1,3.1-3.1H143c1.7,0,3.1,1.4,3.1,3.1v145.9
				C146.1,191.8,144.7,193.1,143,193.1z M39.2,41.3c-1.6,0-2.9,1.3-2.9,2.9v145.9c0,1.6,1.3,2.9,2.9,2.9H143c1.6,0,2.9-1.3,2.9-2.9
				V44.2c0-1.6-1.3-2.9-2.9-2.9H39.2z"/>
			<path fill="#EBEBEB" d="M259.3,193.1H155.5c-1.7,0-3.1-1.4-3.1-3.1V44.2c0-1.7,1.4-3.1,3.1-3.1h103.8c1.7,0,3.1,1.4,3.1,3.1
				v145.9C262.3,191.8,261,193.1,259.3,193.1z M155.5,41.3c-1.6,0-2.9,1.3-2.9,2.9v145.9c0,1.6,1.3,2.9,2.9,2.9h103.8
				c1.6,0,2.9-1.3,2.9-2.9V44.2c0-1.6-1.3-2.9-2.9-2.9H155.5z"/>
		</g>
		<g>
			<g>
				<rect x="69.6" y="105" fill="#F0F0F0" width="76.3" height="111.9"/>
				<g>
					<rect x="72.3" y="108.6" fill="#E0E0E0" width="70.9" height="20.7"/>
					<rect x="72.3" y="111.9" fill="#EBEBEB" width="4" height="17.3"/>
					<rect x="91.7" y="111.9" fill="#EBEBEB" width="4" height="17.3"/>
					
						<rect x="115.4" y="111.7" transform="matrix(0.9855 -0.1698 0.1698 0.9855 -18.7361 21.6847)" fill="#EBEBEB" width="4" height="17.3"/>
					<rect x="77.3" y="114.2" fill="#EBEBEB" width="4" height="15"/>
					<rect x="86.5" y="114.2" fill="#EBEBEB" width="4" height="15"/>
					<rect x="109.9" y="114.2" fill="#EBEBEB" width="4" height="15"/>
					
						<rect x="98.7" y="113.9" transform="matrix(0.9762 -0.2169 0.2169 0.9762 -23.9465 24.7423)" fill="#EBEBEB" width="4" height="15"/>
					<rect x="82.8" y="111.1" fill="#EBEBEB" width="2" height="18.2"/>
					<rect x="106.7" y="111.1" fill="#EBEBEB" width="2" height="18.2"/>
				</g>
				<g>
					
						<rect x="72.3" y="132.5" transform="matrix(-1 -1.224647e-16 1.224647e-16 -1 215.4555 285.6642)" fill="#E0E0E0" width="70.9" height="20.7"/>
					
						<rect x="139.2" y="135.8" transform="matrix(-1 -1.224647e-16 1.224647e-16 -1 282.343 289.0093)" fill="#EBEBEB" width="4" height="17.3"/>
					
						<rect x="119.7" y="135.8" transform="matrix(-1 -1.224647e-16 1.224647e-16 -1 243.3845 289.0093)" fill="#EBEBEB" width="4" height="17.3"/>
					
						<rect x="96.1" y="135.6" transform="matrix(-0.9855 -0.1698 0.1698 -0.9855 170.2265 303.1379)" fill="#EBEBEB" width="4" height="17.3"/>
					
						<rect x="134.2" y="138.1" transform="matrix(-1 -1.224647e-16 1.224647e-16 -1 272.3598 291.2915)" fill="#EBEBEB" width="4" height="15"/>
					
						<rect x="124.9" y="138.1" transform="matrix(-1 -1.224647e-16 1.224647e-16 -1 253.8407 291.2915)" fill="#EBEBEB" width="4" height="15"/>
					
						<rect x="101.5" y="138.1" transform="matrix(-1 -1.224647e-16 1.224647e-16 -1 207.0968 291.2915)" fill="#EBEBEB" width="4" height="15"/>
					
						<rect x="112.7" y="137.9" transform="matrix(-0.9762 -0.2169 0.2169 -0.9762 195.1802 312.1972)" fill="#EBEBEB" width="4" height="15"/>
					
						<rect x="130.7" y="135" transform="matrix(-1 -1.224647e-16 1.224647e-16 -1 263.3786 288.1495)" fill="#EBEBEB" width="2" height="18.2"/>
					
						<rect x="106.7" y="135" transform="matrix(-1 -1.224647e-16 1.224647e-16 -1 215.4555 288.1495)" fill="#EBEBEB" width="2" height="18.2"/>
					<rect x="72.3" y="135.8" fill="#EBEBEB" width="4" height="17.3"/>
					<rect x="77.3" y="138.1" fill="#EBEBEB" width="4" height="15"/>
					<rect x="86.5" y="138.1" fill="#EBEBEB" width="4" height="15"/>
					<rect x="82.8" y="135" fill="#EBEBEB" width="2" height="18.2"/>
				</g>
				<g>
					<rect x="72.3" y="156.4" fill="#E0E0E0" width="70.9" height="20.7"/>
					<g>
						<rect x="113" y="159.8" fill="#EBEBEB" width="4" height="17.3"/>
						
							<rect x="136.6" y="159.6" transform="matrix(0.9855 -0.1698 0.1698 0.9855 -26.5584 25.9851)" fill="#EBEBEB" width="4" height="17.3"/>
						<rect x="98.5" y="162.1" fill="#EBEBEB" width="4" height="15"/>
						<rect x="107.7" y="162.1" fill="#EBEBEB" width="4" height="15"/>
						<rect x="131.1" y="162.1" fill="#EBEBEB" width="4" height="15"/>
						
							<rect x="119.9" y="161.8" transform="matrix(0.9762 -0.2169 0.2169 0.9762 -33.8236 30.4843)" fill="#EBEBEB" width="4" height="15"/>
						<rect x="104" y="158.9" fill="#EBEBEB" width="2" height="18.2"/>
						<rect x="127.9" y="158.9" fill="#EBEBEB" width="2" height="18.2"/>
						
							<rect x="90.2" y="159.6" transform="matrix(0.9855 -0.1698 0.1698 0.9855 -27.2321 18.1135)" fill="#EBEBEB" width="4" height="17.3"/>
						<rect x="84.8" y="162.1" fill="#EBEBEB" width="4" height="15"/>
						
							<rect x="73.6" y="161.8" transform="matrix(0.9762 -0.2169 0.2169 0.9762 -34.927 20.4315)" fill="#EBEBEB" width="4" height="15"/>
						<rect x="81.6" y="158.9" fill="#EBEBEB" width="2" height="18.2"/>
					</g>
				</g>
				
					<rect x="56.4" y="105" transform="matrix(-1 -1.224647e-16 1.224647e-16 -1 125.9796 322.2616)" fill="#E0E0E0" width="13.2" height="112.2"/>
			</g>
			<g>
				<path fill="#F5F5F5" d="M190.5,214.3h-11.2l5.9-47.9c0.2-2,2.1-3.7,4.1-3.7h3.8h45l-7.2,51.6H190.5z"/>
				<path fill="#F0F0F0" d="M226,214.3h11.2l5.9-47.9c0.2-2-1.2-3.7-3.2-3.7H236c-2,0-3.9,1.6-4.1,3.7L226,214.3z"/>
				<g>
					<path fill="#E6E6E6" d="M221.9,214.2l2-23.2c0.1-1,0.9-1.9,1.9-2l0.8-0.1c1.4-0.2,2.5-1.3,2.6-2.7l0.4-4.2
						c0.2-1.7-1.2-3.2-3-3.2h18.7c1.7,0,3.1,1.5,3,3.2l-0.4,4.2c-0.1,1.4-1.2,2.5-2.6,2.7l-0.8,0.1c-1,0.1-1.8,1-1.9,2l-2,23.2
						c-0.1,1.7-1.6,3-3.3,3h-18.7C220.3,217.2,221.8,215.9,221.9,214.2z"/>
				</g>
				<path fill="#E6E6E6" d="M170.5,185.3c-0.3-3.6-3.4-6.4-7-6.4h9h7.2c3.7,0,6.7,2.8,7,6.4l1.6,18.4h-16.3L170.5,185.3z"/>
				<path fill="#F0F0F0" d="M156.2,178.8h7.2c3.7,0,6.7,2.8,7,6.4l1.6,18.4h38.8l1.6-18.4c0.3-3.6,3.4-6.4,7-6.4h7.2
					c1.7,0,3.1,1.5,3,3.2l-0.4,4.2c-0.1,1.4-1.2,2.5-2.6,2.7l-0.8,0.1c-1,0.1-1.8,1-1.9,2l-2,23.2c-0.1,1.7-1.6,3-3.3,3h-54.4
					c-1.7,0-3.1-1.3-3.3-3l-2-23.2c-0.1-1-0.9-1.9-1.9-2l-0.8-0.1c-1.4-0.2-2.5-1.3-2.6-2.7l-0.4-4.2
					C153.1,180.3,154.5,178.8,156.2,178.8z"/>
			</g>
			<g>
				<path fill="#E6E6E6" d="M70.5,99.5c0,0-0.6-3.9,2.3-6.4c2.9-2.5,2.6-4,1.8-4.2c-0.8-0.2-1.6,2.3-2.8,3c0,0,0-3.6,1.2-4.9
					c1.3-1.3,1.9-4.7,0.7-4.8c-1.2-0.1-1.3,2-1.6,3.5c-0.3,1.5-1.6,3.6-1.6,3.6s-0.3-3.2-1.1-4.5c-0.8-1.3,1.4-4.3,0.5-5.7
					s-2.4,1.2-2.2,4c0.1,2.8,2,5.9,1.6,8.8c0,0-0.8-2.1-1.6-2.3c-0.7-0.2-1.5-1.6-2-2.1c-0.5-0.5-1.1,1.3,0,2.9c1.1,1.6,4,6,3.6,9.5
					L70.5,99.5z"/>
				<path fill="#E6E6E6" d="M72.3,97.7l0.9,5.9c0.3,1.8-1.1,3.5-3,3.5h-1c-1.8,0-3.2-1.6-3-3.5l0.9-5.9H72.3z"/>
				
					<rect x="128.5" y="93.3" transform="matrix(-1 -1.224647e-16 1.224647e-16 -1 259.9829 199.1659)" fill="#EBEBEB" width="2.9" height="12.6"/>
				
					<rect x="114.4" y="93.3" transform="matrix(-1 -1.224647e-16 1.224647e-16 -1 231.75 199.1659)" fill="#EBEBEB" width="2.9" height="12.6"/>
				
					<rect x="97.3" y="93.2" transform="matrix(-0.9855 -0.1698 0.1698 -0.9855 179.2028 214.182)" fill="#EBEBEB" width="2.9" height="12.6"/>
				
					<rect x="124.9" y="95" transform="matrix(-1 -1.224647e-16 1.224647e-16 -1 252.7481 200.8198)" fill="#EBEBEB" width="2.9" height="10.9"/>
				
					<rect x="118.2" y="95" transform="matrix(-1 -1.224647e-16 1.224647e-16 -1 239.3275 200.8198)" fill="#EBEBEB" width="2.9" height="10.9"/>
				
					<rect x="101.3" y="95" transform="matrix(-1 -1.224647e-16 1.224647e-16 -1 205.4527 200.8198)" fill="#EBEBEB" width="2.9" height="10.9"/>
				
					<rect x="109.4" y="94.8" transform="matrix(-0.9762 -0.2169 0.2169 -0.9762 197.2708 222.098)" fill="#EBEBEB" width="2.9" height="10.9"/>
				
					<rect x="122.4" y="92.7" transform="matrix(-1 -1.224647e-16 1.224647e-16 -1 246.2395 198.5428)" fill="#EBEBEB" width="1.5" height="13.2"/>
				
					<rect x="105" y="92.7" transform="matrix(-1 -1.224647e-16 1.224647e-16 -1 211.5102 198.5428)" fill="#EBEBEB" width="1.5" height="13.2"/>
				<g>
					<rect x="80.4" y="95.9" fill="#EBEBEB" width="14.2" height="9.8"/>
				</g>
				<g>
					<rect x="131.5" y="99.9" fill="#EBEBEB" width="11.9" height="7.3"/>
				</g>
				<g>
					<rect x="134.7" y="93.5" fill="#EBEBEB" width="6" height="7.3"/>
				</g>
			</g>
			<g>
				<rect x="226" y="83.8" fill="#E0E0E0" width="14.2" height="59.1"/>
				
					<rect x="185.7" y="83.8" transform="matrix(-1 -1.224647e-16 1.224647e-16 -1 424.3398 226.7615)" fill="#E0E0E0" width="53" height="59.2"/>
				
					<rect x="184" y="83.8" transform="matrix(-1 -1.224647e-16 1.224647e-16 -1 422.9113 226.7615)" fill="#F0F0F0" width="55" height="59.2"/>
				
					<rect x="186.3" y="85.7" transform="matrix(-1 -1.224647e-16 1.224647e-16 -1 422.9998 225.9295)" fill="#FFFFFF" width="50.4" height="54.6"/>
				
					<rect x="186.3" y="85.7" transform="matrix(-1 -1.224647e-16 1.224647e-16 -1 373.5512 225.9295)" fill="#E0E0E0" width="0.9" height="54.6"/>
				
					<rect x="211.2" y="100.8" transform="matrix(6.123234e-17 -1 1 6.123234e-17 86.2885 337.6191)" fill="#E0E0E0" width="1.5" height="49.7"/>
				
					<rect x="186.3" y="122.5" transform="matrix(-1 -1.224647e-16 1.224647e-16 -1 423.7897 247.386)" fill="#F0F0F0" width="51.2" height="2.5"/>
			</g>
		</g>
		<ellipse id="_x3C_Path_x3E__359_" fill="#F5F5F5" cx="150" cy="235.3" rx="104.2" ry="6.1"/>
		<g>
			<path fill="#505188" d="M185.3,214.8H95.9c-4,0-7.3-3.3-7.3-7.3V101c0-4,3.3-7.3,7.3-7.3h89.4c4,0,7.3,3.3,7.3,7.3v106.5
				C192.6,211.5,189.3,214.8,185.3,214.8z"/>
			<path opacity="0.6" fill="#FFFFFF" enable-background="new    " d="M185.3,214.8H95.9c-4,0-7.3-3.3-7.3-7.3V101
				c0-4,3.3-7.3,7.3-7.3h89.4c4,0,7.3,3.3,7.3,7.3v106.5C192.6,211.5,189.3,214.8,185.3,214.8z"/>
			<g>
				<rect x="105.4" y="149.3" fill="#FFFFFF" width="70.3" height="12"/>
				<g opacity="0.4">
					<path fill="#263238" d="M111.7,156.5v0.3h-2.4v-3.5h2.4v0.3h-2v1.2h1.8v0.3h-1.8v1.3H111.7z"/>
					<path fill="#263238" d="M112.2,155.3h1.3v0.3h-1.3V155.3z"/>
					<path fill="#263238" d="M118.6,155.3v1.5h-0.3v-1.5c0-0.5-0.3-0.8-0.7-0.8c-0.5,0-0.9,0.3-0.9,0.9v1.4h-0.4v-1.5
						c0-0.5-0.3-0.8-0.7-0.8c-0.5,0-0.9,0.3-0.9,0.9v1.4h-0.4v-2.6h0.3v0.5c0.2-0.3,0.5-0.5,1-0.5c0.4,0,0.8,0.2,0.9,0.5
						c0.2-0.3,0.6-0.5,1-0.5C118.2,154.2,118.6,154.5,118.6,155.3z"/>
					<path fill="#263238" d="M121.5,155.2v1.6h-0.3v-0.4c-0.2,0.3-0.5,0.4-0.9,0.4c-0.6,0-0.9-0.3-0.9-0.8c0-0.4,0.3-0.7,1-0.7h0.8
						v-0.2c0-0.4-0.3-0.7-0.7-0.7c-0.3,0-0.7,0.1-0.9,0.3l-0.2-0.3c0.3-0.2,0.6-0.3,1.1-0.3C121.1,154.2,121.5,154.5,121.5,155.2z
						 M121.1,156v-0.4h-0.8c-0.5,0-0.7,0.2-0.7,0.5c0,0.3,0.2,0.5,0.7,0.5C120.7,156.5,121,156.3,121.1,156z"/>
					<path fill="#263238" d="M122.3,153.4c0-0.1,0.1-0.2,0.3-0.2c0.1,0,0.3,0.1,0.3,0.2c0,0.1-0.1,0.3-0.3,0.3
						C122.5,153.6,122.3,153.5,122.3,153.4z M122.4,154.2h0.4v2.6h-0.4V154.2z"/>
					<path fill="#263238" d="M123.8,153.1h0.4v3.7h-0.4V153.1z"/>
				</g>
			</g>
			<g>
				<rect x="105.4" y="165.7" fill="#FFFFFF" width="70.3" height="12"/>
				<g opacity="0.4">
					<path fill="#263238" d="M112,171c0,0.7-0.5,1.2-1.4,1.2h-0.9v1.1h-0.4v-3.4h1.3C111.4,169.8,112,170.2,112,171z M111.6,171
						c0-0.6-0.4-0.9-1.1-0.9h-0.9v1.7h0.9C111.3,171.8,111.6,171.5,111.6,171z"/>
					<path fill="#263238" d="M114.6,171.6v1.6h-0.3v-0.4c-0.2,0.3-0.5,0.4-0.9,0.4c-0.6,0-0.9-0.3-0.9-0.8c0-0.4,0.3-0.7,1-0.7h0.8
						v-0.2c0-0.4-0.3-0.7-0.7-0.7c-0.3,0-0.7,0.1-0.9,0.3l-0.2-0.3c0.3-0.2,0.6-0.4,1.1-0.4C114.2,170.6,114.6,171,114.6,171.6z
						 M114.3,172.5V172h-0.8c-0.5,0-0.7,0.2-0.7,0.5c0,0.3,0.2,0.5,0.7,0.5C113.9,173,114.1,172.8,114.3,172.5z"/>
					<path fill="#263238" d="M115.2,172.9l0.2-0.3c0.2,0.2,0.6,0.3,0.9,0.3c0.5,0,0.7-0.2,0.7-0.4c0-0.7-1.7-0.1-1.7-1.2
						c0-0.4,0.4-0.7,1-0.7c0.3,0,0.7,0.1,0.9,0.2l-0.2,0.3c-0.2-0.2-0.5-0.2-0.8-0.2c-0.5,0-0.7,0.2-0.7,0.4c0,0.7,1.7,0.2,1.7,1.2
						c0,0.4-0.4,0.7-1.1,0.7C115.8,173.3,115.4,173.1,115.2,172.9z"/>
					<path fill="#263238" d="M117.6,172.9l0.2-0.3c0.2,0.2,0.6,0.3,0.9,0.3c0.5,0,0.7-0.2,0.7-0.4c0-0.7-1.7-0.1-1.7-1.2
						c0-0.4,0.4-0.7,1-0.7c0.3,0,0.7,0.1,0.9,0.2l-0.2,0.3c-0.2-0.2-0.5-0.2-0.8-0.2c-0.5,0-0.7,0.2-0.7,0.4c0,0.7,1.7,0.2,1.7,1.2
						c0,0.4-0.4,0.7-1.1,0.7C118.3,173.3,117.8,173.1,117.6,172.9z"/>
					<path fill="#263238" d="M124.2,170.6l-1,2.6h-0.3l-0.8-2.1l-0.8,2.1h-0.3l-1-2.6h0.3l0.8,2.2l0.8-2.2h0.3l0.8,2.2l0.8-2.2
						H124.2z"/>
					<path fill="#263238" d="M124.3,171.9c0-0.8,0.6-1.3,1.3-1.3c0.8,0,1.3,0.5,1.3,1.3c0,0.8-0.6,1.3-1.3,1.3
						C124.9,173.3,124.3,172.7,124.3,171.9z M126.6,171.9c0-0.6-0.4-1-1-1c-0.6,0-1,0.4-1,1c0,0.6,0.4,1,1,1
						C126.2,172.9,126.6,172.5,126.6,171.9z"/>
					<path fill="#263238" d="M129,170.6v0.3c0,0-0.1,0-0.1,0c-0.5,0-0.9,0.3-0.9,1v1.3h-0.4v-2.6h0.3v0.5
						C128.2,170.8,128.5,170.6,129,170.6z"/>
					<path fill="#263238" d="M132,169.6v3.7h-0.3v-0.5c-0.2,0.4-0.6,0.5-1,0.5c-0.7,0-1.3-0.5-1.3-1.3c0-0.8,0.6-1.3,1.3-1.3
						c0.4,0,0.8,0.2,1,0.5v-1.6H132z M131.6,171.9c0-0.6-0.4-1-1-1c-0.6,0-1,0.4-1,1c0,0.6,0.4,1,1,1
						C131.2,172.9,131.6,172.5,131.6,171.9z"/>
				</g>
			</g>
			<rect x="105.4" y="190" opacity="0.2" width="70.3" height="12"/>
			<g display="none" opacity="0.5">
				<path display="inline" d="M122.5,184.5h-1.1l-0.2,0.6h-0.2l0.9-2.1h0.2l0.9,2.1h-0.2L122.5,184.5z M122.5,184.3l-0.5-1.1
					l-0.5,1.1H122.5z"/>
				<path display="inline" d="M123.3,182.9h0.2v2.2h-0.2V182.9z"/>
				<path display="inline" d="M124.9,183.5v0.2c0,0,0,0-0.1,0c-0.3,0-0.5,0.2-0.5,0.6v0.8h-0.2v-1.5h0.2v0.3
					C124.4,183.6,124.6,183.5,124.9,183.5z"/>
				<path display="inline" d="M126.6,184.3h-1.3c0,0.3,0.3,0.5,0.6,0.5c0.2,0,0.4-0.1,0.5-0.2l0.1,0.1c-0.1,0.2-0.4,0.3-0.6,0.3
					c-0.5,0-0.8-0.3-0.8-0.8s0.3-0.8,0.8-0.8C126.3,183.5,126.6,183.8,126.6,184.3C126.6,184.3,126.6,184.3,126.6,184.3z
					 M125.3,184.2h1.1c0-0.3-0.2-0.5-0.6-0.5C125.5,183.7,125.3,183.9,125.3,184.2z"/>
				<path display="inline" d="M128.1,184.1v1h-0.2v-0.2c-0.1,0.2-0.3,0.3-0.5,0.3c-0.4,0-0.6-0.2-0.6-0.5c0-0.2,0.2-0.4,0.6-0.4h0.5
					v-0.1c0-0.3-0.2-0.4-0.4-0.4c-0.2,0-0.4,0.1-0.5,0.2l-0.1-0.2c0.2-0.1,0.4-0.2,0.6-0.2C127.9,183.5,128.1,183.7,128.1,184.1z
					 M127.9,184.6v-0.3h-0.5c-0.3,0-0.4,0.1-0.4,0.3c0,0.2,0.1,0.3,0.4,0.3C127.7,184.9,127.9,184.8,127.9,184.6z"/>
				<path display="inline" d="M130.1,182.9v2.2h-0.2v-0.3c-0.1,0.2-0.3,0.3-0.6,0.3c-0.4,0-0.8-0.3-0.8-0.8c0-0.5,0.3-0.8,0.8-0.8
					c0.2,0,0.5,0.1,0.6,0.3v-0.9H130.1z M129.9,184.3c0-0.4-0.2-0.6-0.6-0.6c-0.3,0-0.6,0.2-0.6,0.6s0.2,0.6,0.6,0.6
					C129.7,184.9,129.9,184.6,129.9,184.3z"/>
				<path display="inline" d="M132,183.5l-0.8,1.7c-0.1,0.3-0.3,0.4-0.5,0.4c-0.1,0-0.3,0-0.4-0.1l0.1-0.2c0.1,0.1,0.2,0.1,0.3,0.1
					c0.1,0,0.2-0.1,0.3-0.3l0.1-0.2l-0.7-1.5h0.2l0.6,1.3l0.6-1.3H132z"/>
				<path display="inline" d="M134.3,184.1v1h-0.2v-0.2c-0.1,0.2-0.3,0.3-0.5,0.3c-0.4,0-0.6-0.2-0.6-0.5c0-0.2,0.2-0.4,0.6-0.4h0.5
					v-0.1c0-0.3-0.2-0.4-0.4-0.4c-0.2,0-0.4,0.1-0.5,0.2l-0.1-0.2c0.2-0.1,0.4-0.2,0.6-0.2C134,183.5,134.3,183.7,134.3,184.1z
					 M134.1,184.6v-0.3h-0.5c-0.3,0-0.4,0.1-0.4,0.3c0,0.2,0.1,0.3,0.4,0.3C133.8,184.9,134,184.8,134.1,184.6z"/>
				<path display="inline" d="M138.2,184.1v0.9h-0.2v-0.9c0-0.3-0.2-0.5-0.4-0.5c-0.3,0-0.5,0.2-0.5,0.6v0.8h-0.2v-0.9
					c0-0.3-0.2-0.5-0.4-0.5c-0.3,0-0.5,0.2-0.5,0.6v0.8h-0.2v-1.5h0.2v0.3c0.1-0.2,0.3-0.3,0.6-0.3c0.3,0,0.5,0.1,0.6,0.3
					c0.1-0.2,0.3-0.3,0.6-0.3C137.9,183.5,138.2,183.7,138.2,184.1z"/>
				<path display="inline" d="M140.1,184.3h-1.3c0,0.3,0.3,0.5,0.6,0.5c0.2,0,0.4-0.1,0.5-0.2l0.1,0.1c-0.1,0.2-0.4,0.3-0.6,0.3
					c-0.5,0-0.8-0.3-0.8-0.8s0.3-0.8,0.8-0.8C139.8,183.5,140.1,183.8,140.1,184.3C140.1,184.3,140.1,184.3,140.1,184.3z
					 M138.8,184.2h1.1c0-0.3-0.2-0.5-0.6-0.5C139,183.7,138.8,183.9,138.8,184.2z"/>
				<path display="inline" d="M143.1,184.1v0.9h-0.2v-0.9c0-0.3-0.2-0.5-0.4-0.5c-0.3,0-0.5,0.2-0.5,0.6v0.8h-0.2v-0.9
					c0-0.3-0.2-0.5-0.4-0.5c-0.3,0-0.5,0.2-0.5,0.6v0.8h-0.2v-1.5h0.2v0.3c0.1-0.2,0.3-0.3,0.6-0.3c0.3,0,0.5,0.1,0.6,0.3
					c0.1-0.2,0.3-0.3,0.6-0.3C142.8,183.5,143.1,183.7,143.1,184.1z"/>
				<path display="inline" d="M145.2,184.3c0,0.5-0.3,0.8-0.8,0.8c-0.3,0-0.5-0.1-0.6-0.3v0.3h-0.2v-2.2h0.2v0.9
					c0.1-0.2,0.3-0.3,0.6-0.3C144.9,183.5,145.2,183.8,145.2,184.3z M145,184.3c0-0.4-0.3-0.6-0.6-0.6c-0.3,0-0.6,0.2-0.6,0.6
					s0.2,0.6,0.6,0.6C144.7,184.9,145,184.6,145,184.3z"/>
				<path display="inline" d="M147,184.3h-1.3c0,0.3,0.3,0.5,0.6,0.5c0.2,0,0.4-0.1,0.5-0.2l0.1,0.1c-0.1,0.2-0.4,0.3-0.6,0.3
					c-0.5,0-0.8-0.3-0.8-0.8s0.3-0.8,0.8-0.8C146.7,183.5,147,183.8,147,184.3C147,184.3,147,184.3,147,184.3z M145.7,184.2h1.1
					c0-0.3-0.2-0.5-0.6-0.5C145.9,183.7,145.7,183.9,145.7,184.2z"/>
				<path display="inline" d="M148.2,183.5v0.2c0,0,0,0-0.1,0c-0.3,0-0.5,0.2-0.5,0.6v0.8h-0.2v-1.5h0.2v0.3
					C147.7,183.6,147.9,183.5,148.2,183.5z"/>
				<path display="inline" d="M149.6,183.5c0-0.2-0.2-0.4-0.5-0.4c-0.3,0-0.4,0.1-0.6,0.2l-0.2-0.1c0.2-0.2,0.4-0.3,0.7-0.3
					c0.4,0,0.7,0.2,0.7,0.5c0,0.5-0.5,0.5-0.5,0.9H149C149,183.9,149.6,183.9,149.6,183.5z M149,184.9c0-0.1,0.1-0.2,0.2-0.2
					c0.1,0,0.2,0.1,0.2,0.2c0,0.1-0.1,0.2-0.2,0.2C149,185.1,149,185,149,184.9z"/>
				<path display="inline" d="M151,183h0.5v1.7h1v0.4H151V183z"/>
				<path display="inline" d="M152.6,184.3c0-0.5,0.4-0.8,0.9-0.8c0.5,0,0.9,0.3,0.9,0.8s-0.4,0.8-0.9,0.8
					C153,185.1,152.6,184.7,152.6,184.3z M153.9,184.3c0-0.3-0.2-0.4-0.4-0.4c-0.2,0-0.4,0.2-0.4,0.4c0,0.3,0.2,0.4,0.4,0.4
					C153.7,184.7,153.9,184.5,153.9,184.3z"/>
				<path display="inline" d="M156.3,183.5v1.3c0,0.6-0.3,0.9-0.9,0.9c-0.3,0-0.6-0.1-0.8-0.2l0.2-0.3c0.1,0.1,0.4,0.2,0.6,0.2
					c0.3,0,0.5-0.1,0.5-0.4v-0.1c-0.1,0.1-0.3,0.2-0.5,0.2c-0.4,0-0.8-0.3-0.8-0.8c0-0.5,0.4-0.8,0.8-0.8c0.2,0,0.4,0.1,0.5,0.2
					v-0.2H156.3z M155.9,184.2c0-0.2-0.2-0.4-0.4-0.4c-0.2,0-0.4,0.2-0.4,0.4c0,0.2,0.2,0.4,0.4,0.4
					C155.7,184.6,155.9,184.4,155.9,184.2z"/>
				<path display="inline" d="M157.5,183c0-0.1,0.1-0.3,0.3-0.3c0.2,0,0.3,0.1,0.3,0.2c0,0.2-0.1,0.3-0.3,0.3
					C157.6,183.2,157.5,183.1,157.5,183z M157.6,183.5h0.5v1.6h-0.5V183.5z"/>
				<path display="inline" d="M160.1,184.1v0.9h-0.5v-0.8c0-0.3-0.1-0.4-0.3-0.4c-0.2,0-0.4,0.1-0.4,0.4v0.8h-0.5v-1.6h0.4v0.2
					c0.1-0.1,0.3-0.2,0.5-0.2C159.8,183.4,160.1,183.7,160.1,184.1z"/>
			</g>
			<rect x="105.4" y="189.3" fill="#7E5D7B" width="70.3" height="12"/>
			<g>
				<path fill="#FFFFFF" d="M131.5,197.2l-0.9-1.3c-0.1,0-0.2,0-0.3,0h-1v1.3h-0.6v-4.1h1.6c1.1,0,1.7,0.5,1.7,1.4
					c0,0.6-0.3,1.1-0.9,1.3l1,1.4H131.5z M131.5,194.5c0-0.6-0.4-0.9-1.1-0.9h-1v1.9h1C131.1,195.4,131.5,195.1,131.5,194.5z"/>
				<path fill="#FFFFFF" d="M135.8,195.8h-2.5c0.1,0.5,0.5,0.9,1.1,0.9c0.4,0,0.7-0.1,0.9-0.4l0.3,0.4c-0.3,0.3-0.7,0.5-1.2,0.5
					c-1,0-1.7-0.7-1.7-1.6c0-0.9,0.7-1.6,1.6-1.6c0.9,0,1.5,0.6,1.5,1.6C135.8,195.7,135.8,195.8,135.8,195.8z M133.2,195.4h2
					c-0.1-0.5-0.5-0.9-1-0.9C133.7,194.5,133.3,194.9,133.2,195.4z"/>
				<path fill="#FFFFFF" d="M139.5,194.1v2.7c0,1.1-0.6,1.6-1.6,1.6c-0.6,0-1.1-0.2-1.5-0.5l0.3-0.4c0.3,0.2,0.7,0.4,1.2,0.4
					c0.7,0,1.1-0.3,1.1-1v-0.2c-0.3,0.3-0.7,0.5-1.1,0.5c-0.9,0-1.6-0.6-1.6-1.5c0-0.9,0.7-1.5,1.6-1.5c0.5,0,0.9,0.2,1.2,0.5v-0.5
					H139.5z M139,195.5c0-0.6-0.4-1-1.1-1c-0.6,0-1.1,0.4-1.1,1c0,0.6,0.4,1,1.1,1C138.5,196.6,139,196.1,139,195.5z"/>
				<path fill="#FFFFFF" d="M140.5,193.1c0-0.2,0.2-0.4,0.4-0.4s0.4,0.2,0.4,0.4c0,0.2-0.2,0.4-0.4,0.4
					C140.7,193.5,140.5,193.3,140.5,193.1z M140.6,194.1h0.6v3.1h-0.6V194.1z"/>
				<path fill="#FFFFFF" d="M141.9,196.9l0.2-0.4c0.3,0.2,0.7,0.3,1.1,0.3c0.5,0,0.7-0.2,0.7-0.4c0-0.7-2-0.1-2-1.3
					c0-0.6,0.5-0.9,1.3-0.9c0.4,0,0.9,0.1,1.1,0.3l-0.2,0.4c-0.3-0.2-0.6-0.2-0.9-0.2c-0.5,0-0.7,0.2-0.7,0.4c0,0.7,2,0.1,2,1.3
					c0,0.6-0.5,0.9-1.3,0.9C142.7,197.2,142.1,197.1,141.9,196.9z"/>
				<path fill="#FFFFFF" d="M147,197c-0.2,0.1-0.4,0.2-0.7,0.2c-0.6,0-1-0.3-1-1v-1.7h-0.5v-0.5h0.5v-0.7h0.6v0.7h0.9v0.5h-0.9v1.7
					c0,0.3,0.2,0.5,0.5,0.5c0.2,0,0.3-0.1,0.4-0.1L147,197z"/>
				<path fill="#FFFFFF" d="M150.4,195.8h-2.5c0.1,0.5,0.5,0.9,1.1,0.9c0.4,0,0.7-0.1,0.9-0.4l0.3,0.4c-0.3,0.3-0.7,0.5-1.2,0.5
					c-1,0-1.7-0.7-1.7-1.6c0-0.9,0.7-1.6,1.6-1.6c0.9,0,1.5,0.6,1.5,1.6C150.4,195.7,150.4,195.8,150.4,195.8z M147.8,195.4h2
					c-0.1-0.5-0.5-0.9-1-0.9C148.3,194.5,147.9,194.9,147.8,195.4z"/>
				<path fill="#FFFFFF" d="M152.8,194v0.5c0,0-0.1,0-0.1,0c-0.6,0-1,0.4-1,1.1v1.6h-0.6v-3.1h0.5v0.5
					C151.9,194.2,152.3,194,152.8,194z"/>
			</g>
			<g opacity="0.6">
				<path fill="#263238" d="M128.3,107l0.2-0.5c0.3,0.3,0.9,0.5,1.5,0.5c0.8,0,1.1-0.3,1.1-0.7c0-1.1-2.7-0.4-2.7-2.1
					c0-0.7,0.5-1.3,1.7-1.3c0.5,0,1.1,0.1,1.5,0.4l-0.2,0.5c-0.4-0.3-0.8-0.4-1.2-0.4c-0.8,0-1.1,0.3-1.1,0.7c0,1.1,2.7,0.4,2.7,2.1
					c0,0.7-0.6,1.3-1.7,1.3C129.3,107.6,128.6,107.4,128.3,107z"/>
				<path fill="#263238" d="M132.5,103.1c0-0.2,0.2-0.4,0.4-0.4c0.2,0,0.4,0.2,0.4,0.4c0,0.2-0.2,0.4-0.4,0.4
					C132.7,103.5,132.5,103.3,132.5,103.1z M132.6,104.1h0.6v3.4h-0.6V104.1z"/>
				<path fill="#263238" d="M137.7,104.1v3c0,1.2-0.6,1.8-1.8,1.8c-0.6,0-1.3-0.2-1.6-0.5l0.3-0.5c0.3,0.3,0.8,0.4,1.3,0.4
					c0.8,0,1.2-0.4,1.2-1.1v-0.3c-0.3,0.4-0.7,0.5-1.2,0.5c-1,0-1.7-0.7-1.7-1.7c0-1,0.7-1.7,1.7-1.7c0.5,0,1,0.2,1.3,0.6v-0.5
					H137.7z M137.1,105.8c0-0.7-0.5-1.1-1.2-1.1c-0.7,0-1.2,0.4-1.2,1.1c0,0.7,0.5,1.1,1.2,1.1C136.6,106.9,137.1,106.4,137.1,105.8
					z"/>
				<path fill="#263238" d="M142.1,105.6v2h-0.6v-1.9c0-0.7-0.3-1-0.9-1c-0.7,0-1.1,0.4-1.1,1.1v1.8h-0.6v-3.4h0.6v0.5
					c0.3-0.3,0.7-0.5,1.2-0.5C141.5,104.1,142.1,104.6,142.1,105.6z"/>
				<path fill="#263238" d="M148.2,104.1v3.4h-0.6V107c-0.3,0.4-0.7,0.6-1.2,0.6c-0.9,0-1.5-0.5-1.5-1.5v-2h0.6v1.9
					c0,0.7,0.3,1,0.9,1c0.6,0,1.1-0.4,1.1-1.1v-1.8H148.2z"/>
				<path fill="#263238" d="M152.9,105.9c0,1.1-0.7,1.7-1.7,1.7c-0.5,0-0.9-0.2-1.2-0.6v1.8h-0.6v-4.7h0.6v0.5
					c0.3-0.4,0.7-0.6,1.2-0.6C152.2,104.1,152.9,104.8,152.9,105.9z M152.3,105.9c0-0.7-0.5-1.2-1.2-1.2c-0.7,0-1.1,0.5-1.1,1.2
					c0,0.7,0.5,1.2,1.1,1.2C151.8,107.1,152.3,106.6,152.3,105.9z"/>
			</g>
			<g>
				<rect x="105.4" y="132.8" fill="#FFFFFF" width="70.3" height="12"/>
				<g opacity="0.4">
					<path fill="#263238" d="M109.3,136.9h0.4v3.1h1.9v0.3h-2.3V136.9z"/>
					<path fill="#263238" d="M114.1,138.7v1.6h-0.3v-0.4c-0.2,0.3-0.5,0.4-0.9,0.4c-0.6,0-0.9-0.3-0.9-0.8c0-0.4,0.3-0.7,1-0.7h0.8
						v-0.2c0-0.4-0.3-0.7-0.7-0.7c-0.3,0-0.7,0.1-0.9,0.3l-0.2-0.3c0.3-0.2,0.6-0.4,1.1-0.4C113.7,137.7,114.1,138,114.1,138.7z
						 M113.7,139.5v-0.4h-0.8c-0.5,0-0.7,0.2-0.7,0.5c0,0.3,0.2,0.5,0.7,0.5C113.3,140.1,113.6,139.9,113.7,139.5z"/>
					<path fill="#263238" d="M114.7,140l0.2-0.3c0.2,0.2,0.6,0.3,0.9,0.3c0.5,0,0.7-0.2,0.7-0.4c0-0.7-1.7-0.1-1.7-1.2
						c0-0.4,0.4-0.7,1-0.7c0.3,0,0.7,0.1,0.9,0.2l-0.2,0.3c-0.2-0.2-0.5-0.2-0.8-0.2c-0.5,0-0.7,0.2-0.7,0.4c0,0.7,1.7,0.2,1.7,1.2
						c0,0.4-0.4,0.7-1.1,0.7C115.3,140.3,114.9,140.2,114.7,140z"/>
					<path fill="#263238" d="M118.8,140.2c-0.1,0.1-0.3,0.2-0.5,0.2c-0.5,0-0.8-0.3-0.8-0.8V138H117v-0.3h0.5v-0.6h0.3v0.6h0.8v0.3
						h-0.8v1.5c0,0.3,0.2,0.5,0.4,0.5c0.1,0,0.3,0,0.4-0.1L118.8,140.2z"/>
					<path fill="#263238" d="M123.7,136.9v3.4h-0.3l-2.2-2.8v2.8h-0.4v-3.4h0.3l2.2,2.8v-2.8H123.7z"/>
					<path fill="#263238" d="M126.7,138.7v1.6h-0.3v-0.4c-0.2,0.3-0.5,0.4-0.9,0.4c-0.6,0-0.9-0.3-0.9-0.8c0-0.4,0.3-0.7,1-0.7h0.8
						v-0.2c0-0.4-0.3-0.7-0.7-0.7c-0.3,0-0.7,0.1-0.9,0.3l-0.2-0.3c0.3-0.2,0.6-0.4,1.1-0.4C126.3,137.7,126.7,138,126.7,138.7z
						 M126.3,139.5v-0.4h-0.8c-0.5,0-0.7,0.2-0.7,0.5c0,0.3,0.2,0.5,0.7,0.5C125.9,140.1,126.2,139.9,126.3,139.5z"/>
					<path fill="#263238" d="M131.9,138.8v1.5h-0.3v-1.5c0-0.5-0.3-0.8-0.7-0.8c-0.5,0-0.9,0.3-0.9,0.9v1.4h-0.4v-1.5
						c0-0.5-0.3-0.8-0.7-0.8c-0.5,0-0.9,0.3-0.9,0.9v1.4h-0.4v-2.6h0.3v0.5c0.2-0.3,0.5-0.5,1-0.5c0.4,0,0.8,0.2,0.9,0.5
						c0.2-0.3,0.6-0.5,1-0.5C131.5,137.7,131.9,138.1,131.9,138.8z"/>
					<path fill="#263238" d="M135.1,139.1H133c0,0.5,0.5,0.9,1,0.9c0.3,0,0.6-0.1,0.8-0.3l0.2,0.2c-0.2,0.3-0.6,0.4-1,0.4
						c-0.8,0-1.4-0.6-1.4-1.3c0-0.8,0.5-1.3,1.3-1.3c0.7,0,1.3,0.5,1.3,1.3C135.1,139.1,135.1,139.1,135.1,139.1z M133,138.9h1.8
						c0-0.5-0.4-0.9-0.9-0.9C133.4,138,133,138.4,133,138.9z"/>
				</g>
			</g>
			<g>
				<rect x="105.4" y="116.4" fill="#FFFFFF" width="70.3" height="12"/>
				<g opacity="0.4">
					<path fill="#263238" d="M109.6,120.7v1.4h1.8v0.3h-1.8v1.5h-0.4v-3.5h2.4v0.3H109.6z"/>
					<path fill="#263238" d="M112.2,120.5c0-0.1,0.1-0.2,0.3-0.2c0.1,0,0.3,0.1,0.3,0.2c0,0.1-0.1,0.3-0.3,0.3
						C112.3,120.7,112.2,120.6,112.2,120.5z M112.3,121.3h0.4v2.6h-0.4V121.3z"/>
					<path fill="#263238" d="M114.9,121.3v0.3c0,0-0.1,0-0.1,0c-0.5,0-0.9,0.3-0.9,1v1.3h-0.4v-2.6h0.3v0.5
						C114.1,121.4,114.4,121.3,114.9,121.3z"/>
					<path fill="#263238" d="M115.2,123.6l0.2-0.3c0.2,0.2,0.6,0.3,0.9,0.3c0.5,0,0.7-0.2,0.7-0.4c0-0.7-1.7-0.1-1.7-1.2
						c0-0.4,0.4-0.7,1-0.7c0.3,0,0.7,0.1,0.9,0.2l-0.2,0.3c-0.2-0.2-0.5-0.2-0.8-0.2c-0.5,0-0.7,0.2-0.7,0.4c0,0.7,1.7,0.2,1.7,1.2
						c0,0.4-0.4,0.7-1.1,0.7C115.8,123.9,115.4,123.8,115.2,123.6z"/>
					<path fill="#263238" d="M119.3,123.7c-0.1,0.1-0.3,0.2-0.5,0.2c-0.5,0-0.8-0.3-0.8-0.8v-1.6h-0.5v-0.3h0.5v-0.6h0.3v0.6h0.8
						v0.3h-0.8v1.5c0,0.3,0.2,0.5,0.4,0.5c0.1,0,0.3,0,0.4-0.1L119.3,123.7z"/>
					<path fill="#263238" d="M124.2,120.4v3.5h-0.3l-2.2-2.8v2.8h-0.4v-3.5h0.3l2.2,2.8v-2.8H124.2z"/>
					<path fill="#263238" d="M127.2,122.3v1.6h-0.3v-0.4c-0.2,0.3-0.5,0.4-0.9,0.4c-0.6,0-0.9-0.3-0.9-0.8c0-0.4,0.3-0.7,1-0.7h0.8
						v-0.2c0-0.4-0.3-0.7-0.7-0.7c-0.3,0-0.7,0.1-0.9,0.3l-0.2-0.3c0.3-0.2,0.6-0.3,1.1-0.3C126.8,121.3,127.2,121.6,127.2,122.3z
						 M126.9,123.1v-0.4h-0.8c-0.5,0-0.7,0.2-0.7,0.5c0,0.3,0.2,0.5,0.7,0.5C126.4,123.6,126.7,123.4,126.9,123.1z"/>
					<path fill="#263238" d="M132.5,122.4v1.5h-0.3v-1.5c0-0.5-0.3-0.8-0.7-0.8c-0.5,0-0.9,0.3-0.9,0.9v1.4h-0.4v-1.5
						c0-0.5-0.3-0.8-0.7-0.8c-0.5,0-0.9,0.3-0.9,0.9v1.4h-0.4v-2.6h0.3v0.5c0.2-0.3,0.5-0.5,1-0.5c0.4,0,0.8,0.2,0.9,0.5
						c0.2-0.3,0.6-0.5,1-0.5C132,121.3,132.5,121.6,132.5,122.4z"/>
					<path fill="#263238" d="M135.7,122.7h-2.2c0,0.5,0.5,0.9,1,0.9c0.3,0,0.6-0.1,0.8-0.3l0.2,0.2c-0.2,0.3-0.6,0.4-1,0.4
						c-0.8,0-1.4-0.6-1.4-1.3c0-0.8,0.5-1.3,1.3-1.3c0.7,0,1.3,0.5,1.3,1.3C135.7,122.6,135.7,122.6,135.7,122.7z M133.5,122.4h1.8
						c0-0.5-0.4-0.9-0.9-0.9C133.9,121.6,133.6,121.9,133.5,122.4z"/>
				</g>
			</g>
		</g>
		<g>
			<g>
				<path fill="#505188" d="M229.9,65h-15.4c-2.6,0-4.8,2.1-4.8,4.8v13.4c0,2.6,2.1,4.8,4.8,4.8h4.5l-1.1,4.2l4.3-4.2h7.7
					c2.6,0,4.8-2.1,4.8-4.8V69.7C234.6,67.1,232.5,65,229.9,65z"/>
				<path opacity="0.7" fill="#FFFFFF" d="M229.9,65h-15.4c-2.6,0-4.8,2.1-4.8,4.8v13.4c0,2.6,2.1,4.8,4.8,4.8h4.5l-1.1,4.2l4.3-4.2
					h7.7c2.6,0,4.8-2.1,4.8-4.8V69.7C234.6,67.1,232.5,65,229.9,65z"/>
			</g>
			<g>
				<g enable-background="new    ">
					
						<ellipse transform="matrix(0.7071 -0.7071 0.7071 0.7071 11.0597 179.46)" fill="#9B5B95" cx="222.2" cy="76.4" rx="7.7" ry="7.7"/>
				</g>
				<g>
					<path fill="#FFFFFF" d="M221.4,79.8c-0.2,0-0.4-0.1-0.5-0.2l-3-3.5c-0.3-0.3-0.2-0.7,0.1-1c0.3-0.3,0.7-0.2,1,0.1l2.5,2.9
						l4.1-4.8c0.3-0.3,0.7-0.3,1-0.1c0.3,0.3,0.3,0.7,0.1,1l-4.6,5.4C221.8,79.7,221.6,79.8,221.4,79.8z"/>
				</g>
			</g>
		</g>
		<g>
			<g>
				<path fill="#407BFF" d="M227.2,147.9c0,0-9.4-1.2-23.5,2.7c0,0-2.3-25.3-2-28.8c0.3-3.5,21.9-2.5,21.9-2.5s0.6,10.1,1.9,16.3
					C226.9,141.7,227.9,146.7,227.2,147.9z"/>
				<path fill="#9C6677" d="M227.2,147.9c0,0-9.4-1.2-23.5,2.7c0,0-2.3-25.3-2-28.8c0.3-3.5,21.9-2.5,21.9-2.5s0.6,10.1,1.9,16.3
					C226.9,141.7,227.9,146.7,227.2,147.9z"/>
			</g>
			<polygon fill="#C69076" points="196.8,231.7 200.6,232.8 201.6,226.9 202,223.7 198.2,222.6 197.6,226.9 			"/>
			<polygon fill="#C69076" points="218.8,232.1 222.7,232.6 222.7,226.9 222.8,223.4 218.8,222.8 218.8,226.9 			"/>
			<polygon opacity="0.2" points="218.8,222.8 218.8,226.9 222.7,226.9 222.8,223.4 			"/>
			<polygon opacity="0.2" points="197.6,226.9 201.6,226.9 202,223.7 198.2,222.6 			"/>
			<g>
				<path fill="#C69076" d="M179.9,123.8l-3.8-1.1l0.7,4.3c0,0,3.4,0.8,3.8-1L179.9,123.8z"/>
				<polygon fill="#C69076" points="172.3,123.7 174.2,127.2 176.8,127 176.1,122.7 				"/>
			</g>
			<polygon fill="#C69076" points="185.1,124.9 178.9,123.5 178.3,126.6 184,127.9 			"/>
			<path fill="#7E5D7B" d="M203.9,122.2c0,0-0.1,0.2-0.4,0.4c-0.8,0.9-2.7,3.1-4.7,5.1c-1.6,1.6-3.2,2.9-4.3,3.2
				c-3,0.8-14.1-2.5-14.1-2.5l1.1-4.5c0,0,10.3,1.4,11.1,1.4c0.6,0,6.9-9.1,8.4-9.8L203.9,122.2z"/>
			<path opacity="0.2" d="M203.6,122.6c-0.8,0.9-2.7,3.1-4.7,5.1c0.4-3.1,1.6-6,3.1-7.9c0.2-0.2,0.3-0.4,0.5-0.5L203.6,122.6z"/>
			<g>
				<path fill="#263238" d="M196.9,231.1l4.3-0.1c0.2,0,0.3,0.1,0.3,0.3l0.9,3.5c0.1,0.4-0.2,0.7-0.5,0.7c-1.6,0-3.8,0-5.8,0
					c-2.3,0.1-3.8-0.1-6.5,0c-1.6,0-2.1-1.6-1.5-1.8c3.1-0.8,5.1-0.6,7.7-2.3C196.2,231.3,196.5,231.2,196.9,231.1z"/>
				<path fill="#7E5D7B" d="M196.5,231.7C196.5,231.7,196.5,231.7,196.5,231.7c-0.6,0.1-1.8,0.3-2.2,0c-0.1-0.1-0.2-0.3-0.2-0.5
					c0-0.1,0.1-0.2,0.1-0.3c0.5-0.3,2.1,0.5,2.3,0.6C196.5,231.6,196.6,231.6,196.5,231.7C196.6,231.7,196.5,231.7,196.5,231.7z
					 M194.4,231.1C194.3,231.1,194.3,231.1,194.4,231.1c-0.1,0-0.1,0.1-0.1,0.1c0,0.1,0,0.2,0.1,0.3c0.3,0.2,0.9,0.2,1.8,0.1
					C195.5,231.3,194.7,231,194.4,231.1z"/>
				<path fill="#7E5D7B" d="M196.5,231.7C196.5,231.7,196.5,231.7,196.5,231.7c-0.6-0.2-1.5-1-1.5-1.5c0-0.1,0.1-0.2,0.3-0.3
					c0.2,0,0.4,0,0.5,0.1C196.4,230.5,196.6,231.6,196.5,231.7C196.6,231.6,196.6,231.7,196.5,231.7
					C196.5,231.7,196.5,231.7,196.5,231.7z M195.3,230.2C195.2,230.2,195.2,230.2,195.3,230.2c-0.1,0.4,0.6,1,1,1.3
					c-0.1-0.3-0.2-0.9-0.6-1.2C195.7,230.2,195.5,230.1,195.3,230.2C195.4,230.1,195.3,230.2,195.3,230.2z"/>
			</g>
			<g>
				<path fill="#263238" d="M218.9,231.1l4.3-0.1c0.2,0,0.3,0.1,0.3,0.3l0.9,3.5c0.1,0.4-0.2,0.7-0.5,0.7c-1.6,0-3.8,0-5.8,0
					c-2.3,0.1-3.8-0.1-6.5,0c-1.6,0-2.1-1.6-1.5-1.8c3.1-0.8,5.1-0.6,7.7-2.3C218.3,231.3,218.6,231.2,218.9,231.1z"/>
				<path fill="#7E5D7B" d="M218.6,231.7C218.5,231.7,218.5,231.7,218.6,231.7c-0.6,0.1-1.8,0.3-2.2,0c-0.1-0.1-0.2-0.3-0.2-0.5
					c0-0.1,0.1-0.2,0.1-0.3c0.5-0.3,2.1,0.5,2.3,0.6C218.6,231.6,218.6,231.6,218.6,231.7C218.6,231.7,218.6,231.7,218.6,231.7z
					 M216.4,231.1C216.4,231.1,216.4,231.1,216.4,231.1c-0.1,0-0.1,0.1-0.1,0.1c0,0.1,0,0.2,0.1,0.3c0.3,0.2,0.9,0.2,1.8,0.1
					C217.6,231.3,216.7,231,216.4,231.1z"/>
				<path fill="#7E5D7B" d="M218.6,231.7C218.5,231.7,218.5,231.7,218.6,231.7c-0.6-0.2-1.5-1-1.5-1.5c0-0.1,0.1-0.2,0.3-0.3
					c0.2,0,0.4,0,0.5,0.1C218.5,230.5,218.6,231.6,218.6,231.7C218.6,231.6,218.6,231.7,218.6,231.7
					C218.6,231.7,218.6,231.7,218.6,231.7z M217.3,230.2C217.3,230.2,217.3,230.2,217.3,230.2c-0.1,0.4,0.6,1,1,1.3
					c-0.1-0.3-0.2-0.9-0.6-1.2C217.7,230.2,217.6,230.1,217.3,230.2C217.4,230.1,217.4,230.2,217.3,230.2z"/>
			</g>
			<path fill="#263238" d="M226.9,145.6c2.1,9-1.5,80.1-1.5,80.1h-6.9l-3-59.2l-10.9,59.2l-7.4-0.5c4.8-45.9,9.1-73.3,9.1-73.3
				l0-3.5L226.9,145.6z"/>
			<path opacity="0.4" fill="#585874" d="M197.2,225.1l7.4,0.5l8.6-46.6l2.3-12.6l3,59.2h6.9c0,0,3.6-71.1,1.5-80.1l-20.5,2.8l0,3.5
				C206.3,151.9,202.1,179.2,197.2,225.1z"/>
			<g>
				<path fill="#FFFFFF" d="M223.2,112.1c-0.2,4.4-0.1,8.8,0.3,13c0.3,3,0.7,5.9,1.1,8.4c1,6,2.1,10.5,2.3,12.1
					c-3,0.4-14.4,2-20.5,2.8c-7.5-20.9-4.7-33.1-4.7-33.1s2.1-0.9,4.7-1.6c0.3-0.1,0.7-0.2,1-0.3c2.3-0.5,6.1-1,8.7-1.2
					c0.6,0,1.1-0.1,1.7-0.1C220.6,111.9,223.2,112.1,223.2,112.1z"/>
			</g>
			<g>
				<path fill="#C69076" d="M212.2,102.7c0.2,2.9,0.5,8.3,2.8,9.6c0,0-1.5,2.8-4.7,3.1c-2.4,0.2-2.3-2.2-2.3-2.2
					c1.4-1.1,1.1-2.8,0-4.8L212.2,102.7z"/>
				<path opacity="0.2" d="M210.5,105l-2.4,3.4c0.3,0.5,0.5,1,0.6,1.5c1.1-0.5,2.4-2.1,2.2-3.4C210.8,105.8,210.6,105.3,210.5,105z"
					/>
			</g>
			<g>
				<path fill="#263238" d="M201.7,96.9c-0.5,1.5-0.2,4.6,1.9,3.6C205.6,99.4,202.5,94.3,201.7,96.9z"/>
				<path fill="#C69076" d="M212.4,98.9c0.2,3.8,0.6,6.1-1.1,8.2c-2.5,3.3-7.5,2-8.8-1.7c-1.2-3.3-1.4-9,2.1-11
					C208.1,92.6,212.2,95.1,212.4,98.9z"/>
				<path fill="#263238" d="M209.7,96.8v-4.3c0,0,4.6-0.3,4.4,2c2.5,1.3,1.3,5.2-2.1,7.1c-1.9-1.5-1.6-5.1-1.6-5.1
					C210.2,96.6,210,96.7,209.7,96.8z"/>
				<path fill="#C69076" d="M214.3,101.9c-0.2,1-0.8,1.8-1.5,2.3c-1.1,0.7-2-0.2-2-1.4c0-1.1,0.5-2.8,1.7-3
					C213.6,99.6,214.5,100.7,214.3,101.9z"/>
				<path fill="#263238" d="M206.8,100.6c0,0.3-0.1,0.6-0.3,0.6c-0.2,0-0.4-0.2-0.4-0.5c0-0.3,0.1-0.6,0.3-0.6
					C206.5,100.1,206.7,100.3,206.8,100.6z"/>
				<path fill="#263238" d="M203.3,101c0,0.3-0.1,0.6-0.3,0.6c-0.2,0-0.4-0.2-0.4-0.5c0-0.3,0.1-0.6,0.3-0.6
					C203,100.5,203.2,100.7,203.3,101z"/>
				<path fill="#263238" d="M204.4,101c0,0-0.5,1.8-1.2,2.7c0.6,0.4,1.5,0.1,1.5,0.1L204.4,101z"/>
				<path fill="#263238" d="M206.5,104.8c-0.1,0-0.3,0.1-0.4,0.1c-0.1,0-0.1,0-0.1-0.1c0-0.1,0-0.1,0.1-0.1c1.4-0.2,1.9-1.2,1.9-1.2
					c0,0,0.1-0.1,0.1,0c0,0,0.1,0.1,0,0.1C208.1,103.7,207.7,104.5,206.5,104.8z"/>
				<path fill="#263238" d="M207.7,99.4c-0.1,0-0.1,0-0.2-0.1c-0.6-0.6-1.2-0.5-1.2-0.5c-0.1,0-0.2,0-0.2-0.1c0-0.1,0-0.2,0.1-0.2
					c0,0,0.9-0.1,1.6,0.6C207.9,99.1,207.9,99.2,207.7,99.4C207.8,99.3,207.7,99.3,207.7,99.4z"/>
				<path fill="#263238" d="M201.6,100c0,0-0.1,0-0.1,0c-0.1,0-0.1-0.1-0.1-0.2c0.3-1,1.2-1.2,1.2-1.2c0.1,0,0.2,0,0.2,0.1
					c0,0.1,0,0.2-0.1,0.2c0,0-0.7,0.2-0.9,0.9C201.7,99.9,201.7,99.9,201.6,100z"/>
				<path fill="#263238" d="M211.8,98.4c0,0-2.7-1-3.9-2.5c0,0-2.4,0.6-2.9,1.6c0,0-0.8-0.7-0.2-1.6c0,0-1.8,0.4-2.2,1.6
					c0,0-0.9-0.3-0.9-1.6c0,0-0.8,0.3-1.1,1.6c0,0-2-4.2,4.6-5.4c0,0-0.5-0.2-1.6-0.3c0,0,4.6-1.9,8.3-0.2
					C215.7,93.4,215,96.7,211.8,98.4z"/>
			</g>
			<g>
				<path fill="#7E5D7B" d="M228.5,149.2L222,150c0,0-2.7-18.6-3.8-24.6v-12.8l3.4-0.9l2.6,0.9c0.6,2.1,1.2,4.8,1.7,7.8
					c0.3,2,0.6,4.2,0.9,6.3c0.3,3,0.6,6,0.9,8.8c0.4,4.6,0.6,8.6,0.8,11.1C228.4,148.2,228.5,149.2,228.5,149.2z"/>
				<path fill="#407BFF" d="M218.2,125.4c0,0,0.5-9,3.4-13.7c0,0-0.1-1.3-0.6-1.5c-0.6-0.2-2.7,1.1-2.7,1.1s-1.3-0.9-1.6-0.5
					C216.2,111.2,215.5,114,218.2,125.4z"/>
				<path fill="#9C6677" d="M218.2,125.4c0,0,0.5-9,3.4-13.7c0,0-0.1-1.3-0.6-1.5c-0.6-0.2-2.7,1.1-2.7,1.1s-1.3-0.9-1.6-0.5
					C216.2,111.2,215.5,114,218.2,125.4z"/>
			</g>
			<g>
				<path fill="#7E5D7B" d="M203.5,151.7l0.7,0.5c0,0-1.1-6-0.6-21.2c0-0.7,0-1.4,0.1-2.1c0.5-12.8,2.5-15.2,2.7-15.3l-1.9,0.6
					l-3.4,1.2C200.1,126.4,203.5,151.7,203.5,151.7z"/>
				<path fill="#407BFF" d="M203.8,126.7c0,0-1.9-8.8-1.3-11.8c0.6-3,2.5-1.7,2.5-1.7s1.8-1.5,2.4,0.2
					C207.4,113.4,204.9,115.1,203.8,126.7z"/>
				<path fill="#9C6677" d="M203.8,126.7c0,0-1.9-8.8-1.3-11.8c0.6-3,2.5-1.7,2.5-1.7s1.8-1.5,2.4,0.2
					C207.4,113.4,204.9,115.1,203.8,126.7z"/>
			</g>
			<path opacity="0.2" d="M226.7,126.8c-2.8-1.5-3.1-5.6-3.1-5.6c0.2-0.1,1.2-0.4,2.3-0.8C226.1,122.5,226.4,124.6,226.7,126.8z"/>
			<path opacity="0.2" d="M213.2,179l2.3-12.6l-0.4-6.7C215.1,159.8,211.9,171.3,213.2,179z"/>
			<path opacity="0.2" d="M228.3,146.7c-1.7-0.1-3.2-0.2-3.2-0.2l-0.3-7c0,0,0.6-0.5,1.8-0.3c0,0,0.6-1.4,1-3.5
				C227.9,140.2,228.2,144.2,228.3,146.7z"/>
			<g>
				<polygon fill="#C69076" points="228.9,132 225.6,136.6 228.2,137.9 231.4,133.7 				"/>
				<path fill="#7E5D7B" d="M224,112.5c2.3,0.2,11.9,11.4,12.3,14.7c0.4,3.4-5.7,9.2-5.7,9.2l-4.1-2c0,0,4.1-5.4,4.3-6.8
					c0.2-1.4-7.5-7.3-7.5-7.3s-0.8-1.7-1-4.2C222.4,113.7,224,112.5,224,112.5z"/>
				<path fill="#9C6677" d="M224.8,135.2c0,0,3.5,0.6,4.9,2.5c0,0-1.4,3.8-2.5,4.2c-1,0.4-3.6,0.4-3.6,0.4S223.4,138.1,224.8,135.2z
					"/>
			</g>
		</g>
	</g>
</g>
</svg>
